#N canvas 0 22 1440 738 10;
#X floatatom 520 -559 5 0 0 0 - - -;
#X obj 536 -910 t f f;
#X obj 538 -883 -;
#X floatatom 538 -830 5 0 0 0 - - -;
#X text 641 -975 raw pulse;
#X obj 797 -973 r sensor-reliability;
#X obj 952 -973 r session-start;
#X obj 1078 -973 r session-end;
#X obj 536 -974 r heart-ibi;
#X obj 1190 -748 tgl 15 0 empty empty empty 17 7 0 10 -262144 -1 -1
0 1;
#X obj 457 -907 bng 15 250 50 0 empty empty empty 17 7 0 10 -262144
-1 -1;
#X obj 1263 -749 bng 15 250 50 0 empty empty empty 17 7 0 10 -262144
-1 -1;
#X msg 1147 -786 1;
#X msg 1266 -791 0;
#X obj 692 -917 tgl 15 0 empty empty empty 17 7 0 10 -262144 -1 -1
0 1;
#X floatatom 485 -909 5 0 0 0 - - -;
#X obj 511 -735 s ibi-difference;
#X obj 646 -801 abs;
#X obj 647 -735 s ibi-difference-abs;
#X obj 707 -661 r session-start;
#X floatatom 848 -565 5 0 0 0 - - -;
#X msg 859 -796 0;
#X floatatom 813 -735 5 0 0 0 - - -;
#X obj 866 -414 send ibi-session-shortest;
#X obj 529 -414 send ibi-session-longest;
#X floatatom 824 -63 5 0 0 0 - - -;
#X obj 916 -79 r ibi-session-longest;
#X obj 864 -102 r ibi-session-shortest;
#X obj 859 -822 r session-start;
#X obj 392 -414 send ibi-mean-32;
#X obj 824 -168 receive ibi-mean-32;
#X obj 528 -527 change;
#X obj 866 -515 change;
#X obj 710 -500 t b;
#X obj 710 -414 send ibi-new-longest;
#X obj 1068 -492 t b;
#X obj 1066 -413 send ibi-new-shortest;
#X obj 309 -683 gk.skeptic 70;
#X obj 266 -414 send ibi-mean-16;
#X obj 157 -413 send ibi-mean-4;
#X obj 722 -437 bng 15 250 50 0 empty empty empty 17 7 0 10 -262144
-1 -1;
#X obj 1111 -441 bng 15 250 50 0 empty empty empty 17 7 0 10 -262144
-1 -1;
#X obj 765 -498 bng 15 250 50 0 empty empty empty 17 7 0 10 -262144
-1 -1;
#X obj 672 -496 bng 15 250 50 0 empty empty empty 17 7 0 10 -262144
-1 -1;
#X obj 164 -297 receive ibi-mean-32;
#X obj 15 -365 receive ibi-mean-4;
#X obj 14 -493 expr 60000/$f1;
#X floatatom 14 -466 5 0 0 0 - - -;
#X floatatom 476 -41 10 0 0 0 - - -;
#X msg 536 -127 50000;
#X obj 15 -413 send ibi-as-bpm;
#X obj 633 -871 change;
#X obj 1110 -130 bng 15 250 50 0 empty empty empty 17 7 0 10 -262144
-1 -1;
#X obj 1277 -127 bng 15 250 50 0 empty empty empty 17 7 0 10 -262144
-1 -1;
#X obj 1240 56 s hr-bang-going-down;
#X obj 974 57 s hr-bang-going-up;
#X obj 1116 -35 timer;
#X obj 1388 -37 timer;
#X obj 1108 -276 r ibi-mean-4;
#X obj 1108 -246 t f f;
#X obj 1110 -219 -;
#X floatatom 1175 -178 5 0 0 0 - - -;
#X floatatom 1138 8 10 0 0 0 - - -;
#X obj 1388 56 s rsa-ms-downward;
#X obj 1116 57 s rsa-ms-upward;
#X floatatom 1408 4 10 0 0 0 - - -;
#X obj 1093 -102 t b b b;
#X obj 1217 -104 t b b b;
#X floatatom 1084 615 5 0 0 0 - - -;
#X floatatom 997 613 5 0 0 0 - - -;
#X obj 996 542 r rsa-ms-upward;
#X obj 15 -284 - 0;
#X obj 15 -229 / 1;
#X obj 15 -193 * 1000;
#X obj 619 -157 r session-start;
#X floatatom 598 -39 10 0 0 0 - - -;
#X msg 619 -126 -5000;
#X obj 445 -126 t f f f;
#X floatatom 65 -256 10 0 0 0 - - -;
#X floatatom 63 -207 10 0 0 0 - - -;
#X obj 607 56 send ibi-dev-4-32-nml-smooth;
#X obj 445 57 send ibi-dev-4-32-nml;
#X obj 445 -13 gk.scale -100 100 0 1;
#X floatatom 82 -54 10 0 0 0 - - -;
#X floatatom 329 -59 10 0 0 0 - - -;
#X floatatom 39 -155 5 0 0 0 - - -;
#N canvas 0 57 744 831 splits 0;
#X obj -130 -46 select 0;
#X msg 17 134 0.0001;
#X obj -130 -83 inlet;
#X obj -119 16 t b;
#X obj -164 202 r session-start;
#X msg 74 267 -5000;
#X text -154 274 reset Trough and Peak;
#X text 156 288 only let IBI related values though - not +/- 5000;
#X floatatom 53 358 10 0 0 0 - - -;
#X floatatom -264 360 10 0 0 0 - - -;
#X floatatom -286 449 10 0 0 0 - - -;
#X obj -266 225 t f f;
#X floatatom 9 443 10 0 0 0 - - -;
#X obj -13 213 t f f;
#X obj -264 198 abs;
#X msg -232 273 -1000;
#X msg -119 138 0.0001;
#X floatatom -63 -47 5 0 0 0 - - -;
#X obj -13 402 gk.scale 0.0001 100 0 1;
#X obj -329 404 gk.scale 0.0001 100 0 1;
#X floatatom -350 110 5 0 0 0 - - -;
#X obj -238 52 t b;
#X obj 1 54 t b;
#X obj -327 497 outlet;
#X obj -13 484 outlet;
#X obj -13 166 float;
#X floatatom 54 206 10 0 0 0 - - -;
#X obj -264 163 float;
#X floatatom -338 197 10 0 0 0 - - -;
#X floatatom -343 262 10 0 0 0 - - -;
#X text -15 -48 avoid divission by zero send 0.0001 instead;
#X obj -289 16 gk.split -0.0001 -1000;
#X obj -13 19 gk.split 0.0001 1000;
#X obj 16 109 gk.onebang;
#X obj -242 113 gk.onebang;
#X obj 53 331 gk.split 0.0001 200;
#X obj -265 329 gk.split 0.0001 200;
#X obj -265 303 gk.peak;
#X obj 53 300 gk.peak;
#X connect 0 0 3 0;
#X connect 0 1 31 0;
#X connect 0 1 32 0;
#X connect 1 0 25 0;
#X connect 2 0 0 0;
#X connect 2 0 17 0;
#X connect 3 0 16 0;
#X connect 4 0 15 0;
#X connect 4 0 5 0;
#X connect 5 0 38 1;
#X connect 8 0 18 2;
#X connect 9 0 19 2;
#X connect 11 0 19 0;
#X connect 11 0 29 0;
#X connect 11 1 37 0;
#X connect 13 0 18 0;
#X connect 13 1 38 0;
#X connect 14 0 11 0;
#X connect 15 0 37 1;
#X connect 16 0 27 0;
#X connect 18 0 12 0;
#X connect 18 0 24 0;
#X connect 19 0 10 0;
#X connect 19 0 23 0;
#X connect 21 0 33 0;
#X connect 21 0 34 1;
#X connect 22 0 33 1;
#X connect 22 0 34 0;
#X connect 25 0 13 0;
#X connect 25 0 26 0;
#X connect 27 0 14 0;
#X connect 27 0 28 0;
#X connect 31 0 20 0;
#X connect 31 0 21 0;
#X connect 31 0 27 0;
#X connect 32 0 22 0;
#X connect 32 0 25 0;
#X connect 33 0 1 0;
#X connect 34 0 16 0;
#X connect 35 0 8 0;
#X connect 36 0 9 0;
#X connect 37 0 36 0;
#X connect 38 0 35 0;
#X restore 15 -125 pd splits -----------------------------;
#X obj 110 54 s rsa-down-smooth;
#X obj 15 54 s rsa-down;
#X obj 244 54 s rsa-up;
#X obj 309 54 s rsa-up-smooth;
#X obj 823 56 send how-slow-32;
#X floatatom 871 -63 5 0 0 0 - - -;
#X floatatom 931 -58 5 0 0 0 - - -;
#X obj 584 -684 r heart-ibi;
#X obj -110 -6 r ibi-as-bpm;
#X obj -110 56 send bpm-mean-32;
#X obj 823 -29 gk.scale 500 800 0.001 1;
#X obj 584 -653 t b b;
#X obj 529 -480 float;
#X obj 866 -470 float;
#X floatatom 427 -509 5 0 0 0 - - -;
#X obj 823 19 clip 0 1;
#X text 417 -288 need to test session-start messages - are they really
reseting things?;
#X obj 237 649 dac~ 1 2;
#X obj 433 -687 gk.split 100 1200;
#X obj 723 -593 gk.trough;
#X obj 483 -591 gk.peak;
#X obj 813 -770 gk.peak;
#X obj 710 -461 gk.onebang 3000;
#X obj 1066 -465 gk.onebang 3000;
#X obj 476 -93 gk.trough;
#X obj 598 -91 gk.peak;
#X obj 598 -65 gk.split 0 200;
#X obj 476 -67 gk.split -200 0;
#X floatatom 162 -363 5 0 0 0 - - -;
#X floatatom 154 -535 5 0 0 0 - - -;
#X obj 996 584 gk.split 3000 10000;
#X obj 1110 -161 gk.edge;
#X obj 155 -202 v;
#X obj 823 -5 gk.spring2 10 0.25;
#X obj 607 25 gk.spring2 5 0.25;
#X obj 309 12 gk.spring2 5 0.25;
#X obj 110 7 gk.spring2 5 0.25;
#X floatatom 772 15 5 0 0 0 - - -;
#X floatatom 776 -30 5 0 0 0 - - -;
#X obj 51 -314 float;
#X obj 3 -342 t f f b;
#X obj 314 535 *~ 0.5;
#X obj 263 537 *~ 0.5;
#X obj 392 -567 gk.mean 32;
#X obj -110 25 gk.mean 32;
#X obj 266 -452 gk.mean 16;
#X obj 141 -452 gk.mean 4;
#X obj 749 479 t b;
#N canvas 368 131 749 586 delay-fx 0;
#X obj 28 39 inlet~;
#X obj 75 375 outlet~;
#X obj 66 113 delwrite~ delay-fx-001L 10000;
#X obj 74 205 delread~ delay-fx-001L 3000;
#X obj 325 77 delwrite~ delay-fx-001R 10000;
#X obj 264 366 outlet~;
#X obj 306 203 delread~ delay-fx-001R 6000;
#X obj 191 157 *~ 0.5;
#X obj 380 158 *~ 0.5;
#X obj 97 302 *~ 0.25;
#X obj 286 301 *~ 0.25;
#X connect 0 0 2 0;
#X connect 0 0 4 0;
#X connect 0 0 1 0;
#X connect 0 0 5 0;
#X connect 3 0 7 0;
#X connect 3 0 9 0;
#X connect 6 0 8 0;
#X connect 6 0 10 0;
#X connect 7 0 2 0;
#X connect 8 0 4 0;
#X connect 9 0 1 0;
#X connect 9 0 5 0;
#X connect 10 0 5 0;
#X connect 10 0 1 0;
#X restore 272 498 pd delay-fx;
#X obj 148 601 clip~ -1 1;
#X obj 289 604 clip~ -1 1;
#X obj 481 535 catch~ pulse~;
#N canvas 51 135 980 672 pulse-sound 0;
#X obj 279 89 inlet;
#X obj 366 413 outlet~;
#X obj 121 106 noise~;
#X obj 136 283 *~;
#X obj 311 223 vline~;
#X obj 312 174 t b;
#X msg 311 199 1 5 \, 0.2 100 105 \, 0.1 1050 110 \, 0 1000 1160;
#X obj 258 132 bng 15 250 50 0 empty empty empty 17 7 0 10 -262144
-1 -1;
#X obj 125 135 lop~ 200;
#X obj 133 231 bp~ 400 10;
#X connect 0 0 5 0;
#X connect 0 0 7 0;
#X connect 2 0 8 0;
#X connect 3 0 1 0;
#X connect 4 0 3 1;
#X connect 5 0 6 0;
#X connect 6 0 4 0;
#X connect 8 0 9 0;
#X connect 9 0 3 0;
#X restore 737 527 pd pulse-sound;
#X text -85 -952 NOTE FOR LIBPD BUILD PD 'abstraction' files refered
to in this patch that need to be added to libPD search path... gk.skeptic.pd
gk.split.pd gk.mean.pd gk.spring2.pd gk.trough.pd gk.peak.pd gk.onebang.pd
gk.sines.pd gk.scale.pd gk.resample.pd gk.edge.pd list-stream.mmb.pd
list-mean.pd list-len.pd;
#X obj 150 535 *~ 0.5;
#X obj 206 535 *~ 0.5;
#N canvas 231 159 1220 758 3-beeps 0;
#X obj -100 11 inlet;
#X obj -37 398 vline~;
#X obj -1 448 *~;
#X obj -123 13 bng 15 250 50 0 empty empty empty 17 7 0 10 -262144
-1 -1;
#X msg -37 355 1 5 0 \, 0 5 75;
#X obj 92 358 osc~ 880;
#X obj -115 473 throw~ test-beeps;
#X obj -100 46 t b b b -----------------------------;
#X obj 166 258 t b b;
#X msg 192 286 440;
#X obj 50 253 t b b;
#X msg 76 281 880;
#X obj -89 256 t b b;
#X msg -63 284 1320;
#X floatatom 93 335 5 0 0 0 - - -;
#X obj 137 285 delay 5;
#X obj 19 287 delay 5;
#X obj -124 286 delay 5;
#X obj -76 190 delay 400;
#X obj 29 187 delay 200;
#X connect 0 0 7 0;
#X connect 1 0 2 1;
#X connect 2 0 6 0;
#X connect 3 0 7 0;
#X connect 4 0 1 0;
#X connect 5 0 2 0;
#X connect 7 0 18 0;
#X connect 7 1 19 0;
#X connect 7 2 8 0;
#X connect 8 0 15 0;
#X connect 8 1 9 0;
#X connect 9 0 14 0;
#X connect 10 0 16 0;
#X connect 10 1 11 0;
#X connect 11 0 14 0;
#X connect 12 0 17 0;
#X connect 12 1 13 0;
#X connect 13 0 14 0;
#X connect 14 0 5 0;
#X connect 15 0 4 0;
#X connect 16 0 4 0;
#X connect 17 0 4 0;
#X connect 18 0 12 0;
#X connect 19 0 10 0;
#X restore 937 -896 pd 3-beeps;
#X obj 909 -932 bng 15 250 50 0 empty empty empty 17 7 0 10 -262144
-1 -1;
#X obj 150 453 catch~ sines-how-slow-32~;
#X obj 364 534 catch~ test-beeps;
#N canvas 231 159 1220 758 3-beeps 0;
#X obj -100 11 inlet;
#X obj -37 398 vline~;
#X obj -1 448 *~;
#X obj -123 13 bng 15 250 50 0 empty empty empty 17 7 0 10 -262144
-1 -1;
#X msg -37 355 1 5 0 \, 0 5 75;
#X obj 92 358 osc~ 880;
#X obj -115 473 throw~ test-beeps;
#X obj -100 46 t b b b -----------------------------;
#X obj 166 258 t b b;
#X obj 50 253 t b b;
#X msg 76 281 880;
#X obj -89 256 t b b;
#X floatatom 93 335 5 0 0 0 - - -;
#X obj 137 285 delay 5;
#X obj 19 287 delay 5;
#X obj -124 286 delay 5;
#X obj -76 190 delay 400;
#X obj 29 187 delay 200;
#X msg 192 286 1320;
#X msg -63 284 440;
#X connect 0 0 7 0;
#X connect 1 0 2 1;
#X connect 2 0 6 0;
#X connect 3 0 7 0;
#X connect 4 0 1 0;
#X connect 5 0 2 0;
#X connect 7 0 16 0;
#X connect 7 1 17 0;
#X connect 7 2 8 0;
#X connect 8 0 13 0;
#X connect 8 1 18 0;
#X connect 9 0 14 0;
#X connect 9 1 10 0;
#X connect 10 0 12 0;
#X connect 11 0 15 0;
#X connect 11 1 19 0;
#X connect 12 0 5 0;
#X connect 13 0 4 0;
#X connect 14 0 4 0;
#X connect 15 0 4 0;
#X connect 16 0 11 0;
#X connect 17 0 9 0;
#X connect 18 0 12 0;
#X connect 19 0 12 0;
#X restore 1073 -903 pd 3-beeps;
#X obj 1053 -934 bng 15 250 50 0 empty empty empty 17 7 0 10 -262144
-1 -1;
#N canvas 0 22 1133 1037 samples-01 0;
#N canvas 0 22 450 300 (subpatch) 0;
#X array sample-01L 546047 float 2;
#X coords 0 1 546047 -1 200 140 1;
#X restore 618 145 graph;
#N canvas 0 22 450 300 (subpatch) 0;
#X array sample-01R 546047 float 2;
#X coords 0 1 546047 -1 200 140 1;
#X restore 618 -18 graph;
#X obj 159 107 bng 15 250 50 0 empty empty empty 17 7 0 10 -262144
-1 -1;
#X obj 159 127 openpanel;
#X obj 159 194 soundfiler;
#X floatatom 159 226 15 0 0 0 - - -;
#X text 836 229 NOTE: will need to develop a work-around use of expr
object expr object is licensed under GNU GPL so can't be submitted
to App Store. Should be OK for pilot trial (doesn't use App Store)
\, but a high priority for App Stotre release.;
#X text 620 299 NOTE: Samplerate for audio needs to be set at 22050
Hz;
#X obj 203 452 tabread4~ sample-01R;
#X obj 43 450 tabread4~ sample-01L;
#X obj 401 468 vsl 50 128 0 1 0 0 empty empty empty 0 -9 0 10 -262144
-1 -1 0 1;
#X obj 42 388 vline~;
#X obj 41 169 mtof;
#X floatatom 57 137 5 0 0 0 - - -;
#X floatatom 159 278 10 0 0 0 - - -;
#X floatatom 42 271 10 0 0 0 - - -;
#X msg 42 349 1 \, \$1 \$2;
#X obj 56 114 bng 15 250 50 0 empty empty empty 17 7 0 10 -262144 -1
-1;
#X obj 159 249 / 44.1;
#X msg 447 342 /Users/georgepoonkhinkhut/Dropbox/BrightHearts_iOS_beta_Development/brighthearts-ios-pd/samples/daphne_tibetan-bell.aif
;
#X msg 447 308 set \$1;
#X floatatom 55 192 5 0 0 0 - - -;
#X msg 97 137 69;
#X obj 41 219 / 441;
#X obj 41 245 * 441000;
#X obj 41 81 inlet;
#X obj 42 322 pack 0 0 -------------------------;
#X text 245 105 Q: what is the file path needed for libpd?;
#X msg 246 129 daphne_tibetan-bell.aif;
#X msg 503 493 -resize;
#X msg 503 459 set \$1;
#X obj 93 108 r note;
#X obj 166 56 s note;
#X msg 411 3 46;
#X msg 448 3 47;
#X msg 49 7 64;
#X msg 82 5 67;
#X msg 136 4 69;
#X msg 191 4 79;
#X msg 232 3 86;
#X msg 268 3 88;
#X msg 303 3 91;
#X msg 340 3 96;
#X msg 376 3 98;
#X obj 202 739 *~ 0.5;
#X obj 98 739 *~ 0.5;
#N canvas 368 131 749 586 delay-fx 0;
#X obj 28 39 inlet~;
#X obj 75 375 outlet~;
#X obj 264 366 outlet~;
#X obj 97 302 *~ 0.25;
#X obj 286 301 *~ 0.25;
#X obj 66 113 delwrite~ delay-fx-002L 10000;
#X obj 325 77 delwrite~ delay-fx-002R 10000;
#X obj 74 205 delread~ delay-fx-002L 2750;
#X obj 306 203 delread~ delay-fx-002R 5400;
#X obj 380 158 *~ 0.65;
#X obj 191 157 *~ 0.65;
#X connect 0 0 1 0;
#X connect 0 0 2 0;
#X connect 0 0 5 0;
#X connect 0 0 6 0;
#X connect 3 0 1 0;
#X connect 3 0 2 0;
#X connect 4 0 2 0;
#X connect 4 0 1 0;
#X connect 7 0 3 0;
#X connect 7 0 10 0;
#X connect 8 0 4 0;
#X connect 8 0 9 0;
#X connect 9 0 6 0;
#X connect 10 0 5 0;
#X restore 84 694 pd delay-fx;
#X obj 52 778 clip~ -1 1;
#X obj 50 739 *~ 0.5;
#X obj 154 739 *~ 0.5;
#X obj 144 779 clip~ -1 1;
#X obj 48 814 throw~ sampler-01-L;
#X obj 182 815 throw~ sampler-01-R;
#X msg 159 155 read -resize ../samples/Tingsha0006.aif sample-01L sample-01R
;
#X obj 279 528 loadbang;
#X msg 278 554 1;
#X obj 43 649 *~ 0.5;
#X obj 203 650 *~ 0.5;
#X obj 268 58 loadbang;
#X connect 2 0 3 0;
#X connect 3 0 53 0;
#X connect 3 0 20 0;
#X connect 4 0 5 0;
#X connect 5 0 18 0;
#X connect 8 0 57 0;
#X connect 9 0 56 0;
#X connect 11 0 9 0;
#X connect 11 0 8 0;
#X connect 12 0 21 0;
#X connect 12 0 23 0;
#X connect 13 0 12 0;
#X connect 14 0 26 1;
#X connect 15 0 26 0;
#X connect 16 0 11 0;
#X connect 17 0 13 0;
#X connect 18 0 14 0;
#X connect 20 0 19 0;
#X connect 22 0 12 0;
#X connect 23 0 24 0;
#X connect 24 0 15 0;
#X connect 25 0 12 0;
#X connect 26 0 16 0;
#X connect 30 0 29 0;
#X connect 31 0 13 0;
#X connect 33 0 32 0;
#X connect 34 0 32 0;
#X connect 35 0 32 0;
#X connect 36 0 32 0;
#X connect 37 0 32 0;
#X connect 38 0 32 0;
#X connect 39 0 32 0;
#X connect 40 0 32 0;
#X connect 41 0 32 0;
#X connect 42 0 32 0;
#X connect 43 0 32 0;
#X connect 44 0 50 0;
#X connect 45 0 47 0;
#X connect 46 0 45 0;
#X connect 46 0 44 0;
#X connect 46 1 44 0;
#X connect 46 1 45 0;
#X connect 47 0 51 0;
#X connect 48 0 47 0;
#X connect 49 0 50 0;
#X connect 50 0 52 0;
#X connect 53 0 4 0;
#X connect 54 0 55 0;
#X connect 55 0 56 1;
#X connect 55 0 57 1;
#X connect 56 0 46 0;
#X connect 56 0 48 0;
#X connect 57 0 46 0;
#X connect 57 0 49 0;
#X connect 58 0 53 0;
#X restore 154 392 pd samples-01;
#X obj -113 532 catch~ sampler-01-L;
#X obj 21 533 catch~ sampler-01-R;
#X obj 706 447 bng 15 250 50 0 empty empty empty 17 7 0 10 -262144
-1 -1;
#X text 252 393 NOTE: this patch loads and plays sound samples from
the hard drive - need to check search-path settings;
#X obj 683 580 *~ 2;
#N canvas 0 22 1360 738 sine-tones-triggered-from-slowingdown-thresholds
0;
#X obj 47 36 r how-slow-32;
#X floatatom 194 28 5 0 0 0 - - -;
#X floatatom 15 157 5 0 0 0 - - -;
#X obj 63 96 * 100;
#X obj 68 188 t b b;
#X obj 189 193 t b b;
#X obj 295 195 t b b;
#X obj 417 194 t b b;
#X obj 523 196 t b b;
#X obj 645 196 t b b;
#X obj 751 198 t b b;
#X obj 855 197 t b b;
#X obj 961 199 t b b;
#X obj 1083 199 t b b;
#X obj 292 400 bng 15 250 50 0 empty empty empty 17 7 0 10 -262144
-1 -1;
#X obj 400 401 bng 15 250 50 0 empty empty empty 17 7 0 10 -262144
-1 -1;
#X obj 537 393 bng 15 250 50 0 empty empty empty 17 7 0 10 -262144
-1 -1;
#X obj 645 396 bng 15 250 50 0 empty empty empty 17 7 0 10 -262144
-1 -1;
#X obj 753 396 bng 15 250 50 0 empty empty empty 17 7 0 10 -262144
-1 -1;
#X obj 858 396 bng 15 250 50 0 empty empty empty 17 7 0 10 -262144
-1 -1;
#X obj 963 400 bng 15 250 50 0 empty empty empty 17 7 0 10 -262144
-1 -1;
#X obj 1082 396 bng 15 250 50 0 empty empty empty 17 7 0 10 -262144
-1 -1;
#X obj 166 83 float;
#X obj 204 326 delay 10000;
#X obj 310 325 delay 10000;
#X obj 433 325 delay 10000;
#X obj 539 324 delay 10000;
#X obj 666 326 delay 10000;
#X obj 772 325 delay 10000;
#X obj 870 325 delay 10000;
#X obj 981 327 delay 10000;
#X obj 1098 330 delay 10000;
#X obj 68 160 gk.split 0 9;
#X obj 190 155 gk.split 10 19;
#X obj 294 156 gk.split 20 29;
#X obj 418 156 gk.split 30 39;
#X obj 522 157 gk.split 40 49;
#X obj 646 158 gk.split 50 59;
#X obj 750 159 gk.split 60 69;
#X obj 856 159 gk.split 70 79;
#X obj 960 160 gk.split 80 89;
#X obj 1084 161 gk.split 90 100;
#X obj 188 282 gk.onebang 1000;
#X obj 294 284 gk.onebang 1000;
#X obj 416 283 gk.onebang 1000;
#X obj 522 285 gk.onebang 1000;
#X obj 644 285 gk.onebang 1000;
#X obj 750 287 gk.onebang 1000;
#X obj 854 286 gk.onebang 1000;
#X obj 960 288 gk.onebang 1000;
#X obj 1082 288 gk.onebang 1000;
#X obj 238 590 gk.sines 1661.21 sines-how-slow-32~ 0.125;
#X obj 399 809 gk.sines 1864.66 sines-how-slow-32~ 0.125;
#X obj 531 770 gk.sines 1661.21 sines-how-slow-32~ 0.125;
#X obj 640 708 gk.sines 1567.98 sines-how-slow-32~ 0.125;
#X obj 750 656 gk.sines 1396.91 sines-how-slow-32~ 0.125;
#X obj 856 600 gk.sines 1244.5 sines-how-slow-32~ 0.125;
#X obj 959 550 gk.sines 1174.65 sines-how-slow-32~ 0.125;
#X obj 1080 500 gk.sines 1046.5 sines-how-slow-32~ 0.125;
#X connect 0 0 3 0;
#X connect 1 0 22 0;
#X connect 3 0 2 0;
#X connect 3 0 1 0;
#X connect 4 1 42 1;
#X connect 5 0 42 0;
#X connect 5 1 43 1;
#X connect 6 0 43 0;
#X connect 6 1 44 1;
#X connect 7 0 44 0;
#X connect 7 1 45 1;
#X connect 8 0 45 0;
#X connect 8 1 46 1;
#X connect 9 0 46 0;
#X connect 9 1 47 1;
#X connect 10 0 47 0;
#X connect 10 1 48 1;
#X connect 11 0 48 0;
#X connect 11 1 49 1;
#X connect 12 0 49 0;
#X connect 12 1 50 1;
#X connect 13 0 50 0;
#X connect 14 0 51 0;
#X connect 15 0 52 0;
#X connect 16 0 53 0;
#X connect 17 0 54 0;
#X connect 18 0 55 0;
#X connect 19 0 56 0;
#X connect 20 0 57 0;
#X connect 21 0 58 0;
#X connect 22 0 32 0;
#X connect 22 0 33 0;
#X connect 22 0 34 0;
#X connect 22 0 35 0;
#X connect 22 0 36 0;
#X connect 22 0 37 0;
#X connect 22 0 38 0;
#X connect 22 0 39 0;
#X connect 22 0 40 0;
#X connect 22 0 41 0;
#X connect 23 0 42 1;
#X connect 24 0 43 1;
#X connect 24 0 14 0;
#X connect 25 0 44 1;
#X connect 25 0 15 0;
#X connect 26 0 45 1;
#X connect 26 0 16 0;
#X connect 27 0 46 1;
#X connect 27 0 17 0;
#X connect 28 0 47 1;
#X connect 28 0 18 0;
#X connect 29 0 48 1;
#X connect 29 0 19 0;
#X connect 30 0 49 1;
#X connect 30 0 20 0;
#X connect 31 0 50 1;
#X connect 31 0 21 0;
#X connect 32 0 4 0;
#X connect 33 0 5 0;
#X connect 34 0 6 0;
#X connect 35 0 7 0;
#X connect 36 0 8 0;
#X connect 37 0 9 0;
#X connect 38 0 10 0;
#X connect 39 0 11 0;
#X connect 40 0 12 0;
#X connect 41 0 13 0;
#X connect 42 0 23 0;
#X connect 43 0 24 0;
#X connect 44 0 25 0;
#X connect 45 0 26 0;
#X connect 46 0 27 0;
#X connect 47 0 28 0;
#X connect 48 0 29 0;
#X connect 49 0 30 0;
#X connect 50 0 31 0;
#X restore 149 335 pd sine-tones-triggered-from-slowingdown-thresholds
;
#N canvas 0 22 1360 738 samples-triggered-from-slowingdown-thresholds
0;
#X obj 47 36 r how-slow-32;
#X floatatom 194 28 5 0 0 0 - - -;
#X floatatom 15 157 5 0 0 0 - - -;
#X obj 63 96 * 100;
#X obj 68 188 t b b;
#X obj 189 193 t b b;
#X obj 295 195 t b b;
#X obj 417 194 t b b;
#X obj 523 196 t b b;
#X obj 645 196 t b b;
#X obj 751 198 t b b;
#X obj 855 197 t b b;
#X obj 961 199 t b b;
#X obj 1083 199 t b b;
#X obj 292 400 bng 15 250 50 0 empty empty empty 17 7 0 10 -262144
-1 -1;
#X obj 400 401 bng 15 250 50 0 empty empty empty 17 7 0 10 -262144
-1 -1;
#X obj 537 393 bng 15 250 50 0 empty empty empty 17 7 0 10 -262144
-1 -1;
#X obj 645 396 bng 15 250 50 0 empty empty empty 17 7 0 10 -262144
-1 -1;
#X obj 753 396 bng 15 250 50 0 empty empty empty 17 7 0 10 -262144
-1 -1;
#X obj 858 396 bng 15 250 50 0 empty empty empty 17 7 0 10 -262144
-1 -1;
#X obj 963 400 bng 15 250 50 0 empty empty empty 17 7 0 10 -262144
-1 -1;
#X obj 1082 396 bng 15 250 50 0 empty empty empty 17 7 0 10 -262144
-1 -1;
#X obj 166 83 float;
#X obj 204 326 delay 10000;
#X obj 310 325 delay 10000;
#X obj 433 325 delay 10000;
#X obj 539 324 delay 10000;
#X obj 666 326 delay 10000;
#X obj 772 325 delay 10000;
#X obj 870 325 delay 10000;
#X obj 981 327 delay 10000;
#X obj 1098 330 delay 10000;
#X obj 68 160 gk.split 0 9;
#X obj 190 155 gk.split 10 19;
#X obj 294 156 gk.split 20 29;
#X obj 418 156 gk.split 30 39;
#X obj 522 157 gk.split 40 49;
#X obj 646 158 gk.split 50 59;
#X obj 750 159 gk.split 60 69;
#X obj 856 159 gk.split 70 79;
#X obj 960 160 gk.split 80 89;
#X obj 1084 161 gk.split 90 100;
#X obj 188 282 gk.onebang 1000;
#X obj 294 284 gk.onebang 1000;
#X obj 416 283 gk.onebang 1000;
#X obj 522 285 gk.onebang 1000;
#X obj 644 285 gk.onebang 1000;
#X obj 750 287 gk.onebang 1000;
#X obj 854 286 gk.onebang 1000;
#X obj 960 288 gk.onebang 1000;
#X obj 1082 288 gk.onebang 1000;
#X obj 553 571 s note;
#X msg 1027 459 64;
#X msg 819 470 69;
#X msg 691 502 79;
#X msg 582 500 86;
#X msg 495 488 88;
#X msg 419 482 91;
#X msg 902 473 66;
#X obj 194 55 + 5;
#X msg 354 505 96;
#X msg 299 508 98;
#X connect 0 0 3 0;
#X connect 1 0 59 0;
#X connect 3 0 2 0;
#X connect 3 0 1 0;
#X connect 4 1 42 1;
#X connect 5 0 42 0;
#X connect 5 1 43 1;
#X connect 6 0 43 0;
#X connect 6 1 44 1;
#X connect 7 0 44 0;
#X connect 7 1 45 1;
#X connect 8 0 45 0;
#X connect 8 1 46 1;
#X connect 9 0 46 0;
#X connect 9 1 47 1;
#X connect 10 0 47 0;
#X connect 10 1 48 1;
#X connect 11 0 48 0;
#X connect 11 1 49 1;
#X connect 12 0 49 0;
#X connect 12 1 50 1;
#X connect 13 0 50 0;
#X connect 14 0 60 0;
#X connect 15 0 57 0;
#X connect 16 0 56 0;
#X connect 17 0 55 0;
#X connect 18 0 54 0;
#X connect 19 0 53 0;
#X connect 20 0 58 0;
#X connect 21 0 52 0;
#X connect 22 0 32 0;
#X connect 22 0 33 0;
#X connect 22 0 34 0;
#X connect 22 0 35 0;
#X connect 22 0 36 0;
#X connect 22 0 37 0;
#X connect 22 0 38 0;
#X connect 22 0 39 0;
#X connect 22 0 40 0;
#X connect 22 0 41 0;
#X connect 23 0 42 1;
#X connect 23 0 61 0;
#X connect 24 0 43 1;
#X connect 24 0 14 0;
#X connect 25 0 44 1;
#X connect 25 0 15 0;
#X connect 26 0 45 1;
#X connect 26 0 16 0;
#X connect 27 0 46 1;
#X connect 27 0 17 0;
#X connect 28 0 47 1;
#X connect 28 0 18 0;
#X connect 29 0 48 1;
#X connect 29 0 19 0;
#X connect 30 0 49 1;
#X connect 30 0 20 0;
#X connect 31 0 50 1;
#X connect 31 0 21 0;
#X connect 32 0 4 0;
#X connect 33 0 5 0;
#X connect 34 0 6 0;
#X connect 35 0 7 0;
#X connect 36 0 8 0;
#X connect 37 0 9 0;
#X connect 38 0 10 0;
#X connect 39 0 11 0;
#X connect 40 0 12 0;
#X connect 41 0 13 0;
#X connect 42 0 23 0;
#X connect 43 0 24 0;
#X connect 44 0 25 0;
#X connect 45 0 26 0;
#X connect 46 0 27 0;
#X connect 47 0 28 0;
#X connect 48 0 29 0;
#X connect 49 0 30 0;
#X connect 50 0 31 0;
#X connect 52 0 51 0;
#X connect 53 0 51 0;
#X connect 54 0 51 0;
#X connect 55 0 51 0;
#X connect 56 0 51 0;
#X connect 57 0 51 0;
#X connect 58 0 51 0;
#X connect 59 0 22 0;
#X connect 60 0 51 0;
#X connect 61 0 51 0;
#X restore 156 360 pd samples-triggered-from-slowingdown-thresholds
;
#N canvas 231 159 1220 758 3-beeps 0;
#X obj -100 11 inlet;
#X obj -37 398 vline~;
#X obj -1 448 *~;
#X obj -123 13 bng 15 250 50 0 empty empty empty 17 7 0 10 -262144
-1 -1;
#X msg -37 355 1 5 0 \, 0 5 75;
#X obj 92 358 osc~ 880;
#X obj -115 473 throw~ test-beeps;
#X obj -100 46 t b b b -----------------------------;
#X obj 166 258 t b b;
#X obj 50 253 t b b;
#X obj -89 256 t b b;
#X floatatom 93 335 5 0 0 0 - - -;
#X obj 137 285 delay 5;
#X obj 19 287 delay 5;
#X obj -124 286 delay 5;
#X obj -76 190 delay 400;
#X obj 29 187 delay 200;
#X msg -63 284 2640;
#X msg 190 286 2640;
#X msg 76 281 5280;
#X connect 0 0 7 0;
#X connect 1 0 2 1;
#X connect 2 0 6 0;
#X connect 3 0 7 0;
#X connect 4 0 1 0;
#X connect 5 0 2 0;
#X connect 7 0 15 0;
#X connect 7 1 16 0;
#X connect 7 2 8 0;
#X connect 8 0 12 0;
#X connect 8 1 18 0;
#X connect 9 0 13 0;
#X connect 9 1 19 0;
#X connect 10 0 14 0;
#X connect 10 1 17 0;
#X connect 11 0 5 0;
#X connect 12 0 4 0;
#X connect 13 0 4 0;
#X connect 14 0 4 0;
#X connect 15 0 10 0;
#X connect 16 0 9 0;
#X connect 17 0 11 0;
#X connect 18 0 11 0;
#X connect 19 0 11 0;
#X restore 754 -861 pd 3-beeps;
#X obj 735 -911 select 1;
#N canvas 231 159 1220 758 3-beeps 0;
#X obj -100 11 inlet;
#X obj -37 398 vline~;
#X obj -1 448 *~;
#X obj -123 13 bng 15 250 50 0 empty empty empty 17 7 0 10 -262144
-1 -1;
#X msg -37 355 1 5 0 \, 0 5 75;
#X obj 92 358 osc~ 880;
#X obj -115 473 throw~ test-beeps;
#X obj -100 46 t b b b -----------------------------;
#X obj 166 258 t b b;
#X obj 50 253 t b b;
#X obj -89 256 t b b;
#X floatatom 93 335 5 0 0 0 - - -;
#X obj 137 285 delay 5;
#X obj 19 287 delay 5;
#X obj -124 286 delay 5;
#X obj -76 190 delay 400;
#X obj 29 187 delay 200;
#X msg 190 286 5280;
#X msg 76 281 2640;
#X msg -63 284 1320;
#X connect 0 0 7 0;
#X connect 1 0 2 1;
#X connect 2 0 6 0;
#X connect 3 0 7 0;
#X connect 4 0 1 0;
#X connect 5 0 2 0;
#X connect 7 0 15 0;
#X connect 7 1 16 0;
#X connect 7 2 8 0;
#X connect 8 0 12 0;
#X connect 8 1 17 0;
#X connect 9 0 13 0;
#X connect 9 1 18 0;
#X connect 10 0 14 0;
#X connect 10 1 19 0;
#X connect 11 0 5 0;
#X connect 12 0 4 0;
#X connect 13 0 4 0;
#X connect 14 0 4 0;
#X connect 15 0 10 0;
#X connect 16 0 9 0;
#X connect 17 0 11 0;
#X connect 18 0 11 0;
#X connect 19 0 11 0;
#X restore 837 -861 pd 3-beeps;
#X obj 816 -911 select 0;
#X obj 852 -885 bng 15 250 50 0 empty empty empty 17 7 0 10 -262144
-1 -1;
#X obj 766 -888 bng 15 250 50 0 empty empty empty 17 7 0 10 -262144
-1 -1;
#X obj 803 -944 change;
#N canvas 231 159 1220 758 3-beeps 0;
#X obj -100 11 inlet;
#X obj -36 343 vline~;
#X obj 1 396 *~;
#X obj -123 13 bng 15 250 50 0 empty empty empty 17 7 0 10 -262144
-1 -1;
#X msg -36 314 1 5 0 \, 0 5 75;
#X obj 92 358 osc~ 880;
#X obj -115 473 throw~ test-beeps;
#X obj -100 46 t b b b -----------------------------;
#X obj 166 258 t b b;
#X floatatom 93 335 5 0 0 0 - - -;
#X obj 137 285 delay 5;
#X obj -33 427 *~ 0.15;
#X msg 190 286 10560;
#X connect 0 0 7 0;
#X connect 1 0 2 1;
#X connect 2 0 11 0;
#X connect 3 0 7 0;
#X connect 4 0 1 0;
#X connect 5 0 2 0;
#X connect 7 2 8 0;
#X connect 8 0 10 0;
#X connect 8 1 12 0;
#X connect 9 0 5 0;
#X connect 10 0 4 0;
#X connect 11 0 6 0;
#X connect 12 0 9 0;
#X restore 905 531 pd 3-beeps;
#X obj 905 507 bng 15 250 50 0 empty empty empty 17 7 0 10 -262144
-1 -1;
#X obj 950 -926 onebang;
#N canvas 789 22 1065 738 send-messages-to-oF-graphics 1;
#X floatatom 92 42 8 0 1 1 Arg_1_[backgroundGradientOut.r]_outer_gradient_colour_-_red_(float_0-1)
- -;
#X floatatom 135 123 8 0 1 1 Arg_2_[backgroundGradientOut.g]__outer_gradient_colour_-_green_(float_0-1)
- -;
#X floatatom 153 208 8 0 1 1 Arg_3_[backgroundGradientOut.b]_outer_gradient_colour_-_blue_(float_0-1)
- -;
#X floatatom 191 347 8 0 1 1 Arg_5_[backgroundGradientIn.r]_inner_gradient_colour_-_red_(float_0-1)
- -;
#X floatatom 222 411 7 0 1000 1 Arg_6_[backgroundGradientIn.r]_inner_gradient_colour_green_(float_0-1)
- -;
#X obj 54 509 t b;
#X floatatom 670 596 8 0 1 1 Arg_8_[backgroundGradientIn.a]_inner_gradient_colour_alpha_(float_0-1)
- -;
#X floatatom 402 707 8 0 3 1 Arg_9_render_mode_(float_0-3)_[renderMode]
- -;
#X msg 91 809 /gfx/World/Graphics \$1 \$2 \$3 \$4 \$5 \$6 \$7 \$8 \$9
;
#X floatatom 178 284 8 0 0 1 Arg_4_[backgroundGradientOut.a]_outer_gradient_colour_alpha_(float_0-1)
- -;
#X obj 418 820 int;
#X floatatom 261 484 8 0 1 1 Arg_7_[backgroundGradientIn.b]_inner_gradient_colour_-_blue_(float_0-1)
- -;
#X obj 1256 891 receive packOSC;
#X obj 91 841 send packOSC;
#X obj 104 -73 loadbang;
#X obj 106 -27 t b b b b b b b b b b ----------------------------------
;
#X obj 134 100 f 0;
#X obj 152 183 f 0.24;
#X obj 178 261 f 0.94;
#X obj 190 323 f 0;
#X obj 222 389 f 0.85;
#X obj 91 18 f 0;
#X obj 262 457 f 0.77;
#X obj 403 730 t b f;
#X obj 412 773 delay 250;
#X obj 680 779 f 0;
#X obj 104 713 pack 0 0 0 1 0 0 0 1 1-----------;
#X obj 174 -66 bng 15 250 50 0 empty empty empty 17 7 0 10 -262144
-1 -1;
#X obj 342 576 line;
#X obj 706 528 line;
#X text 872 457 ramp up.;
#X text 907 382 ramp down.;
#X msg 770 471 1 5000;
#X msg 803 547 0 5000;
#X obj 778 239 line;
#X obj 820 262 select 1 0;
#X msg 842 182 1 5000;
#X msg 851 205 0 5000;
#X obj 765 -5 r session-start;
#X floatatom 672 149 8 0 1 1 Arg_8_[backgroundGradientIn.a]_inner_gradient_colour_alpha_(float_0-1)
- -;
#X obj 716 100 line;
#X obj 884 513 delay 5000;
#X obj 826 503 t b;
#X obj 806 76 t b;
#X msg 777 35 1 200;
#X obj 890 68 delay 200;
#X obj 934 16 bng 15 250 50 0 empty empty empty 17 7 0 10 -262144 -1
-1;
#X msg 679 40 0 200;
#X obj 945 -26 r TEST-heart-ibi;
#X connect 0 0 26 0;
#X connect 1 0 5 0;
#X connect 1 0 26 1;
#X connect 2 0 5 0;
#X connect 2 0 26 2;
#X connect 3 0 5 0;
#X connect 3 0 26 4;
#X connect 4 0 5 0;
#X connect 4 0 26 5;
#X connect 5 0 26 0;
#X connect 6 0 5 0;
#X connect 6 0 26 7;
#X connect 7 0 5 0;
#X connect 7 0 23 0;
#X connect 8 0 13 0;
#X connect 9 0 5 0;
#X connect 9 0 26 3;
#X connect 11 0 5 0;
#X connect 11 0 26 6;
#X connect 14 0 15 0;
#X connect 15 0 21 0;
#X connect 15 1 16 0;
#X connect 15 2 17 0;
#X connect 15 3 18 0;
#X connect 15 4 19 0;
#X connect 15 5 20 0;
#X connect 15 6 22 0;
#X connect 16 0 1 0;
#X connect 17 0 2 0;
#X connect 18 0 9 0;
#X connect 19 0 3 0;
#X connect 20 0 4 0;
#X connect 21 0 0 0;
#X connect 22 0 11 0;
#X connect 23 0 24 0;
#X connect 23 1 10 0;
#X connect 24 0 10 0;
#X connect 26 0 8 0;
#X connect 27 0 15 0;
#X connect 29 0 6 0;
#X connect 32 0 29 0;
#X connect 32 0 42 0;
#X connect 33 0 29 0;
#X connect 35 0 37 0;
#X connect 35 1 36 0;
#X connect 36 0 34 0;
#X connect 37 0 34 0;
#X connect 38 0 32 0;
#X connect 38 0 44 0;
#X connect 39 0 9 0;
#X connect 40 0 39 0;
#X connect 41 0 33 0;
#X connect 42 0 41 0;
#X connect 43 0 45 0;
#X connect 44 0 40 0;
#X connect 44 0 43 0;
#X connect 45 0 47 0;
#X connect 46 0 44 0;
#X connect 47 0 40 0;
#X connect 48 0 44 0;
#X restore 809 132 pd send-messages-to-oF-graphics;
#X obj 962 357 udpsend;
#X obj 808 266 packOSC;
#X msg 724 265 disconnect;
#X obj 941 204 loadbang;
#X obj 807 240 receive packOSC;
#X obj 844 170;
#X msg 1096 225 connect 192.168.1.128 58008;
#X obj 755 373 r TEST-heart-ibi;
#X obj 320 -904 s TEST-heart-ibi;
#X obj 749 -622 f 5000;
#X obj 598 -612 f 0;
#X floatatom 500 -625 5 0 0 0 - - -;
#X obj 842 -655 bng 15 250 50 0 empty empty empty 17 7 0 10 -262144
-1 -1;
#X floatatom 1129 -588 5 0 0 0 - - -;
#X obj 1004 -616 gk.trough;
#X msg 996 -702;
#X obj 1035 -682;
#X floatatom 1001 -661 5 0 0 0 - - -;
#X msg 941 227 connect 127.0.0.1 58008;
#X connect 0 0 31 0;
#X connect 1 0 2 1;
#X connect 1 1 2 0;
#X connect 2 0 3 0;
#X connect 3 0 17 0;
#X connect 3 0 16 0;
#X connect 5 0 14 0;
#X connect 5 0 163 0;
#X connect 6 0 12 0;
#X connect 6 0 166 0;
#X connect 7 0 13 0;
#X connect 7 0 147 0;
#X connect 7 0 166 1;
#X connect 8 0 10 0;
#X connect 8 0 15 0;
#X connect 8 0 1 0;
#X connect 8 0 37 0;
#X connect 8 0 176 0;
#X connect 12 0 9 0;
#X connect 13 0 9 0;
#X connect 17 0 18 0;
#X connect 17 0 108 0;
#X connect 19 0 177 0;
#X connect 19 0 178 0;
#X connect 20 0 32 0;
#X connect 21 0 108 1;
#X connect 25 0 97 0;
#X connect 26 0 93 0;
#X connect 26 0 97 2;
#X connect 27 0 92 0;
#X connect 27 0 97 1;
#X connect 28 0 21 0;
#X connect 30 0 25 0;
#X connect 31 0 33 0;
#X connect 31 0 99 0;
#X connect 32 0 35 0;
#X connect 32 0 100 0;
#X connect 33 0 109 0;
#X connect 35 0 110 0;
#X connect 37 0 46 0;
#X connect 37 0 105 0;
#X connect 37 0 132 0;
#X connect 37 0 133 0;
#X connect 42 0 109 1;
#X connect 43 0 109 0;
#X connect 44 0 126 1;
#X connect 45 0 127 0;
#X connect 46 0 47 0;
#X connect 47 0 50 0;
#X connect 48 0 82 1;
#X connect 49 0 111 1;
#X connect 56 0 62 0;
#X connect 56 0 64 0;
#X connect 57 0 65 0;
#X connect 57 0 63 0;
#X connect 58 0 59 0;
#X connect 59 0 60 1;
#X connect 59 1 60 0;
#X connect 60 0 61 0;
#X connect 60 0 118 0;
#X connect 66 0 55 0;
#X connect 66 1 56 0;
#X connect 66 2 57 1;
#X connect 67 0 56 1;
#X connect 67 1 54 0;
#X connect 67 2 57 0;
#X connect 70 0 117 0;
#X connect 71 0 72 0;
#X connect 71 0 78 0;
#X connect 72 0 73 0;
#X connect 72 0 79 0;
#X connect 73 0 77 0;
#X connect 73 0 86 0;
#X connect 73 0 85 0;
#X connect 74 0 49 0;
#X connect 74 0 76 0;
#X connect 75 0 82 2;
#X connect 76 0 112 1;
#X connect 77 0 82 0;
#X connect 77 1 111 0;
#X connect 77 2 112 0;
#X connect 82 0 81 0;
#X connect 82 0 121 0;
#X connect 86 0 83 0;
#X connect 86 0 88 0;
#X connect 86 0 123 0;
#X connect 86 1 84 0;
#X connect 86 1 89 0;
#X connect 86 1 122 0;
#X connect 94 0 98 0;
#X connect 95 0 131 0;
#X connect 97 0 120 0;
#X connect 98 0 99 0;
#X connect 98 1 100 0;
#X connect 99 0 24 0;
#X connect 100 0 23 0;
#X connect 102 0 91 0;
#X connect 105 0 107 0;
#X connect 105 0 130 0;
#X connect 105 0 179 0;
#X connect 106 0 20 0;
#X connect 107 0 0 0;
#X connect 108 0 22 0;
#X connect 109 0 34 0;
#X connect 109 0 40 0;
#X connect 110 0 41 0;
#X connect 110 0 36 0;
#X connect 111 0 114 0;
#X connect 112 0 113 0;
#X connect 113 0 75 0;
#X connect 114 0 48 0;
#X connect 116 0 133 0;
#X connect 117 0 69 0;
#X connect 117 1 68 0;
#X connect 118 0 52 0;
#X connect 118 0 66 0;
#X connect 118 1 53 0;
#X connect 118 1 67 0;
#X connect 120 0 102 0;
#X connect 120 0 124 0;
#X connect 121 0 80 0;
#X connect 122 0 90 0;
#X connect 123 0 87 0;
#X connect 125 0 120 0;
#X connect 126 0 71 1;
#X connect 127 0 72 1;
#X connect 127 1 71 0;
#X connect 127 2 126 0;
#X connect 128 0 137 0;
#X connect 129 0 136 0;
#X connect 129 0 137 0;
#X connect 130 0 101 0;
#X connect 130 0 29 0;
#X connect 131 0 96 0;
#X connect 132 0 38 0;
#X connect 133 0 39 0;
#X connect 133 0 115 0;
#X connect 134 0 139 0;
#X connect 135 0 129 0;
#X connect 135 0 128 0;
#X connect 135 1 128 0;
#X connect 135 1 129 0;
#X connect 136 0 104 0;
#X connect 137 0 104 1;
#X connect 138 0 104 1;
#X connect 139 0 154 0;
#X connect 141 0 136 0;
#X connect 142 0 137 0;
#X connect 144 0 143 0;
#X connect 145 0 135 0;
#X connect 145 0 141 0;
#X connect 145 0 142 0;
#X connect 146 0 137 0;
#X connect 146 0 136 0;
#X connect 148 0 147 0;
#X connect 150 0 136 0;
#X connect 151 0 137 0;
#X connect 152 0 134 0;
#X connect 154 0 104 0;
#X connect 154 0 104 1;
#X connect 158 0 157 0;
#X connect 160 0 159 0;
#X connect 161 0 159 0;
#X connect 162 0 157 0;
#X connect 163 0 158 0;
#X connect 163 0 160 0;
#X connect 165 0 164 0;
#X connect 166 0 143 0;
#X connect 169 0 168 0;
#X connect 170 0 168 0;
#X connect 171 0 186 0;
#X connect 172 0 169 0;
#X connect 175 0 134 0;
#X connect 175 0 165 0;
#X connect 177 0 106 0;
#X connect 178 0 107 1;
#X connect 179 0 106 0;
#X connect 180 0 177 0;
#X connect 182 0 181 0;
#X connect 185 0 182 0;
#X connect 186 0 168 0;
