#N canvas 0 22 1440 795 10;
#X floatatom 520 -559 5 0 0 0 - - -;
#X obj 536 -910 t f f;
#X obj 538 -883 -;
#X floatatom 538 -830 5 0 0 0 - - -;
#X text 641 -975 raw pulse;
#X obj 797 -973 r sensor-reliability;
#X obj 952 -973 r session-start;
#X obj 1078 -973 r session-end;
#X obj 536 -974 r heart-ibi;
#X obj 457 -907 bng 15 250 50 0 empty empty empty 17 7 0 10 -262144
-1 -1;
#X obj 692 -917 tgl 15 0 empty empty empty 17 7 0 10 -262144 -1 -1
0 1;
#X floatatom 485 -909 5 0 0 0 - - -;
#X obj 511 -735 s ibi-difference;
#X obj 646 -801 abs;
#X obj 647 -735 s ibi-difference-abs;
#X obj 707 -661 r session-start;
#X floatatom 848 -565 5 0 0 0 - - -;
#X msg 859 -796 0;
#X floatatom 813 -735 5 0 0 0 - - -;
#X obj 866 -414 send ibi-session-shortest;
#X obj 529 -414 send ibi-session-longest;
#X floatatom 824 -235 5 0 0 0 - - -;
#X obj 916 -251 r ibi-session-longest;
#X obj 864 -274 r ibi-session-shortest;
#X obj 859 -822 r session-start;
#X obj 392 -414 send ibi-mean-32;
#X obj 824 -340 receive ibi-mean-32;
#X obj 528 -527 change;
#X obj 866 -515 change;
#X obj 710 -500 t b;
#X obj 710 -414 send ibi-new-longest;
#X obj 1068 -492 t b;
#X obj 1066 -413 send ibi-new-shortest;
#X obj 381 -726 gk.skeptic 70;
#X obj 266 -414 send ibi-mean-16;
#X obj 157 -413 send ibi-mean-4;
#X obj 722 -437 bng 15 250 50 0 empty empty empty 17 7 0 10 -262144
-1 -1;
#X obj 1111 -441 bng 15 250 50 0 empty empty empty 17 7 0 10 -262144
-1 -1;
#X obj 765 -498 bng 15 250 50 0 empty empty empty 17 7 0 10 -262144
-1 -1;
#X obj 672 -496 bng 15 250 50 0 empty empty empty 17 7 0 10 -262144
-1 -1;
#X obj 164 -297 receive ibi-mean-32;
#X obj 15 -365 receive ibi-mean-4;
#X obj 14 -493 expr 60000/$f1;
#X floatatom 14 -466 5 0 0 0 - - -;
#X floatatom 476 -41 10 0 0 0 - - -;
#X msg 536 -127 50000;
#X obj 15 -413 send ibi-as-bpm;
#X obj 1110 -130 bng 15 250 50 0 empty empty empty 17 7 0 10 -262144
-1 -1;
#X obj 1212 -127 bng 15 250 50 0 empty empty empty 17 7 0 10 -262144
-1 -1;
#X obj 1240 56 s hr-bang-going-down;
#X obj 974 57 s hr-bang-going-up;
#X obj 1116 -35 timer;
#X obj 1388 -37 timer;
#X obj 1108 -276 r ibi-mean-4;
#X obj 1108 -246 t f f;
#X obj 1110 -219 -;
#X floatatom 1175 -178 5 0 0 0 - - -;
#X floatatom 1138 8 10 0 0 0 - - -;
#X obj 1388 56 s rsa-ms-downward;
#X obj 1116 57 s rsa-ms-upward;
#X floatatom 1408 4 10 0 0 0 - - -;
#X obj 1093 -102 t b b b;
#X obj 1217 -104 t b b b;
#X floatatom 1084 615 5 0 0 0 - - -;
#X floatatom 997 613 5 0 0 0 - - -;
#X obj 996 542 r rsa-ms-upward;
#X obj 15 -284 - 0;
#X obj 15 -229 / 1;
#X obj 15 -193 * 1000;
#X obj 621 -194 r session-start;
#X floatatom 598 -39 10 0 0 0 - - -;
#X msg 619 -126 -5000;
#X obj 445 -126 t f f f;
#X floatatom 65 -256 10 0 0 0 - - -;
#X floatatom 63 -207 10 0 0 0 - - -;
#X obj 607 56 send ibi-dev-4-32-nml-smooth;
#X obj 445 57 send ibi-dev-4-32-nml;
#X obj 445 -13 gk.scale -100 100 0 1;
#X floatatom 82 -54 10 0 0 0 - - -;
#X floatatom 329 -59 10 0 0 0 - - -;
#X floatatom 39 -155 5 0 0 0 - - -;
#N canvas 744 131 744 831 splits 0;
#X obj -130 -46 select 0;
#X msg 17 134 0.0001;
#X obj -130 -83 inlet;
#X obj -119 16 t b;
#X obj -164 202 r session-start;
#X msg 74 267 -5000;
#X text -154 274 reset Trough and Peak;
#X text 156 288 only let IBI related values though - not +/- 5000;
#X floatatom 53 358 10 0 0 0 - - -;
#X floatatom -264 360 10 0 0 0 - - -;
#X floatatom -286 449 10 0 0 0 - - -;
#X obj -266 225 t f f;
#X floatatom 9 443 10 0 0 0 - - -;
#X obj -13 213 t f f;
#X obj -264 198 abs;
#X msg -232 273 -1000;
#X msg -119 138 0.0001;
#X floatatom -63 -47 5 0 0 0 - - -;
#X obj -13 402 gk.scale 0.0001 100 0 1;
#X obj -329 404 gk.scale 0.0001 100 0 1;
#X floatatom -350 110 5 0 0 0 - - -;
#X obj -238 52 t b;
#X obj 1 54 t b;
#X obj -327 497 outlet;
#X obj -13 484 outlet;
#X obj -13 166 float;
#X floatatom 54 206 10 0 0 0 - - -;
#X obj -264 163 float;
#X floatatom -338 197 10 0 0 0 - - -;
#X floatatom -343 262 10 0 0 0 - - -;
#X text -15 -48 avoid divission by zero send 0.0001 instead;
#X obj -13 19 gk.split 0.0001 1000;
#X obj 16 109 gk.onebang;
#X obj -242 113 gk.onebang;
#X obj 53 331 gk.split 0.0001 200;
#X obj -265 329 gk.split 0.0001 200;
#X obj -265 303 gk.peak;
#X obj 53 300 gk.peak;
#X floatatom -278 -26 5 0 0 0 - - -;
#X obj -289 16 gk.split -1000 -0.0001;
#X connect 0 0 3 0;
#X connect 0 1 31 0;
#X connect 0 1 38 0;
#X connect 0 1 39 0;
#X connect 1 0 25 0;
#X connect 2 0 0 0;
#X connect 2 0 17 0;
#X connect 3 0 16 0;
#X connect 4 0 15 0;
#X connect 4 0 5 0;
#X connect 5 0 37 1;
#X connect 8 0 18 2;
#X connect 9 0 19 2;
#X connect 11 0 19 0;
#X connect 11 0 29 0;
#X connect 11 1 36 0;
#X connect 13 0 18 0;
#X connect 13 1 37 0;
#X connect 14 0 11 0;
#X connect 15 0 36 1;
#X connect 16 0 27 0;
#X connect 18 0 12 0;
#X connect 18 0 24 0;
#X connect 19 0 10 0;
#X connect 19 0 23 0;
#X connect 21 0 32 0;
#X connect 21 0 33 1;
#X connect 22 0 32 1;
#X connect 22 0 33 0;
#X connect 25 0 13 0;
#X connect 25 0 26 0;
#X connect 27 0 14 0;
#X connect 27 0 28 0;
#X connect 31 0 22 0;
#X connect 31 0 25 0;
#X connect 32 0 1 0;
#X connect 33 0 16 0;
#X connect 34 0 8 0;
#X connect 35 0 9 0;
#X connect 36 0 35 0;
#X connect 37 0 34 0;
#X connect 39 0 20 0;
#X connect 39 0 21 0;
#X connect 39 0 27 0;
#X restore 15 -125 pd splits -----------------------------;
#X obj 110 54 s rsa-down-smooth;
#X obj 15 54 s rsa-down;
#X obj 244 54 s rsa-up;
#X obj 309 54 s rsa-up-smooth;
#X obj 823 56 send how-slow-32;
#X floatatom 871 -235 5 0 0 0 - - -;
#X floatatom 931 -230 5 0 0 0 - - -;
#X obj 584 -684 r heart-ibi;
#X obj -110 -6 r ibi-as-bpm;
#X obj -110 56 send bpm-mean-32;
#X obj 823 -201 gk.scale 500 800 0.001 1;
#X obj 584 -653 t b b;
#X obj 529 -480 float;
#X obj 866 -470 float;
#X floatatom 427 -509 5 0 0 0 - - -;
#X obj 823 19 clip 0 1;
#X text 417 -288 need to test session-start messages - are they really
reseting things?;
#X obj 525 560 dac~ 1 2;
#X obj 433 -687 gk.split 100 1200;
#X obj 724 -579 gk.trough;
#X obj 483 -591 gk.peak;
#X obj 813 -770 gk.peak;
#X obj 710 -461 gk.onebang 3000;
#X obj 1066 -465 gk.onebang 3000;
#X obj 476 -93 gk.trough;
#X obj 598 -91 gk.peak;
#X floatatom 162 -363 5 0 0 0 - - -;
#X floatatom 154 -535 5 0 0 0 - - -;
#X obj 996 584 gk.split 3000 10000;
#X obj 1110 -161 gk.edge;
#X obj 155 -202 v;
#X floatatom 772 15 5 0 0 0 - - -;
#X obj 51 -314 float;
#X obj 3 -342 t f f b;
#X obj 392 -567 gk.mean 32;
#X obj -110 25 gk.mean 32;
#X obj 266 -452 gk.mean 16;
#X obj 141 -452 gk.mean 4;
#X obj 139 292 t b;
#X obj 436 512 clip~ -1 1;
#X obj 577 515 clip~ -1 1;
#X obj 708 467 catch~ pulse~;
#N canvas 51 135 980 672 pulse-sound 0;
#X obj 452 107 inlet;
#X obj 76 113 noise~;
#X obj 78 374 *~;
#X obj 452 217 vline~;
#X obj 452 152 t b;
#X obj 420 153 bng 15 250 50 0 empty empty empty 17 7 0 10 -262144
-1 -1;
#X obj 77 320 svf~ 50 0.5;
#X obj 285 108 r ibi-dev-4-32-nml-smooth;
#X floatatom 169 293 5 0 0 0 - - -;
#X obj 77 345 svf~ 50 0.5;
#X obj 237 109 inlet;
#X obj 78 403 gkpd.mix-to-stereo main 0.9;
#X obj 285 134 gk.scale 0 1 120 300;
#X obj 76 294 svf~ 100 0.4;
#X msg 451 179 1 25 \, 0.2 100 125 \, 0.1 550 110 \, 0 1000 551;
#X obj 110 268 vline~;
#X obj 110 241 gk.scale 0 1 120 800;
#X connect 0 0 4 0;
#X connect 0 0 5 0;
#X connect 1 0 13 0;
#X connect 2 0 11 0;
#X connect 2 0 11 1;
#X connect 3 0 2 1;
#X connect 4 0 14 0;
#X connect 6 2 9 0;
#X connect 7 0 12 0;
#X connect 8 0 6 1;
#X connect 9 1 2 0;
#X connect 10 0 11 2;
#X connect 12 0 8 0;
#X connect 13 0 6 0;
#X connect 14 0 3 0;
#X connect 14 0 16 0;
#X connect 15 0 13 1;
#X connect 16 0 15 0;
#X restore 58 316 pd pulse-sound;
#X text -85 -952 NOTE FOR LIBPD BUILD PD 'abstraction' files refered
to in this patch that need to be added to libPD search path... gk.skeptic.pd
gk.split.pd gk.mean.pd gk.spring2.pd gk.trough.pd gk.peak.pd gk.onebang.pd
gk.sines.pd gk.scale.pd gk.resample.pd gk.edge.pd list-stream.mmb.pd
list-mean.pd list-len.pd;
#N canvas 220 142 1220 758 3-beeps 0;
#X obj -100 11 inlet;
#X obj -37 398 vline~;
#X obj -1 448 *~;
#X obj -123 13 bng 15 250 50 0 empty empty empty 17 7 0 10 -262144
-1 -1;
#X msg -37 355 1 5 0 \, 0 5 75;
#X obj 92 358 osc~ 880;
#X obj 0 608 throw~ test-beeps;
#X obj -100 46 t b b b -----------------------------;
#X obj 166 258 t b b;
#X msg 192 286 440;
#X obj 50 253 t b b;
#X msg 76 281 880;
#X obj -89 256 t b b;
#X msg -63 284 1320;
#X floatatom 93 335 5 0 0 0 - - -;
#X obj 137 285 delay 5;
#X obj 19 287 delay 5;
#X obj -124 286 delay 5;
#X obj -76 190 delay 400;
#X obj 29 187 delay 200;
#X obj 0 491 *~ 0.125;
#X connect 0 0 7 0;
#X connect 1 0 2 1;
#X connect 2 0 20 0;
#X connect 3 0 7 0;
#X connect 4 0 1 0;
#X connect 5 0 2 0;
#X connect 7 0 18 0;
#X connect 7 1 19 0;
#X connect 7 2 8 0;
#X connect 8 0 15 0;
#X connect 8 1 9 0;
#X connect 9 0 14 0;
#X connect 10 0 16 0;
#X connect 10 1 11 0;
#X connect 11 0 14 0;
#X connect 12 0 17 0;
#X connect 12 1 13 0;
#X connect 13 0 14 0;
#X connect 14 0 5 0;
#X connect 15 0 4 0;
#X connect 16 0 4 0;
#X connect 17 0 4 0;
#X connect 18 0 12 0;
#X connect 19 0 10 0;
#X connect 20 0 6 0;
#X restore 937 -896 pd 3-beeps;
#X obj 909 -932 bng 15 250 50 0 empty empty empty 17 7 0 10 -262144
-1 -1;
#X obj 265 464 catch~ test-beeps;
#N canvas 220 142 1220 758 3-beeps 0;
#X obj -100 11 inlet;
#X obj -37 398 vline~;
#X obj -1 448 *~;
#X obj -123 13 bng 15 250 50 0 empty empty empty 17 7 0 10 -262144
-1 -1;
#X msg -37 355 1 5 0 \, 0 5 75;
#X obj 92 358 osc~ 880;
#X obj -3 570 throw~ test-beeps;
#X obj -100 46 t b b b -----------------------------;
#X obj 166 258 t b b;
#X obj 50 253 t b b;
#X msg 76 281 880;
#X obj -89 256 t b b;
#X floatatom 93 335 5 0 0 0 - - -;
#X obj 137 285 delay 5;
#X obj 19 287 delay 5;
#X obj -124 286 delay 5;
#X obj -76 190 delay 400;
#X obj 29 187 delay 200;
#X msg 192 286 1320;
#X msg -63 284 440;
#X obj -2 484 *~ 0.125;
#X connect 0 0 7 0;
#X connect 1 0 2 1;
#X connect 2 0 20 0;
#X connect 3 0 7 0;
#X connect 4 0 1 0;
#X connect 5 0 2 0;
#X connect 7 0 16 0;
#X connect 7 1 17 0;
#X connect 7 2 8 0;
#X connect 8 0 13 0;
#X connect 8 1 18 0;
#X connect 9 0 14 0;
#X connect 9 1 10 0;
#X connect 10 0 12 0;
#X connect 11 0 15 0;
#X connect 11 1 19 0;
#X connect 12 0 5 0;
#X connect 13 0 4 0;
#X connect 14 0 4 0;
#X connect 15 0 4 0;
#X connect 16 0 11 0;
#X connect 17 0 9 0;
#X connect 18 0 12 0;
#X connect 19 0 12 0;
#X connect 20 0 6 0;
#X restore 1073 -903 pd 3-beeps;
#X obj 1053 -934 bng 15 250 50 0 empty empty empty 17 7 0 10 -262144
-1 -1;
#N canvas 0 22 1425 742 samples-01 0;
#N canvas 0 22 450 300 (subpatch) 0;
#X array sample-01L 546045 float 2;
#X coords 0 1 546045 -1 200 140 1;
#X restore 706 -473 graph;
#N canvas 0 22 450 300 (subpatch) 0;
#X array sample-01R 546045 float 2;
#X coords 0 1 546045 -1 200 140 1;
#X restore 706 -636 graph;
#X obj 247 -511 bng 15 250 50 0 empty empty empty 17 7 0 10 -262144
-1 -1;
#X obj 247 -491 openpanel;
#X obj 247 -424 soundfiler;
#X floatatom 247 -392 15 0 0 0 - - -;
#X text 924 -389 NOTE: will need to develop a work-around use of expr
object expr object is licensed under GNU GPL so can't be submitted
to App Store. Should be OK for pilot trial (doesn't use App Store)
\, but a high priority for App Stotre release.;
#X text 708 -319 NOTE: Samplerate for audio needs to be set at 22050
Hz;
#X obj 291 -166 tabread4~ sample-01R;
#X obj 131 -168 tabread4~ sample-01L;
#X obj 130 -230 vline~;
#X obj 129 -449 mtof;
#X floatatom 145 -481 5 0 0 0 - - -;
#X floatatom 247 -340 10 0 0 0 - - -;
#X floatatom 130 -347 10 0 0 0 - - -;
#X msg 130 -269 1 \, \$1 \$2;
#X obj 144 -504 bng 15 250 50 0 empty empty empty 17 7 0 10 -262144
-1 -1;
#X obj 247 -369 / 44.1;
#X msg 535 -276 /Users/georgepoonkhinkhut/Dropbox/BrightHearts_iOS_beta_Development/brighthearts-ios-pd/samples/daphne_tibetan-bell.aif
;
#X msg 535 -310 set \$1;
#X floatatom 143 -426 5 0 0 0 - - -;
#X msg 185 -481 69;
#X obj 129 -399 / 441;
#X obj 129 -373 * 441000;
#X obj -21 -548 inlet;
#X obj 130 -296 pack 0 0 -------------------------;
#X text 333 -513 Q: what is the file path needed for libpd?;
#X msg 334 -489 daphne_tibetan-bell.aif;
#X obj 181 -510 r note;
#X obj 254 -562 s note;
#X msg 137 -611 64;
#X msg 170 -613 67;
#X msg 224 -614 69;
#X msg 279 -614 79;
#X msg 320 -615 86;
#N canvas 368 131 749 586 delay-fx 0;
#X obj 28 39 inlet~;
#X obj 75 375 outlet~;
#X obj 264 366 outlet~;
#X obj 97 302 *~ 0.25;
#X obj 286 301 *~ 0.25;
#X obj 66 113 delwrite~ delay-fx-002L 10000;
#X obj 325 77 delwrite~ delay-fx-002R 10000;
#X obj 74 205 delread~ delay-fx-002L 2750;
#X obj 306 203 delread~ delay-fx-002R 5400;
#X obj 380 158 *~ 0.65;
#X obj 191 157 *~ 0.65;
#X connect 0 0 1 0;
#X connect 0 0 2 0;
#X connect 0 0 5 0;
#X connect 0 0 6 0;
#X connect 3 0 1 0;
#X connect 3 0 2 0;
#X connect 4 0 2 0;
#X connect 4 0 1 0;
#X connect 7 0 3 0;
#X connect 7 0 10 0;
#X connect 8 0 4 0;
#X connect 8 0 9 0;
#X connect 9 0 6 0;
#X connect 10 0 5 0;
#X restore 220 15 pd delay-fx;
#X obj 367 -90 loadbang;
#X obj 132 -35 *~ 0.5;
#X obj 232 -30 *~ 0.5;
#X obj 356 -560 loadbang;
#X msg 366 -64 0.25;
#X obj 65 194 gkpd.mix-to-stereo main 0.9;
#X obj 65 165 clip~ -1 1;
#X obj 143 165 clip~ -1 1;
#X obj 166 138 *~;
#X obj 88 138 *~;
#X obj 331 88 inlet;
#X obj 4 84 *~ 0.25;
#X obj 82 85 *~ 0.25;
#X obj 140 90 *~ 0.25;
#X obj 242 89 *~ 0.25;
#X msg 247 -463 read -resize Tingsha0006.aif sample-01L sample-01R
;
#X connect 2 0 3 0;
#X connect 3 0 51 0;
#X connect 3 0 19 0;
#X connect 4 0 5 0;
#X connect 5 0 17 0;
#X connect 8 0 38 0;
#X connect 9 0 37 0;
#X connect 10 0 9 0;
#X connect 10 0 8 0;
#X connect 11 0 20 0;
#X connect 11 0 22 0;
#X connect 12 0 11 0;
#X connect 13 0 25 1;
#X connect 14 0 25 0;
#X connect 15 0 10 0;
#X connect 16 0 12 0;
#X connect 17 0 13 0;
#X connect 19 0 18 0;
#X connect 21 0 11 0;
#X connect 22 0 23 0;
#X connect 23 0 14 0;
#X connect 24 0 11 0;
#X connect 25 0 15 0;
#X connect 28 0 12 0;
#X connect 30 0 29 0;
#X connect 31 0 29 0;
#X connect 32 0 29 0;
#X connect 33 0 29 0;
#X connect 34 0 29 0;
#X connect 35 0 47 0;
#X connect 35 0 49 0;
#X connect 35 0 50 0;
#X connect 35 1 48 0;
#X connect 35 1 49 0;
#X connect 35 1 50 0;
#X connect 36 0 40 0;
#X connect 37 0 35 0;
#X connect 37 0 47 0;
#X connect 38 0 35 0;
#X connect 38 0 48 0;
#X connect 39 0 51 0;
#X connect 40 0 37 1;
#X connect 40 0 38 1;
#X connect 42 0 41 0;
#X connect 43 0 41 1;
#X connect 44 0 43 0;
#X connect 45 0 42 0;
#X connect 46 0 44 1;
#X connect 46 0 45 1;
#X connect 47 0 45 0;
#X connect 48 0 44 0;
#X connect 49 0 45 0;
#X connect 50 0 44 0;
#X connect 51 0 4 0;
#X restore 303 314 pd samples-01;
#X obj 139 248 bng 15 250 50 0 empty empty empty 17 7 0 10 -262144
-1 -1;
#X text 252 393 NOTE: this patch loads and plays sound samples from
the hard drive - need to check search-path settings;
#N canvas 0 22 1360 820 sine-tones-triggered-from-slowingdown-thresholds
0;
#X obj 2230 216 r slowness-19;
#X obj 2110 219 r slowness-18;
#X obj 1976 219 r slowness-17;
#X obj 1852 212 r slowness-16;
#X obj 1726 213 r slowness-15;
#X obj 1608 210 r slowness-14;
#X obj 1478 212 r slowness-13;
#X obj 1359 213 r slowness-12;
#X obj 1233 217 r slowness-11;
#X obj 1103 224 r slowness-10;
#X obj 983 222 r slowness-09;
#X obj 865 224 r slowness-08;
#X obj 759 224 r slowness-07;
#X obj 658 224 r slowness-06;
#X obj 550 225 r slowness-05;
#X obj 431 229 r slowness-04;
#X obj 310 232 r slowness-03;
#X obj 214 231 r slowness-02;
#X obj 109 232 r slowness-01;
#X obj 715 514 bng 15 250 50 0 empty empty empty 17 7 0 10 -262144
-1 -1;
#N canvas 368 131 749 586 delay-fx 0;
#X obj 25 49 inlet~;
#X obj 75 375 outlet~;
#X obj 66 113 delwrite~ delay-fx-001L 10000;
#X obj 369 117 delwrite~ delay-fx-001R 10000;
#X obj 264 366 outlet~;
#X obj 191 157 *~ 0.5;
#X obj 380 158 *~ 0.5;
#X obj 97 302 *~ 0.25;
#X obj 286 301 *~ 0.25;
#X obj 74 205 delread~ delay-fx-001L 4000;
#X obj 306 203 delread~ delay-fx-001R 5000;
#X connect 0 0 2 0;
#X connect 0 0 3 0;
#X connect 0 0 1 0;
#X connect 0 0 4 0;
#X connect 5 0 2 0;
#X connect 6 0 3 0;
#X connect 7 0 1 0;
#X connect 7 0 4 0;
#X connect 8 0 4 0;
#X connect 8 0 1 0;
#X connect 9 0 5 0;
#X connect 9 0 7 0;
#X connect 10 0 6 0;
#X connect 10 0 8 0;
#X restore 707 713 pd delay-fx;
#X floatatom 762 518 5 0 0 0 - - -;
#X obj 710 631 catch~ sines-1;
#X obj 715 589 throw~ sines-1;
#X obj 822 388 s slow-sine-fq;
#X obj 715 409 r slow-sine-fq;
#X obj 715 468 t b f;
#X msg 104 299 6916.26;
#X msg 207 297 6161.69;
#X msg 309 295 5815.86;
#X msg 433 296 4616.05;
#X msg 545 293 4356.97;
#X msg 653 294 3881.62;
#X msg 757 296 3458.13;
#X msg 860 296 2907.93;
#X msg 978 295 2590.67;
#X msg 1098 292 2308.02;
#X msg 1227 289 2178.49;
#X msg 1353 284 1940.81;
#X msg 1472 282 1729.06;
#X msg 1725 286 1453.96;
#X msg 1852 287 1295.34;
#X msg 1974 285 1154.01;
#X msg 2112 283 1090.19;
#X msg 2236 284 971.246;
#X obj 715 556 gk.sines 1567.98 0.1;
#X msg 1598 286 1540.42;
#X obj 1018 480 r beat-count;
#X obj 1016 533 > 32;
#X floatatom 970 539 5 0 0 0 - - -;
#X obj 973 710 line~;
#X msg 1069 646 0 10000;
#X obj 1259 556 r session-end;
#X msg 979 656 1 30000;
#X obj 710 682 *~;
#X obj 1086 532 < 32;
#X obj 997 573 select 1;
#X obj 1082 574 select 1;
#X obj 587 461 pipe 250;
#X obj 717 443 * 0.75;
#X obj 703 755 gkpd.mix-to-stereo main 0.72;
#X connect 0 0 44 0;
#X connect 1 0 43 0;
#X connect 2 0 42 0;
#X connect 3 0 41 0;
#X connect 4 0 40 0;
#X connect 5 0 46 0;
#X connect 6 0 39 0;
#X connect 7 0 38 0;
#X connect 8 0 37 0;
#X connect 9 0 36 0;
#X connect 10 0 35 0;
#X connect 11 0 34 0;
#X connect 12 0 33 0;
#X connect 13 0 32 0;
#X connect 14 0 31 0;
#X connect 15 0 30 0;
#X connect 16 0 29 0;
#X connect 17 0 28 0;
#X connect 18 0 27 0;
#X connect 19 0 45 0;
#X connect 20 0 60 0;
#X connect 20 1 60 1;
#X connect 21 0 45 1;
#X connect 22 0 54 0;
#X connect 25 0 58 0;
#X connect 26 0 19 0;
#X connect 26 1 21 0;
#X connect 27 0 24 0;
#X connect 28 0 24 0;
#X connect 29 0 24 0;
#X connect 30 0 24 0;
#X connect 31 0 24 0;
#X connect 32 0 24 0;
#X connect 33 0 24 0;
#X connect 34 0 24 0;
#X connect 35 0 24 0;
#X connect 36 0 24 0;
#X connect 37 0 24 0;
#X connect 38 0 24 0;
#X connect 39 0 24 0;
#X connect 40 0 24 0;
#X connect 41 0 24 0;
#X connect 42 0 24 0;
#X connect 43 0 24 0;
#X connect 44 0 24 0;
#X connect 46 0 24 0;
#X connect 47 0 48 0;
#X connect 47 0 49 0;
#X connect 47 0 55 0;
#X connect 48 0 56 0;
#X connect 50 0 54 1;
#X connect 51 0 50 0;
#X connect 52 0 51 0;
#X connect 53 0 50 0;
#X connect 54 0 20 0;
#X connect 55 0 57 0;
#X connect 56 0 53 0;
#X connect 57 0 51 0;
#X connect 58 0 59 0;
#X connect 59 0 26 0;
#X restore 445 317 pd sine-tones-triggered-from-slowingdown-thresholds
;
#N canvas 123 35 1133 865 samples-triggered-from-slowingdown-thresholds
0;
#X obj 197 -98 r how-slow-32;
#X floatatom 466 -1 5 0 0 0 - - -;
#X floatatom 15 157 5 0 0 0 - - -;
#X obj 197 -47 * 100;
#X obj 65 194 bng 15 250 50 0 empty empty empty 17 7 0 10 -262144 -1
-1;
#X obj 198 192 bng 15 250 50 0 empty empty empty 17 7 0 10 -262144
-1 -1;
#X obj 339 196 bng 15 250 50 0 empty empty empty 17 7 0 10 -262144
-1 -1;
#X obj 481 195 bng 15 250 50 0 empty empty empty 17 7 0 10 -262144
-1 -1;
#X obj 622 202 bng 15 250 50 0 empty empty empty 17 7 0 10 -262144
-1 -1;
#X obj 763 198 bng 15 250 50 0 empty empty empty 17 7 0 10 -262144
-1 -1;
#X obj 902 196 bng 15 250 50 0 empty empty empty 17 7 0 10 -262144
-1 -1;
#X obj 1042 188 bng 15 250 50 0 empty empty empty 17 7 0 10 -262144
-1 -1;
#X obj 466 53 float;
#X obj 919 618 s note;
#X obj 466 26 + 5;
#X msg 304 527 89;
#X msg 406 525 88;
#X msg 530 526 84;
#X msg 642 523 83;
#X msg 750 524 81;
#X msg 854 526 79;
#X msg 957 526 76;
#X msg 1075 525 74;
#X obj 1179 187 bng 15 250 50 0 empty empty empty 17 7 0 10 -262144
-1 -1;
#X msg 1195 522 72;
#X obj 1319 184 bng 15 250 50 0 empty empty empty 17 7 0 10 -262144
-1 -1;
#X msg 1324 519 71;
#X obj 1453 183 bng 15 250 50 0 empty empty empty 17 7 0 10 -262144
-1 -1;
#X msg 1450 514 69;
#X obj 1589 183 bng 15 250 50 0 empty empty empty 17 7 0 10 -262144
-1 -1;
#X msg 1569 512 67;
#X obj 1727 186 bng 15 250 50 0 empty empty empty 17 7 0 10 -262144
-1 -1;
#X msg 1695 515 65;
#X obj 1865 184 bng 15 250 50 0 empty empty empty 17 7 0 10 -262144
-1 -1;
#X msg 1822 516 64;
#X obj 2004 186 bng 15 250 50 0 empty empty empty 17 7 0 10 -262144
-1 -1;
#X obj 2143 183 bng 15 250 50 0 empty empty empty 17 7 0 10 -262144
-1 -1;
#X obj 2278 185 bng 15 250 50 0 empty empty empty 17 7 0 10 -262144
-1 -1;
#X msg 1949 517 62;
#X msg 2071 515 60;
#X msg 2209 513 59;
#X obj 2410 183 bng 15 250 50 0 empty empty empty 17 7 0 10 -262144
-1 -1;
#X msg 2333 514 57;
#X obj 65 225 s slowness-01;
#X obj 198 222 s slowness-02;
#X obj 339 224 s slowness-03;
#X obj 481 224 s slowness-04;
#X obj 622 228 s slowness-05;
#X obj 763 227 s slowness-06;
#X obj 903 217 s slowness-07;
#X obj 1042 214 s slowness-08;
#X obj 1179 211 s slowness-09;
#X obj 1319 212 s slowness-10;
#X obj 1453 210 s slowness-11;
#X obj 1589 210 s slowness-12;
#X obj 1727 209 s slowness-13;
#X obj 1865 207 s slowness-14;
#X obj 2004 210 s slowness-15;
#X obj 2143 209 s slowness-16;
#X obj 2278 209 s slowness-17;
#X obj 2410 209 s slowness-18;
#X msg 201 529 91;
#X obj 2543 185 bng 15 250 50 0 empty empty empty 17 7 0 10 -262144
-1 -1;
#X obj 2543 215 s slowness-19;
#X obj 2327 446 r slowness-19;
#X obj 2207 449 r slowness-18;
#X obj 2073 449 r slowness-17;
#X obj 1949 442 r slowness-16;
#X obj 1823 443 r slowness-15;
#X obj 1705 440 r slowness-14;
#X obj 1575 442 r slowness-13;
#X obj 1456 443 r slowness-12;
#X obj 1330 447 r slowness-11;
#X obj 1200 454 r slowness-10;
#X obj 1080 452 r slowness-09;
#X obj 962 454 r slowness-08;
#X obj 856 454 r slowness-07;
#X obj 755 454 r slowness-06;
#X obj 647 455 r slowness-05;
#X obj 528 459 r slowness-04;
#X obj 407 462 r slowness-03;
#X obj 311 461 r slowness-02;
#X obj 206 462 r slowness-01;
#X obj 65 156 gk.trigger.inc 10 8;
#X obj 198 155 gk.trigger.inc 15 13;
#X obj 339 153 gk.trigger.inc 20 18;
#X obj 481 153 gk.trigger.inc 25 23;
#X obj 620 152 gk.trigger.inc 30 28;
#X obj 762 153 gk.trigger.inc 35 33;
#X obj 902 153 gk.trigger.inc 40 38;
#X obj 1042 155 gk.trigger.inc 45 43;
#X obj 1179 155 gk.trigger.inc 50 47;
#X obj 1319 155 gk.trigger.inc 55 52;
#X obj 1453 156 gk.trigger.inc 60 57;
#X obj 1589 155 gk.trigger.inc 65 63;
#X obj 1727 157 gk.trigger.inc 70 67;
#X obj 1865 158 gk.trigger.inc 75 72;
#X obj 2004 158 gk.trigger.inc 80 77;
#X obj 2143 158 gk.trigger.inc 85 82;
#X obj 2278 158 gk.trigger.inc 90 87;
#X obj 2410 158 gk.trigger.inc 95 92;
#X obj 2543 158 gk.trigger.inc 100 97;
#X connect 0 0 3 0;
#X connect 1 0 14 0;
#X connect 3 0 2 0;
#X connect 3 0 1 0;
#X connect 4 0 43 0;
#X connect 5 0 44 0;
#X connect 6 0 45 0;
#X connect 7 0 46 0;
#X connect 8 0 47 0;
#X connect 9 0 48 0;
#X connect 10 0 49 0;
#X connect 11 0 50 0;
#X connect 12 0 83 0;
#X connect 12 0 84 0;
#X connect 12 0 85 0;
#X connect 12 0 86 0;
#X connect 12 0 87 0;
#X connect 12 0 88 0;
#X connect 12 0 89 0;
#X connect 12 0 90 0;
#X connect 12 0 91 0;
#X connect 12 0 92 0;
#X connect 12 0 93 0;
#X connect 12 0 94 0;
#X connect 12 0 95 0;
#X connect 12 0 96 0;
#X connect 12 0 97 0;
#X connect 12 0 98 0;
#X connect 12 0 99 0;
#X connect 12 0 100 0;
#X connect 12 0 101 0;
#X connect 14 0 12 0;
#X connect 15 0 13 0;
#X connect 16 0 13 0;
#X connect 17 0 13 0;
#X connect 18 0 13 0;
#X connect 19 0 13 0;
#X connect 20 0 13 0;
#X connect 21 0 13 0;
#X connect 22 0 13 0;
#X connect 23 0 51 0;
#X connect 24 0 13 0;
#X connect 25 0 52 0;
#X connect 26 0 13 0;
#X connect 27 0 53 0;
#X connect 28 0 13 0;
#X connect 29 0 54 0;
#X connect 30 0 13 0;
#X connect 31 0 55 0;
#X connect 32 0 13 0;
#X connect 33 0 56 0;
#X connect 34 0 13 0;
#X connect 35 0 57 0;
#X connect 36 0 58 0;
#X connect 37 0 59 0;
#X connect 38 0 13 0;
#X connect 39 0 13 0;
#X connect 40 0 13 0;
#X connect 41 0 60 0;
#X connect 42 0 13 0;
#X connect 61 0 13 0;
#X connect 62 0 63 0;
#X connect 64 0 42 0;
#X connect 65 0 40 0;
#X connect 66 0 39 0;
#X connect 67 0 38 0;
#X connect 68 0 34 0;
#X connect 69 0 32 0;
#X connect 70 0 30 0;
#X connect 71 0 28 0;
#X connect 72 0 26 0;
#X connect 73 0 24 0;
#X connect 74 0 22 0;
#X connect 75 0 21 0;
#X connect 76 0 20 0;
#X connect 77 0 19 0;
#X connect 78 0 18 0;
#X connect 79 0 17 0;
#X connect 80 0 16 0;
#X connect 81 0 15 0;
#X connect 82 0 61 0;
#X connect 83 0 4 0;
#X connect 84 0 5 0;
#X connect 85 0 6 0;
#X connect 86 0 7 0;
#X connect 87 0 8 0;
#X connect 88 0 9 0;
#X connect 89 0 10 0;
#X connect 90 0 11 0;
#X connect 91 0 23 0;
#X connect 92 0 25 0;
#X connect 93 0 27 0;
#X connect 94 0 29 0;
#X connect 95 0 31 0;
#X connect 96 0 33 0;
#X connect 97 0 35 0;
#X connect 98 0 36 0;
#X connect 99 0 37 0;
#X connect 100 0 41 0;
#X connect 101 0 62 0;
#X restore 378 219 pd samples-triggered-from-slowingdown-thresholds
;
#N canvas 220 142 1220 758 3-beeps 0;
#X obj -100 11 inlet;
#X obj -37 398 vline~;
#X obj -1 448 *~;
#X obj -123 13 bng 15 250 50 0 empty empty empty 17 7 0 10 -262144
-1 -1;
#X msg -37 355 1 5 0 \, 0 5 75;
#X obj 92 358 osc~ 880;
#X obj -19 608 throw~ test-beeps;
#X obj -100 46 t b b b -----------------------------;
#X obj 166 258 t b b;
#X obj 50 253 t b b;
#X obj -89 256 t b b;
#X floatatom 93 335 5 0 0 0 - - -;
#X obj 137 285 delay 5;
#X obj 19 287 delay 5;
#X obj -124 286 delay 5;
#X obj -76 190 delay 400;
#X obj 29 187 delay 200;
#X msg -63 284 2640;
#X msg 190 286 2640;
#X msg 76 281 5280;
#X obj -4 484 *~ 0.05;
#X connect 0 0 7 0;
#X connect 1 0 2 1;
#X connect 2 0 20 0;
#X connect 3 0 7 0;
#X connect 4 0 1 0;
#X connect 5 0 2 0;
#X connect 7 0 15 0;
#X connect 7 1 16 0;
#X connect 7 2 8 0;
#X connect 8 0 12 0;
#X connect 8 1 18 0;
#X connect 9 0 13 0;
#X connect 9 1 19 0;
#X connect 10 0 14 0;
#X connect 10 1 17 0;
#X connect 11 0 5 0;
#X connect 12 0 4 0;
#X connect 13 0 4 0;
#X connect 14 0 4 0;
#X connect 15 0 10 0;
#X connect 16 0 9 0;
#X connect 17 0 11 0;
#X connect 18 0 11 0;
#X connect 19 0 11 0;
#X connect 20 0 6 0;
#X restore 754 -861 pd 3-beeps;
#X obj 735 -911 select 1;
#N canvas 220 142 1220 758 3-beeps 0;
#X obj -100 11 inlet;
#X obj -37 398 vline~;
#X obj -1 448 *~;
#X obj -123 13 bng 15 250 50 0 empty empty empty 17 7 0 10 -262144
-1 -1;
#X msg -37 355 1 5 0 \, 0 5 75;
#X obj 92 358 osc~ 880;
#X obj -3 586 throw~ test-beeps;
#X obj -100 46 t b b b -----------------------------;
#X obj 166 258 t b b;
#X obj 50 253 t b b;
#X obj -89 256 t b b;
#X floatatom 93 335 5 0 0 0 - - -;
#X obj 137 285 delay 5;
#X obj 19 287 delay 5;
#X obj -124 286 delay 5;
#X obj -76 190 delay 400;
#X obj 29 187 delay 200;
#X msg 190 286 5280;
#X msg 76 281 2640;
#X msg -63 284 1320;
#X obj -6 489 *~ 0.05;
#X connect 0 0 7 0;
#X connect 1 0 2 1;
#X connect 2 0 20 0;
#X connect 3 0 7 0;
#X connect 4 0 1 0;
#X connect 5 0 2 0;
#X connect 7 0 15 0;
#X connect 7 1 16 0;
#X connect 7 2 8 0;
#X connect 8 0 12 0;
#X connect 8 1 17 0;
#X connect 9 0 13 0;
#X connect 9 1 18 0;
#X connect 10 0 14 0;
#X connect 10 1 19 0;
#X connect 11 0 5 0;
#X connect 12 0 4 0;
#X connect 13 0 4 0;
#X connect 14 0 4 0;
#X connect 15 0 10 0;
#X connect 16 0 9 0;
#X connect 17 0 11 0;
#X connect 18 0 11 0;
#X connect 19 0 11 0;
#X connect 20 0 6 0;
#X restore 837 -861 pd 3-beeps;
#X obj 816 -911 select 0;
#X obj 852 -885 bng 15 250 50 0 empty empty empty 17 7 0 10 -262144
-1 -1;
#X obj 766 -888 bng 15 250 50 0 empty empty empty 17 7 0 10 -262144
-1 -1;
#X obj 803 -944 change;
#N canvas 220 142 1220 758 3-beeps 0;
#X obj -100 11 inlet;
#X obj -36 343 vline~;
#X obj 1 396 *~;
#X obj -123 13 bng 15 250 50 0 empty empty empty 17 7 0 10 -262144
-1 -1;
#X msg -36 314 1 5 0 \, 0 5 75;
#X obj 92 358 osc~ 880;
#X obj -100 46 t b b b -----------------------------;
#X obj 166 258 t b b;
#X floatatom 93 335 5 0 0 0 - - -;
#X obj 137 285 delay 5;
#X msg 190 286 10560;
#X obj -33 427 *~ 0.02;
#X obj 57 564 gkpd.mix-to-stereo main 0.5;
#X connect 0 0 6 0;
#X connect 1 0 2 1;
#X connect 2 0 11 0;
#X connect 3 0 6 0;
#X connect 4 0 1 0;
#X connect 5 0 2 0;
#X connect 6 2 7 0;
#X connect 7 0 9 0;
#X connect 7 1 10 0;
#X connect 8 0 5 0;
#X connect 9 0 4 0;
#X connect 10 0 8 0;
#X connect 11 0 12 0;
#X connect 11 0 12 1;
#X restore 181 316 pd 3-beeps;
#X obj 181 292 bng 15 250 50 0 empty empty empty 17 7 0 10 -262144
-1 -1;
#X obj 950 -926 onebang;
#X obj 181 249 r TEST-heart-ibi;
#X obj 586 -892 s TEST-heart-ibi;
#X obj 749 -622 f 5000;
#X obj 598 -612 f 0;
#X floatatom 500 -625 5 0 0 0 - - -;
#X obj 842 -655 bng 15 250 50 0 empty empty empty 17 7 0 10 -262144
-1 -1;
#X floatatom 88 88 5 0 0 0 - - -;
#N canvas 0 22 608 561 cyclone-drone 0;
#X obj 141 54 r ibi-dev-4-32-nml-smooth;
#X floatatom 104 130 5 0 0 0 - - -;
#X obj 80 333 *~;
#X obj 44 109 phasor~;
#X obj 44 183 svf~ 50 0.75;
#X obj 33 283 svf~ 20 0.1;
#X obj 163 270 line~;
#X msg 178 191 1 10000;
#X msg 344 190 0 10000;
#X obj 141 81 gk.scale 0 1 165 400;
#X obj 352 63 r session-start;
#X obj 478 63 r session-end;
#X obj 28 496 gkpd.mix-to-stereo main 0.9;
#X obj 186 449 inlet;
#X obj 370 86 bng 15 250 50 0 empty empty empty 17 7 0 10 -262144 -1
-1;
#X obj 38 232 svf~ 54.0332 0.75;
#X msg 131 25 54.0333;
#X msg 219 24 60.6503;
#X msg 302 24 68.0777;
#X msg 19 3 40.4792;
#X msg 42 25 30.3514;
#X obj 43 57 sig~ 40.4792;
#X connect 0 0 9 0;
#X connect 1 0 4 1;
#X connect 2 0 12 0;
#X connect 2 0 12 1;
#X connect 3 0 4 0;
#X connect 4 2 15 0;
#X connect 5 1 2 0;
#X connect 6 0 2 1;
#X connect 7 0 6 0;
#X connect 8 0 6 0;
#X connect 9 0 1 0;
#X connect 10 0 14 0;
#X connect 10 0 7 0;
#X connect 11 0 8 0;
#X connect 13 0 12 2;
#X connect 15 2 5 0;
#X connect 16 0 21 0;
#X connect 17 0 21 0;
#X connect 18 0 21 0;
#X connect 19 0 21 0;
#X connect 20 0 21 0;
#X connect 21 0 3 0;
#X restore -83 320 pd cyclone-drone;
#X obj 818 472 *~ 1;
#X obj 578 468 catch~ main-R;
#X obj 436 471 catch~ main-L;
#X floatatom -84 294 5 0 0 0 - - -;
#X obj -81 228 r session-start;
#X floatatom 58 291 5 0 0 0 - - -;
#X floatatom 378 288 7 0 0 0 - - -;
#X obj 824 -88 spigot;
#X obj 312 -789 counter;
#X floatatom 278 -757 5 0 0 0 - - -;
#X obj 371 -831 r session-start;
#X msg 366 -810 0;
#X obj 197 -722 send beat-count;
#X obj 898 -171 r beat-count;
#X obj 898 -124 t 1;
#X obj 898 -150 > 32;
#X floatatom 850 -149 5 0 0 0 - - -;
#X obj 740 -158 bng 15 250 50 0 empty empty empty 17 7 0 10 -262144
-1 -1;
#X obj 729 -118 t b b;
#X msg 782 -116 0;
#X msg 770 -75 0;
#X msg 416 263 0;
#X obj 379 240 r session-start;
#X obj 1517 55 s rsa-wavelength-ms;
#N canvas 0 22 450 300 exhale-sound 0;
#X obj 179 45 r rsa-down-smooth;
#X obj 97 105 *~;
#X obj 51 22 noise~;
#X obj 51 49 svf~ 400 0.4;
#X obj 51 72 svf~ 800 0.4;
#X obj 97 150 gkpd.mix-to-stereo main 0.1;
#X connect 0 0 1 1;
#X connect 1 0 5 0;
#X connect 1 0 5 1;
#X connect 2 0 3 0;
#X connect 3 0 4 0;
#X connect 4 2 1 0;
#X restore 782 315 pd exhale-sound;
#N canvas 71 29 1026 259 rsa-wavelength 0;
#X obj -337 3 r rsa-wavelength-ms;
#X floatatom -321 123 5 0 0 0 - - -;
#X floatatom -337 37 10 0 0 0 - - -;
#X obj -337 89 gk.range.gate 4000 4999;
#X floatatom -154 135 5 0 0 0 - - -;
#X obj -181 89 gk.range.gate 5000 5999;
#X floatatom 2 124 5 0 0 0 - - -;
#X obj -26 89 gk.range.gate 6000 6999;
#X floatatom 146 123 5 0 0 0 - - -;
#X obj 124 89 gk.range.gate 7000 7999;
#X floatatom 298 123 5 0 0 0 - - -;
#X obj 276 89 gk.range.gate 8000 8999;
#X floatatom 447 124 5 0 0 0 - - -;
#X obj 425 90 gk.range.gate 9000 15000;
#X obj -339 163 s rsa-length-is-4s;
#X obj -182 158 s rsa-length-is-5s;
#X obj -27 163 s rsa-length-is-6s;
#X obj 125 163 s rsa-length-is-7s;
#X obj 278 158 s rsa-length-is-8s;
#X obj 426 156 s rsa-length-is-9s;
#X connect 0 0 2 0;
#X connect 2 0 3 0;
#X connect 2 0 5 0;
#X connect 2 0 7 0;
#X connect 2 0 9 0;
#X connect 2 0 11 0;
#X connect 2 0 13 0;
#X connect 3 0 1 0;
#X connect 3 0 14 0;
#X connect 5 0 4 0;
#X connect 5 0 15 0;
#X connect 7 0 6 0;
#X connect 7 0 16 0;
#X connect 9 0 8 0;
#X connect 9 0 17 0;
#X connect 11 0 10 0;
#X connect 11 0 18 0;
#X connect 13 0 12 0;
#X connect 13 0 19 0;
#X restore 1115 120 pd rsa-wavelength;
#X text 1114 99 how slow and steady is breathing;
#X obj 476 -67 gk.split -1000 0;
#X obj 598 -65 gk.split 0 1000;
#X obj 823 -5 gk.spring2 10 0.25;
#X obj 607 25 gk.spring2 5 0.25;
#X obj 309 12 gk.spring2 5 0.25;
#X obj 112 12 gk.spring2 5 0.25;
#N canvas 0 22 314 495 pulsing 0;
#X obj 119 169 outlet;
#X obj 119 52 line;
#X msg 45 -3 0;
#X msg 119 -29 1;
#X obj 45 -67 t b b;
#X obj 189 169 outlet;
#X obj 189 141 -;
#X msg 189 117 1 \$1;
#X obj 119 32 pack f 250;
#X obj 45 -29 delay 150;
#X obj 44 -97 r heart-ibi;
#X connect 1 0 0 0;
#X connect 1 0 7 0;
#X connect 2 0 8 0;
#X connect 3 0 8 0;
#X connect 4 0 9 0;
#X connect 4 1 3 0;
#X connect 6 0 5 0;
#X connect 7 0 6 0;
#X connect 8 0 1 0;
#X connect 9 0 2 0;
#X connect 10 0 4 0;
#X restore 311 -933 pd pulsing;
#X obj 254 -874 send pulse-out;
#X obj 321 -902 send pulse-in;
#N canvas 67 54 1234 694 VISUALS 1;
#X obj -1171 -1618 udpsend;
#X obj -1329 -1705 packOSC;
#X msg -1426 -1772 disconnect;
#X obj -1116 -1787 loadbang;
#X text -1361 -1548 ...set port number;
#X obj -1329 -1731 receive packOSC;
#X obj -1094 -1682 bng 15 250 50 0 empty empty empty 17 7 0 10 -262144
-1 -1;
#N canvas 278 31 1122 849 WORLD-------------------------------- 0;
#X floatatom -1081 127 8 0 1 1 Arg_1_[backgroundGradientOut.r]_outer_gradient_colour_-_red_(float_0-1)
- -;
#X floatatom -1033 157 8 0 1 1 Arg_2_[backgroundGradientOut.g]__outer_gradient_colour_-_green_(float_0-1)
- -;
#X floatatom -1003 184 8 0 1 1 Arg_3_[backgroundGradientOut.b]_outer_gradient_colour_-_blue_(float_0-1)
- -;
#X floatatom -943 233 8 0 1 1 Arg_5_[backgroundGradientIn.r]_inner_gradient_colour_-_red_(float_0-1)
- -;
#X floatatom -904 264 7 0 1000 1 Arg_6_[backgroundGradientIn.r]_inner_gradient_colour_green_(float_0-1)
- -;
#X obj -1124 387 t b;
#X floatatom -864 291 8 0 1000 1 Arg_7_[backgroundGradientIn.b]_inner_gradient_colour_-_blue_(float_0-1)
- -;
#X floatatom -823 324 8 0 1 1 Arg_8_[backgroundGradientIn.a]_inner_gradient_colour_alpha_(float_0-1)
- -;
#X floatatom -797 353 8 0 3 1 Arg_9_render_mode_(float_0-3)_[renderMode]
- -;
#X msg -1081 448 /gfx/World/Graphics \$1 \$2 \$3 \$4 \$5 \$6 \$7 \$8
\$9;
#X floatatom -976 210 8 0 0 1 Arg_4_[backgroundGradientOut.a]_outer_gradient_colour_alpha_(float_0-1)
- -;
#X obj -1081 419 pack 0 0 0 0 0 0 0 0 0-----------;
#X obj -1081 563 send packOSC;
#X obj -882 390 int;
#X floatatom -1084 620 5 3 60 1 Arg_1_[numSides]_from_triangle_to_sphere_(int_3-60)
- -;
#X floatatom -1055 659 5 0 2 1 Arg_2_[shapeType]_whit_type_of_gradient_is_used_(fint_0-2)
- -;
#X floatatom -1007 695 8 0 1000 1 Arg_3_[diamter]_width_(float_0-1000)
- -;
#X floatatom -960 813 8 0.3 1000 1 Arg_5_[blur]_how_fuzzy_are_the_edges?_(float_0-diameter/2)
- -;
#X obj -1157 858 t b;
#X floatatom -1000 742 8 0 10000 1 Arg_4_[thickness]_ring_thickness_(float_0-diameter/2)
- -;
#X text -992 719 comment;
#X obj -861 971 prepend set;
#X obj -1081 1056 send packOSC;
#X floatatom -1006 1128 5 0 255 2 blue - -;
#X floatatom -1098 1130 5 0.1 255 2 red - -;
#X floatatom -1049 1127 5 0.1 255 2 green - -;
#X obj -1126 1189 t b;
#X obj -980 1354 prepend set;
#X floatatom -957 1127 5 0 255 2 alpha - -;
#X text -1046 1495 if this patch is loaded in OSX - then the iOS code
will not receive any mesages NOT sent by OSC. i.e. 'send' objects dont
talk to the iOS code \, outside of the libpd code???;
#X obj -1036 1466 send packOSC;
#X obj -1089 680 int;
#X obj -1068 702 int;
#X floatatom -667 1152 5 -1000 1000 0 - - -;
#X floatatom -587 1148 5 -1000 1000 0 - - -;
#X obj -650 1202 t b;
#X obj -619 1302 prepend set;
#X msg -618 1323 /gfx/Body/Position 0 0 -45;
#X obj -700 1445 send packOSC;
#X text -530 707 AllParticles/Gradient;
#X floatatom -489 1152 8 -1000 1000 0 - - -;
#X obj -1036 1298 receive /gfx/Body/Graphics;
#X msg -861 992 /gfx/Body/Gradient 60 0 355.749 0 250.614;
#X obj -1084 908 pack 60 0 50 0 0-------;
#X msg -981 1387 /gfx/Body/Graphics 0.1 0.1 255 241;
#X msg -1034 1257 \; /gfx/Body/Graphics \$1 \$2 \$3 \$4;
#X msg -1036 1326 /gfx/Body/Graphics \$1 \$2 \$3 \$4;
#X obj -1035 1227 pack 0 0 0 0;
#X msg -700 1267 /gfx/Body/Position \$1 \$2 \$3;
#X obj -703 1238 pack 0 0 0-------;
#X msg -1084 937 /gfx/Body/Gradient \$1 \$2 \$3 \$4 \$5;
#X obj -1061 473 prepend set;
#X msg -1061 512 /gfx/World/Graphics 0 0 0.519813 1 0 0 0 0 0;
#X obj -1013 1413 r init-world;
#X msg -612 1385 /gfx/Body/Position 0 0 -45;
#X obj -612 1361 r init-world;
#X obj -1062 994 r init-world;
#X obj -1213 493 r init-world;
#N canvas 161 204 836 529 shape-0-blue 0;
#X obj -536 325 outlet;
#X floatatom -521 101 10 0 0 0 - - -;
#X obj -536 23 receive ibi-dev-4-32-nml-smooth;
#X obj -536 66 receive rsa-down-smooth;
#X floatatom -431 142 5 0 0 0 - - -;
#X obj -536 172 gk.scale 0 1 0 255;
#X obj -536 222 gk.spring2 10 0.25;
#X connect 3 0 1 0;
#X connect 3 0 5 0;
#X connect 4 0 5 4;
#X connect 5 0 6 0;
#X connect 6 0 0 0;
#X restore -856 1127 pd shape-0-blue;
#X text -957 1095 modulate Alpha - 42 255;
#X text -1006 1096 255;
#X text -1052 1095 0;
#X text -1094 1094 11;
#X text -1108 618 60;
#X text -1070 657 0;
#X text -1029 696 408;
#X text -1026 742 99;
#X text -992 812 140;
#X text -312 323 THE BACKGROUND HALO - modulate w RSA;
#X text -1106 126 1;
#X text -1072 156 0.62;
#X text -1024 185 0;
#X text -1000 208 0.7;
#X text -965 232 0;
#X text -927 265 0;
#X text -888 291 0;
#X text -867 320 0.74;
#X text -822 352 0;
#X msg -1060 538 /gfx/World/Graphics 1 0.62 0 0.73 0 0 0 0.74 0;
#X msg -1014 1438 /gfx/Body/Graphics 11 0 255 254.92;
#X obj -594 925 scale 0 1 1000 0;
#X msg -589 975;
#X floatatom -597 951 5 0 0 0 - - -;
#X floatatom -588 877 5 0 0 0 - - -;
#X text -421 924 maxlib URL puredata.info/downloads/maxlib;
#N canvas 261 71 1225 584 world-blur 0;
#X obj -113 -369 r ibi-dev-4-32-nml;
#X obj -114 -200 outlet;
#X floatatom -114 -234 5 0 0 0 - - -;
#X obj -114 -335 gk.scale-n-ease 0 1 170 300 10 0.25;
#X msg -221 -310 300 \$1;
#X obj -221 -275 -;
#X connect 0 0 3 0;
#X connect 2 0 1 0;
#X connect 3 0 2 0;
#X connect 4 0 5 0;
#X restore -962 787 pd world-blur;
#N canvas 0 22 266 300 world-diameter 0;
#X obj -1006 -320 r ibi-dev-4-32-nml;
#X obj -1007 -151 outlet;
#X floatatom -1007 -185 5 0 0 0 - - -;
#X obj -1007 -286 gk.scale-n-ease 0 1 200 450 10 0.25;
#X connect 0 0 3 0;
#X connect 2 0 1 0;
#X connect 3 0 2 0;
#X restore -1008 675 pd world-diameter;
#X msg -1062 1025 /gfx/Body/Gradient 60 0 258.61 0 200.139;
#X text -1043 209 pulse;
#N canvas 0 22 882 743 world-alpha-gradient 0;
#X obj -641 -554 r pulse-out;
#X obj -555 -554 r pulse-in;
#X obj -640 -415 outlet;
#X obj -638 -492 scale 0 1 0.2 1;
#X connect 1 0 3 0;
#X connect 3 0 2 0;
#X restore -472 202 pd world-alpha-gradient;
#X text -1137 181 how slow?;
#N canvas 0 22 450 300 world-blue-glow 0;
#X obj 34 -140 r how-slow-32;
#X obj 33 -96 gk.scale-n-ease 0 1 0 1 7 0.25;
#X obj 33 -18 outlet;
#X connect 0 0 1 0;
#X connect 1 0 2 0;
#X restore -1205 149 pd world-blue-glow;
#X connect 0 0 11 0;
#X connect 1 0 5 0;
#X connect 1 0 11 1;
#X connect 2 0 5 0;
#X connect 2 0 11 2;
#X connect 3 0 5 0;
#X connect 3 0 11 4;
#X connect 4 0 5 0;
#X connect 4 0 11 5;
#X connect 5 0 11 0;
#X connect 6 0 5 0;
#X connect 6 0 11 6;
#X connect 7 0 5 0;
#X connect 7 0 11 7;
#X connect 8 0 5 0;
#X connect 8 0 13 0;
#X connect 9 0 12 0;
#X connect 9 0 51 0;
#X connect 10 0 5 0;
#X connect 10 0 11 3;
#X connect 11 0 9 0;
#X connect 13 0 11 8;
#X connect 14 0 31 0;
#X connect 15 0 32 0;
#X connect 16 0 18 0;
#X connect 16 0 43 2;
#X connect 17 0 18 0;
#X connect 17 0 43 4;
#X connect 18 0 43 0;
#X connect 19 0 18 0;
#X connect 19 0 43 3;
#X connect 21 0 42 0;
#X connect 23 0 26 0;
#X connect 23 0 47 2;
#X connect 24 0 26 0;
#X connect 24 0 47 0;
#X connect 25 0 26 0;
#X connect 25 0 47 1;
#X connect 26 0 47 0;
#X connect 27 0 44 0;
#X connect 28 0 26 0;
#X connect 28 0 47 3;
#X connect 31 0 18 0;
#X connect 31 0 43 0;
#X connect 32 0 18 0;
#X connect 32 0 43 1;
#X connect 33 0 49 0;
#X connect 34 0 35 0;
#X connect 34 0 49 1;
#X connect 35 0 49 0;
#X connect 36 0 37 0;
#X connect 37 0 38 0;
#X connect 40 0 35 0;
#X connect 40 0 49 2;
#X connect 41 0 46 0;
#X connect 43 0 50 0;
#X connect 46 0 27 0;
#X connect 46 0 30 0;
#X connect 47 0 45 0;
#X connect 48 0 36 0;
#X connect 48 0 38 0;
#X connect 49 0 48 0;
#X connect 50 0 21 0;
#X connect 50 0 22 0;
#X connect 51 0 52 0;
#X connect 53 0 79 0;
#X connect 54 0 38 0;
#X connect 55 0 54 0;
#X connect 56 0 87 0;
#X connect 57 0 78 0;
#X connect 78 0 12 0;
#X connect 79 0 30 0;
#X connect 80 0 82 0;
#X connect 83 0 80 0;
#X connect 85 0 17 0;
#X connect 86 0 16 0;
#X connect 87 0 22 0;
#X connect 89 0 10 0;
#X connect 91 0 2 0;
#X restore -670 -1509 pd WORLD--------------------------------;
#N canvas 19 22 1285 752 WORLD-ROTATION----------------------- 0;
#X floatatom -1328 -1038 8 -360 360 1 Arg_0_rotX - -;
#X obj -1301 -976 t b;
#X obj -1317 -634 send packOSC;
#X floatatom -995 -1035 8 -360 360 1 Arg_0_rotZ - -;
#X floatatom -1159 -1026 8 -360 360 1 Arg_0_rotY - -;
#X floatatom -1302 -934 8 -360 360 1 Arg_0_rotY - -;
#X floatatom -1273 -898 8 -360 360 1 Arg_0_rotZ - -;
#X floatatom -1159 -942 8 -360 360 1 Arg_0_rotX - -;
#X floatatom -1125 -892 8 -360 360 1 Arg_0_rotZ - -;
#X floatatom -994 -942 8 -360 360 1 Arg_0_rotX - -;
#X floatatom -976 -893 8 -360 360 1 Arg_0_rotY - -;
#X obj -1159 -985 t b;
#X obj -996 -991 t b;
#X obj -1238 -753 prepend set;
#X msg -1238 -720 /gfx/World/State 0 0 46 1;
#X msg -843 -1218 1;
#X obj -843 -1173 counter 3599;
#X obj -844 -1144 * 0.1;
#X obj -843 -1241 loadbang;
#X obj -843 -1196 metro 40;
#X obj -1330 -840 pack 0 0 0 0----------------;
#X obj -632 -773 send packOSC;
#X obj -540 -750 prepend set;
#X floatatom -635 -964 5 0 1 1 Debug_on_(1)_or_off_(2) - -;
#X msg -540 -717 /gfx/World/Debug 1;
#X msg -632 -808 /gfx/World/Debug \$1;
#X obj -632 -837 pack 0 ----------------;
#X msg -1330 -811 /gfx/World/State \$1 \$2 \$3;
#X connect 0 0 1 0;
#X connect 0 0 20 0;
#X connect 1 0 5 0;
#X connect 1 0 6 0;
#X connect 3 0 12 0;
#X connect 3 0 20 2;
#X connect 4 0 11 0;
#X connect 4 0 20 1;
#X connect 5 0 20 1;
#X connect 6 0 20 2;
#X connect 7 0 20 0;
#X connect 8 0 20 2;
#X connect 9 0 20 0;
#X connect 10 0 20 1;
#X connect 11 0 7 0;
#X connect 11 0 8 0;
#X connect 12 0 9 0;
#X connect 12 0 10 0;
#X connect 13 0 14 0;
#X connect 14 0 2 0;
#X connect 15 0 19 0;
#X connect 16 0 17 0;
#X connect 18 0 15 0;
#X connect 19 0 16 0;
#X connect 20 0 27 0;
#X connect 22 0 24 0;
#X connect 23 0 26 0;
#X connect 25 0 21 0;
#X connect 25 0 22 0;
#X connect 26 0 25 0;
#X connect 27 0 2 0;
#X connect 27 0 13 0;
#X restore -671 -1484 pd WORLD-ROTATION-----------------------;
#N canvas 146 98 1534 839 shape-4 0;
#X floatatom -930 -219 5 3 120 1 Arg_1_[numSides]_from_triangle_to_sphere_(int_3-60)
- -;
#X floatatom -901 -180 5 0 2 1 Arg_2_[shapeType]_whit_type_of_gradient_is_used_(fint_0-2)
- -;
#X floatatom -874 -137 8 0 1000 1 Arg_3_[diamter]_width_(float_0-1000)
- -;
#X floatatom -818 -67 8 0.3 1000 1 Arg_5_[blur]_how_fuzzy_are_the_edges?_(float_0-diameter/2)
- -;
#X obj -973 37 t b;
#X floatatom -846 -97 8 0 10000 1 Arg_4_[thickness]_ring_thickness_(float_0-diameter/2)
- -;
#X text -838 -120 comment;
#X obj -819 176 prepend set;
#X msg -819 209 /gfx/Shapes/Gradient 4 120 1 350.927 6 3;
#X obj -930 285 send packOSC;
#X text -1084 -102 AllParticles/Gradient;
#X floatatom -1297 -222 5 0 255 2 blue - -;
#X floatatom -1381 -226 5 0.1 255 2 red - -;
#X floatatom -1340 -223 5 0.1 255 2 green - -;
#X obj -1326 -148 t b;
#X obj -1271 4 prepend set;
#X msg -1270 37 /gfx/Shapes/Graphics 3 255 255 255 42.9367;
#X text -1391 -287 Jason - what range 255 or 1000?;
#X floatatom -1254 -223 5 0 255 2 alpha - -;
#X text -1337 145 if this patch is loaded in OSX - then the iOS code
will not receive any mesages NOT sent by OSC. i.e. 'send' objects dont
talk to the iOS code \, outside of the libpd code???;
#X obj -1327 120 send packOSC;
#X obj -1327 -52 receive /gfx/Shapes/Graphics;
#X msg -1327 -23 /gfx/Shapes/Graphics \$1 \$2 \$3 \$4 \$5;
#X obj -941 -146 int;
#X obj -914 -137 int;
#X floatatom -348 -67 5 -1000 1000 0 - - -;
#X floatatom -261 -88 5 -1000 1000 0 - - -;
#X obj -384 -18 t b;
#X obj -273 126 prepend set;
#X msg -273 159 /gfx/Shapes/Position 4 0 0 0;
#X obj -383 238 send packOSC;
#X text -579 -117 AllParticles/Gradient;
#X text -252 -100 comment;
#X floatatom -170 -67 8 -1000 1000 0 - - -;
#X obj -1308 71 r init-2;
#X obj -917 238 r init-2;
#X obj -363 193 r init-2;
#X msg -1326 -92 \; /gfx/Shapes/Graphics 4 \$2 \$3 \$4 \$5;
#X msg -930 98 /gfx/Shapes/Gradient 4 \$2 \$3 \$4 \$5 \$6;
#X msg -384 48 /gfx/Shapes/Position 4 \$2 \$3 \$4;
#X msg -370 215 /gfx/Shapes/Position 4 0 4 0;
#X msg -918 262 /gfx/Shapes/Gradient 4 60 1 503 9 5.3;
#X msg -1310 94 /gfx/Shapes/Graphics 4 255 255 255 2;
#X obj -384 -229 delay 15;
#X obj -1186 -222 delay 30;
#X obj -974 -327 r init-shape-4;
#N canvas 0 22 450 300 throb 0;
#X obj -1251 -372 line;
#X obj -1325 -491 t b b;
#X obj -1326 -521 r heart-ibi;
#X obj -1249 -287 outlet;
#X obj -1247 -312 clip 0 255;
#X obj -1323 -453 delay 200;
#X obj -1251 -392 pack f 100;
#X msg -1325 -427 1;
#X msg -1242 -445 0;
#X obj -1250 -343 gk.scale-n-ease 0 1 20 66 1 0.24;
#X connect 0 0 9 0;
#X connect 1 0 5 0;
#X connect 1 1 8 0;
#X connect 2 0 1 0;
#X connect 4 0 3 0;
#X connect 5 0 7 0;
#X connect 6 0 0 0;
#X connect 7 0 6 0;
#X connect 8 0 6 0;
#X connect 9 0 4 0;
#X restore -1172 -305 pd throb;
#N canvas 466 152 836 529 diameter 0;
#X obj -536 341 outlet;
#X obj -538 224 gk.spring2 10 0.25;
#X obj -537 137 r how-slow-32;
#X floatatom -531 273 5 0 0 0 - - -;
#X obj -538 189 scale 0 1 240 500 0.08;
#X connect 1 0 3 0;
#X connect 2 0 4 0;
#X connect 3 0 0 0;
#X connect 4 0 1 0;
#X restore -816 -162 pd diameter;
#X obj -930 69 pack 2 120 1 200 6 3;
#X obj -384 19 pack 4 0 0 0-------;
#X obj -1326 -123 pack 0 0 100 150 20;
#X connect 0 0 23 0;
#X connect 1 0 24 0;
#X connect 2 0 4 0;
#X connect 2 0 48 3;
#X connect 3 0 4 0;
#X connect 3 0 48 5;
#X connect 4 0 48 0;
#X connect 5 0 4 0;
#X connect 5 0 48 4;
#X connect 7 0 8 0;
#X connect 11 0 14 0;
#X connect 11 0 50 3;
#X connect 12 0 14 0;
#X connect 12 0 50 1;
#X connect 13 0 14 0;
#X connect 13 0 50 2;
#X connect 14 0 50 0;
#X connect 15 0 16 0;
#X connect 18 0 14 0;
#X connect 18 0 50 4;
#X connect 21 0 22 0;
#X connect 22 0 15 0;
#X connect 22 0 20 0;
#X connect 23 0 4 0;
#X connect 23 0 48 1;
#X connect 24 0 4 0;
#X connect 24 0 48 2;
#X connect 25 0 27 0;
#X connect 25 0 49 1;
#X connect 26 0 27 0;
#X connect 26 0 49 2;
#X connect 27 0 49 0;
#X connect 28 0 29 0;
#X connect 33 0 27 0;
#X connect 33 0 49 3;
#X connect 34 0 42 0;
#X connect 35 0 41 0;
#X connect 36 0 40 0;
#X connect 38 0 7 0;
#X connect 38 0 9 0;
#X connect 39 0 28 0;
#X connect 39 0 30 0;
#X connect 40 0 30 0;
#X connect 41 0 9 0;
#X connect 42 0 20 0;
#X connect 43 0 27 0;
#X connect 44 0 14 0;
#X connect 45 0 43 0;
#X connect 45 0 44 0;
#X connect 45 0 4 0;
#X connect 46 0 18 0;
#X connect 47 0 2 0;
#X connect 48 0 38 0;
#X connect 49 0 39 0;
#X connect 50 0 37 0;
#X restore -1439 -1404 pd shape-4;
#N canvas 249 22 1391 742 shape-1 0;
#X floatatom -939 -216 5 3 60 1 Arg_1_[numSides]_from_triangle_to_sphere_(int_3-60)
- -;
#X floatatom -901 -180 5 0 2 1 Arg_2_[shapeType]_whit_type_of_gradient_is_used_(fint_0-2)
- -;
#X floatatom -876 -130 8 0 1000 1 Arg_3_[diamter]_width_(float_0-1000)
- -;
#X floatatom -820 -67 8 0.3 1000 1 Arg_5_[blur]_how_fuzzy_are_the_edges?_(float_0-diameter/2)
- -;
#X obj -973 37 t b;
#X floatatom -846 -97 8 -100 100 1 Arg_4_[thickness]_ring_thickness_(float_0-diameter/2)
- -;
#X text -838 -120 comment;
#X obj -930 285 send packOSC;
#X floatatom -1239 -212 5 0 255 2 blue - -;
#X floatatom -1326 -213 5 0.1 255 2 red - -;
#X floatatom -1282 -213 5 0.1 255 2 green - -;
#X obj -1326 -148 t b;
#X floatatom -1190 -213 5 0 255 2 alpha - -;
#X text -1337 145 if this patch is loaded in OSX - then the iOS code
will not receive any mesages NOT sent by OSC. i.e. 'send' objects dont
talk to the iOS code \, outside of the libpd code???;
#X obj -1327 120 send packOSC;
#X obj -1327 -52 receive /gfx/Shapes/Graphics;
#X msg -1327 -23 /gfx/Shapes/Graphics \$1 \$2 \$3 \$4 \$5;
#X obj -941 -146 int;
#X obj -914 -137 int;
#X floatatom -348 -67 5 -1000 1000 0 - - -;
#X floatatom -284 -68 5 -1000 1000 0 - - -;
#X obj -385 -18 t b;
#X obj -383 238 send packOSC;
#X floatatom -228 -64 8 -1000 1000 0 - - -;
#X msg -1326 -92 \; /gfx/Shapes/Graphics 1 \$2 \$3 \$4 \$5;
#X msg -384 48 /gfx/Shapes/Position 1 \$2 \$3 \$4;
#N canvas 844 253 836 529 diameter 0;
#X obj -531 345 outlet;
#X floatatom -521 101 5 0 0 0 - - -;
#X obj -538 224 gk.spring2 20 0.25;
#X obj -550 25 r ibi-dev-4-32-nml;
#X obj -536 172 scale 0 1 40 500 -0.08;
#X connect 2 0 0 0;
#X connect 3 0 4 0;
#X connect 4 0 2 0;
#X restore -876 -162 pd diameter;
#X msg -1310 94 /gfx/Shapes/Graphics 1 0 0 22 29;
#X msg -930 98 /gfx/Shapes/Gradient 1 \$2 \$3 \$4 \$5 \$6;
#X obj -384 19 pack 0 0 0 0-------;
#X obj -1308 71 r init-shape-1;
#X text -244 -126 comment;
#X obj -971 -280 r init-shape-1;
#X obj -388 -218 delay 15;
#X obj -1129 -211 delay 30;
#X obj -930 69 pack 0 60 2 200 41 0.3-------;
#X obj -1326 -123 pack 0 164 235 241 3;
#X connect 0 0 17 0;
#X connect 1 0 18 0;
#X connect 2 0 4 0;
#X connect 2 0 35 3;
#X connect 3 0 4 0;
#X connect 3 0 35 5;
#X connect 4 0 35 0;
#X connect 5 0 4 0;
#X connect 5 0 35 4;
#X connect 8 0 11 0;
#X connect 8 0 36 3;
#X connect 9 0 11 0;
#X connect 9 0 36 1;
#X connect 10 0 11 0;
#X connect 10 0 36 2;
#X connect 11 0 36 0;
#X connect 12 0 11 0;
#X connect 12 0 36 4;
#X connect 15 0 16 0;
#X connect 16 0 14 0;
#X connect 17 0 4 0;
#X connect 17 0 35 1;
#X connect 18 0 4 0;
#X connect 18 0 35 2;
#X connect 19 0 21 0;
#X connect 19 0 29 1;
#X connect 20 0 21 0;
#X connect 20 0 29 2;
#X connect 21 0 29 0;
#X connect 23 0 21 0;
#X connect 23 0 29 3;
#X connect 25 0 22 0;
#X connect 26 0 2 0;
#X connect 27 0 14 0;
#X connect 28 0 7 0;
#X connect 29 0 25 0;
#X connect 30 0 27 0;
#X connect 32 0 33 0;
#X connect 32 0 34 0;
#X connect 32 0 4 0;
#X connect 33 0 21 0;
#X connect 34 0 11 0;
#X connect 35 0 28 0;
#X connect 36 0 24 0;
#X restore -1439 -1481 pd shape-1;
#N canvas 111 46 1440 742 shape-0 0;
#X floatatom -906 -248 5 3 120 1 Arg_1_[numSides]_from_triangle_to_sphere_(int_3-60)
- -;
#X floatatom -902 -184 5 0 2 1 Arg_2_[shapeType]_whit_type_of_gradient_is_used_(fint_0-2)
- -;
#X floatatom -857 -145 8 0 1000 1 Arg_3_[diamter]_width_(float_0-1000)
- -;
#X floatatom -768 37 8 0 1000 1 Arg_5_[blur]_how_fuzzy_are_the_edges?_(float_0-diameter/2)
- -;
#X obj -947 97 t b;
#X floatatom -846 -96 8 -1000 10000 1 Arg_4_[thickness]_ring_thickness_(float_0-diameter/2)
- -;
#X text -838 -120 comment;
#X obj -819 176 prepend set;
#X msg -819 209 /gfx/Shapes/Gradient 0 0 1 123.6 2 24.5931;
#X obj -930 285 send packOSC;
#X text -1084 -102 AllParticles/Gradient;
#X floatatom -1204 -221 5 0 255 2 blue - -;
#X floatatom -1291 -222 5 0.1 255 2 red - -;
#X floatatom -1247 -222 5 0.1 255 2 green - -;
#X obj -1326 -148 t b;
#X floatatom -1163 -219 5 0 255 2 alpha - -;
#X text -1337 145 if this patch is loaded in OSX - then the iOS code
will not receive any mesages NOT sent by OSC. i.e. 'send' objects dont
talk to the iOS code \, outside of the libpd code???;
#X obj -1327 120 send packOSC;
#X obj -1327 -52 receive /gfx/Shapes/Graphics;
#X msg -1327 -23 /gfx/Shapes/Graphics \$1 \$2 \$3 \$4 \$5;
#X obj -941 -146 int;
#X obj -914 -137 int;
#X floatatom -333 -57 5 -1000 1000 0 - - -;
#X floatatom -293 -57 5 -1000 1000 0 - - -;
#X obj -383 -19 t b;
#X obj -273 102 prepend set;
#X msg -273 159 /gfx/Shapes/Position 0 0 0 0;
#X obj -383 238 send packOSC;
#X text -579 -117 AllParticles/Gradient;
#X floatatom -245 -57 8 -1000 1000 0 - - -;
#X msg -1326 -92 \; /gfx/Shapes/Graphics 0 \$2 \$3 \$4 \$5;
#X msg -929 148 /gfx/Shapes/Gradient 0 \$2 \$3 \$4 \$5 \$6;
#X msg -384 48 /gfx/Shapes/Position 0 \$2 \$3 \$4;
#N canvas 161 204 278 444 diameter 0;
#X obj -531 345 outlet;
#X obj -546 66 receive rsa-down-smooth;
#X floatatom -420 141 5 0 0 0 - - -;
#X obj -538 224 gk.spring2 10 0.25;
#X obj -536 172 scale 0 1 120 600 0.08;
#X connect 1 0 4 0;
#X connect 2 0 4 4;
#X connect 3 0 0 0;
#X connect 4 0 3 0;
#X restore -871 -167 pd diameter;
#X msg -270 208 /gfx/Shapes/Position 0 0 0 0;
#N canvas 161 204 836 529 shape-0-blue 0;
#X obj -536 325 outlet;
#X floatatom -521 101 10 0 0 0 - - -;
#X obj -536 23 receive ibi-dev-4-32-nml-smooth;
#X obj -536 66 receive rsa-down-smooth;
#X obj -536 172 gk.scale-n-ease 0 1 100 255 10 0.25;
#X connect 3 0 1 0;
#X connect 3 0 4 0;
#X connect 4 0 0 0;
#X restore -1211 -264 pd shape-0-blue;
#N canvas 161 204 836 529 shape-0-alpha 0;
#X obj -537 421 outlet;
#X floatatom -521 101 10 0 0 0 - - -;
#X obj -536 23 receive ibi-dev-4-32-nml-smooth;
#X obj -536 66 receive rsa-down-smooth;
#X floatatom -431 142 5 0 0 0 - - -;
#X obj -536 222 gk.spring2 10 0.25;
#X floatatom -513 199 5 0 0 0 - - -;
#X obj -422 306 *;
#X obj -536 172 gk.scale 0 2 25 255;
#X obj -336 186 receive rsa-down-smooth;
#X obj -341 233 gk.scale 0 2 0 1;
#X connect 3 0 1 0;
#X connect 3 0 8 0;
#X connect 4 0 8 4;
#X connect 5 0 7 0;
#X connect 7 0 0 0;
#X connect 8 0 5 0;
#X connect 8 0 6 0;
#X connect 9 0 10 0;
#X connect 10 0 7 1;
#X restore -1103 -269 pd shape-0-alpha;
#X obj -271 183 r init-shape-0;
#X obj -917 238 r init-shape-0;
#X obj -1308 71 r init-shape-0;
#X msg -1310 95 /gfx/Shapes/Graphics 0 19.1 33.1 0 255;
#X msg -918 262 /gfx/Shapes/Gradient 0 60 0 138 15 116;
#N canvas 404 369 836 529 shape-0-blur 0;
#X obj -536 325 outlet;
#X obj -536 23 receive ibi-dev-4-32-nml-smooth;
#X obj -536 66 receive rsa-down-smooth;
#X floatatom -431 142 5 0 0 0 - - -;
#X obj -536 172 gk.scale 0 1 75 100;
#X obj -536 273 gk.spring2 10 0.25;
#X msg -536 213 100 \$1;
#X obj -536 234 -;
#X msg -457 115;
#X floatatom -504 108 5 0 0 0 - - -;
#X connect 2 0 4 0;
#X connect 2 0 9 0;
#X connect 3 0 4 4;
#X connect 4 0 6 0;
#X connect 5 0 0 0;
#X connect 6 0 7 0;
#X connect 7 0 5 0;
#X restore -792 8 pd shape-0-blur;
#X obj -384 19 pack 0 0 0 0;
#X obj -929 119 pack 0 120 1 113.005 2 23.176 -------;
#X obj -934 -388 r init-shape-1;
#X obj -382 -303 delay 15;
#X obj -1322 -292 delay 30;
#X obj -1326 -123 pack 0 136 100 9 1.6;
#X text -931 -454 THIN WHITE RING THAT MOVES WITH BRETH-RELATED;
#X text -934 -423 CHANGES IN HEART RATE;
#X connect 0 0 20 0;
#X connect 1 0 21 0;
#X connect 2 0 4 0;
#X connect 2 0 44 3;
#X connect 3 0 4 0;
#X connect 3 0 44 5;
#X connect 4 0 44 0;
#X connect 5 0 4 0;
#X connect 5 0 44 4;
#X connect 7 0 8 0;
#X connect 11 0 14 0;
#X connect 11 0 48 3;
#X connect 12 0 14 0;
#X connect 12 0 48 1;
#X connect 13 0 14 0;
#X connect 13 0 48 2;
#X connect 14 0 48 0;
#X connect 15 0 14 0;
#X connect 15 0 48 4;
#X connect 18 0 19 0;
#X connect 19 0 17 0;
#X connect 20 0 4 0;
#X connect 20 0 44 1;
#X connect 21 0 4 0;
#X connect 21 0 44 2;
#X connect 22 0 24 0;
#X connect 22 0 43 1;
#X connect 23 0 24 0;
#X connect 23 0 43 2;
#X connect 24 0 43 0;
#X connect 25 0 26 0;
#X connect 29 0 24 0;
#X connect 29 0 43 3;
#X connect 31 0 7 0;
#X connect 31 0 9 0;
#X connect 32 0 25 0;
#X connect 32 0 27 0;
#X connect 33 0 4 0;
#X connect 33 0 44 3;
#X connect 34 0 27 0;
#X connect 35 0 13 0;
#X connect 36 0 15 0;
#X connect 37 0 34 0;
#X connect 38 0 41 0;
#X connect 39 0 40 0;
#X connect 40 0 17 0;
#X connect 41 0 9 0;
#X connect 42 0 4 0;
#X connect 42 0 44 5;
#X connect 43 0 32 0;
#X connect 44 0 31 0;
#X connect 45 0 46 0;
#X connect 45 0 47 0;
#X connect 45 0 20 0;
#X connect 46 0 24 0;
#X connect 47 0 14 0;
#X connect 48 0 30 0;
#X restore -1439 -1506 pd shape-0;
#N canvas 146 98 1534 839 shape-5 0;
#X floatatom -897 -226 5 3 60 1 Arg_1_[numSides]_from_triangle_to_sphere_(int_3-60)
- -;
#X floatatom -865 -176 5 0 2 1 Arg_2_[shapeType]_whit_type_of_gradient_is_used_(fint_0-2)
- -;
#X floatatom -838 -133 8 0 1000 1 Arg_3_[diamter]_width_(float_0-1000)
- -;
#X floatatom -782 -63 8 0.3 1000 1 Arg_5_[blur]_how_fuzzy_are_the_edges?_(float_0-diameter/2)
- -;
#X obj -930 8 t b;
#X floatatom -810 -93 8 0 10000 1 Arg_4_[thickness]_ring_thickness_(float_0-diameter/2)
- -;
#X text -802 -116 comment;
#X obj -819 176 prepend set;
#X msg -819 209 /gfx/Shapes/Gradient 5 60 0 50 0 0;
#X obj -930 285 send packOSC;
#X floatatom -1298 -219 5 0 255 2 blue - -;
#X floatatom -1384 -223 5 0.1 255 2 red - -;
#X floatatom -1340 -223 5 0.1 255 2 green - -;
#X obj -1326 -148 t b;
#X text -1391 -287 Jason - what range 255 or 1000?;
#X floatatom -1255 -221 5 0 255 2 alpha - -;
#X text -1337 145 if this patch is loaded in OSX - then the iOS code
will not receive any mesages NOT sent by OSC. i.e. 'send' objects dont
talk to the iOS code \, outside of the libpd code???;
#X obj -1327 120 send packOSC;
#X obj -1327 -52 receive /gfx/Shapes/Graphics;
#X msg -1327 -23 /gfx/Shapes/Graphics \$1 \$2 \$3 \$4 \$5;
#X obj -930 69 pack 0 60 0 50 0 0-------;
#X obj -905 -142 int;
#X obj -878 -133 int;
#X floatatom -348 -67 5 -1000 1000 0 - - -;
#X floatatom -261 -88 5 -1000 1000 0 - - -;
#X obj -386 -19 t b;
#X obj -273 126 prepend set;
#X msg -273 159 /gfx/Shapes/Position 5 0 117 0;
#X obj -383 238 send packOSC;
#X text -252 -100 comment;
#X floatatom -170 -67 8 -1000 1000 0 - - -;
#X obj -1308 71 r init-2;
#X obj -917 238 r init-2;
#X obj -363 193 r init-2;
#X msg -1310 94 /gfx/Shapes/Graphics 5 255 255 255 2;
#X msg -930 98 /gfx/Shapes/Gradient 5 \$2 \$3 \$4 \$5 \$6;
#X msg -384 48 /gfx/Shapes/Position 5 \$2 \$3 \$4;
#X msg -370 215 /gfx/Shapes/Position 5 0 4 0;
#X msg -918 262 /gfx/Shapes/Gradient 5 60 1 503 9 5.3;
#X msg -1326 -92 \; /gfx/Shapes/Graphics 5 \$2 \$3 \$4 \$5;
#X obj -399 -232 delay 15;
#X obj -1114 -231 delay 30;
#X obj -902 -336 r init-shape-5;
#X obj -384 19 pack 0 0 117 0-------;
#X obj -1326 -123 pack 0 245 0 0 34;
#N canvas 0 22 600 425 throb 0;
#X obj -1251 -372 line;
#X obj -1325 -491 t b b;
#X obj -1326 -521 r heart-ibi;
#X obj -1249 -287 outlet;
#X obj -1251 -392 pack f 250;
#X msg -1325 -427 1;
#X obj -1250 -343 gk.scale-n-ease 0 1 40 66 2 0.4;
#X msg -1251 -453 -1;
#X obj -1325 -453 delay 50;
#X connect 0 0 6 0;
#X connect 1 0 8 0;
#X connect 1 1 7 0;
#X connect 2 0 1 0;
#X connect 4 0 0 0;
#X connect 5 0 4 0;
#X connect 6 0 3 0;
#X connect 7 0 4 0;
#X connect 8 0 5 0;
#X restore -1251 -263 pd throb;
#N canvas 569 155 600 425 blue 0;
#X obj -1023 -53 outlet;
#X obj -1105 -377 r how-slow-32;
#X floatatom -1048 -337 5 0 0 0 - - -;
#X obj -1008 -232 scale 0.47 0.75 0 255 2 0.4 0;
#X obj -1019 -95 clip 0 255;
#X connect 1 0 2 0;
#X connect 1 0 3 0;
#X connect 3 0 4 0;
#X connect 4 0 0 0;
#X restore -1313 -267 pd blue;
#X connect 0 0 21 0;
#X connect 1 0 22 0;
#X connect 2 0 4 0;
#X connect 2 0 20 3;
#X connect 3 0 4 0;
#X connect 3 0 20 5;
#X connect 4 0 20 0;
#X connect 5 0 4 0;
#X connect 5 0 20 4;
#X connect 7 0 8 0;
#X connect 10 0 13 0;
#X connect 10 0 44 3;
#X connect 11 0 13 0;
#X connect 11 0 44 1;
#X connect 12 0 13 0;
#X connect 12 0 44 2;
#X connect 13 0 44 0;
#X connect 15 0 13 0;
#X connect 15 0 44 4;
#X connect 18 0 19 0;
#X connect 19 0 17 0;
#X connect 20 0 35 0;
#X connect 21 0 4 0;
#X connect 21 0 20 1;
#X connect 22 0 20 2;
#X connect 22 0 4 0;
#X connect 23 0 25 0;
#X connect 23 0 43 1;
#X connect 24 0 25 0;
#X connect 24 0 43 2;
#X connect 25 0 43 0;
#X connect 26 0 27 0;
#X connect 30 0 25 0;
#X connect 30 0 43 3;
#X connect 31 0 34 0;
#X connect 32 0 38 0;
#X connect 33 0 37 0;
#X connect 34 0 17 0;
#X connect 35 0 7 0;
#X connect 35 0 9 0;
#X connect 36 0 26 0;
#X connect 36 0 28 0;
#X connect 37 0 28 0;
#X connect 38 0 9 0;
#X connect 40 0 25 0;
#X connect 41 0 13 0;
#X connect 42 0 40 0;
#X connect 42 0 41 0;
#X connect 42 0 4 0;
#X connect 43 0 36 0;
#X connect 44 0 39 0;
#X connect 45 0 15 0;
#X connect 46 0 10 0;
#X restore -1438 -1378 pd shape-5;
#N canvas 146 98 1534 839 shape-6 0;
#X floatatom -871 -217 5 3 120 1 Arg_1_[numSides]_from_triangle_to_sphere_(int_3-60)
- -;
#X floatatom -842 -178 5 0 2 1 Arg_2_[shapeType]_whit_type_of_gradient_is_used_(fint_0-2)
- -;
#X floatatom -817 -132 8 0 1000 1 Arg_3_[diamter]_width_(float_0-1000)
- -;
#X floatatom -759 -65 8 0.3 1000 1 Arg_5_[blur]_how_fuzzy_are_the_edges?_(float_0-diameter/2)
- -;
#X obj -931 12 t b;
#X floatatom -787 -95 8 0 10000 1 Arg_4_[thickness]_ring_thickness_(float_0-diameter/2)
- -;
#X obj -819 176 prepend set;
#X msg -819 209 /gfx/Shapes/Gradient 6 120 1 52.1417 6 0;
#X obj -930 285 send packOSC;
#X floatatom -1297 -222 5 0 255 2 blue - -;
#X floatatom -1384 -223 5 0.1 255 2 red - -;
#X floatatom -1340 -223 5 0.1 255 2 green - -;
#X obj -1326 -148 t b;
#X text -1391 -287 Jason - what range 255 or 1000?;
#X floatatom -1252 -211 5 0 255 2 alpha - -;
#X text -1337 145 if this patch is loaded in OSX - then the iOS code
will not receive any mesages NOT sent by OSC. i.e. 'send' objects dont
talk to the iOS code \, outside of the libpd code???;
#X obj -1327 120 send packOSC;
#X obj -1327 -52 receive /gfx/Shapes/Graphics;
#X msg -1327 -23 /gfx/Shapes/Graphics \$1 \$2 \$3 \$4 \$5;
#X obj -1326 -123 pack 0 0 0 0 0;
#X obj -882 -144 int;
#X obj -855 -135 int;
#X floatatom -348 -67 5 -1000 1000 0 - - -;
#X floatatom -261 -88 5 -1000 1000 0 - - -;
#X obj -383 -24 t b;
#X obj -273 126 prepend set;
#X msg -273 159 /gfx/Shapes/Position 6 0 0 0;
#X obj -383 238 send packOSC;
#X text -252 -100 comment;
#X floatatom -170 -67 8 -1000 1000 0 - - -;
#X obj -1308 71 r init-2;
#X obj -917 238 r init-2;
#X obj -363 193 r init-2;
#X msg -1326 -92 \; /gfx/Shapes/Graphics 6 \$2 \$3 \$4 \$5;
#X msg -1310 94 /gfx/Shapes/Graphics 6 255 255 255 2;
#X msg -930 98 /gfx/Shapes/Gradient 6 \$2 \$3 \$4 \$5 \$6;
#X msg -917 262 /gfx/Shapes/Gradient 6 60 1 503 9 5.3;
#X msg -370 215 /gfx/Shapes/Position 6 0 4 0;
#X msg -384 48 /gfx/Shapes/Position 6 \$2 \$3 \$4;
#X obj -364 -209 delay 15;
#X obj -1166 -202 delay 30;
#X obj -950 -307 r init-shape-6;
#X obj -384 19 pack 0 0 0 0;
#X obj -930 69 pack 0 120 1 324 6 3-------;
#N canvas 161 204 325 411 diameter 0;
#X obj -531 345 outlet;
#X obj -546 66 receive rsa-down-smooth;
#X floatatom -420 141 5 0 0 0 - - -;
#X obj -538 224 gk.spring2 10 0.25;
#X obj -536 172 scale 0 1 50 450 0.08;
#X connect 1 0 4 0;
#X connect 2 0 4 4;
#X connect 3 0 0 0;
#X connect 4 0 3 0;
#X restore -817 -154 pd diameter;
#X connect 0 0 20 0;
#X connect 1 0 21 0;
#X connect 2 0 4 0;
#X connect 2 0 43 3;
#X connect 3 0 4 0;
#X connect 3 0 43 5;
#X connect 4 0 43 0;
#X connect 5 0 4 0;
#X connect 5 0 43 4;
#X connect 6 0 7 0;
#X connect 9 0 12 0;
#X connect 9 0 19 3;
#X connect 10 0 12 0;
#X connect 10 0 19 1;
#X connect 11 0 12 0;
#X connect 11 0 19 2;
#X connect 12 0 19 0;
#X connect 14 0 19 4;
#X connect 14 0 12 0;
#X connect 17 0 18 0;
#X connect 18 0 16 0;
#X connect 19 0 33 0;
#X connect 20 0 4 0;
#X connect 20 0 43 1;
#X connect 21 0 4 0;
#X connect 21 0 43 2;
#X connect 22 0 24 0;
#X connect 22 0 42 1;
#X connect 23 0 24 0;
#X connect 23 0 42 2;
#X connect 24 0 42 0;
#X connect 25 0 26 0;
#X connect 29 0 24 0;
#X connect 29 0 42 3;
#X connect 30 0 34 0;
#X connect 31 0 36 0;
#X connect 32 0 37 0;
#X connect 34 0 16 0;
#X connect 35 0 6 0;
#X connect 35 0 8 0;
#X connect 36 0 8 0;
#X connect 37 0 27 0;
#X connect 38 0 25 0;
#X connect 38 0 27 0;
#X connect 39 0 24 0;
#X connect 40 0 12 0;
#X connect 41 0 39 0;
#X connect 41 0 40 0;
#X connect 41 0 4 0;
#X connect 42 0 38 0;
#X connect 43 0 35 0;
#X connect 44 0 2 0;
#X restore -1438 -1352 pd shape-6;
#N canvas 146 98 1534 839 shape-7 0;
#X floatatom -883 -218 5 3 120 1 Arg_1_[numSides]_from_triangle_to_sphere_(int_3-60)
- -;
#X floatatom -854 -179 5 0 2 1 Arg_2_[shapeType]_whit_type_of_gradient_is_used_(fint_0-2)
- -;
#X floatatom -823 -123 8 0 1000 1 Arg_3_[diamter]_width_(float_0-1000)
- -;
#X floatatom -771 -66 8 0.3 1000 1 Arg_5_[blur]_how_fuzzy_are_the_edges?_(float_0-diameter/2)
- -;
#X obj -930 17 t b;
#X floatatom -799 -96 8 0 10000 1 Arg_4_[thickness]_ring_thickness_(float_0-diameter/2)
- -;
#X obj -819 176 prepend set;
#X msg -819 209 /gfx/Shapes/Gradient 7 120 1 77.7099 4 0;
#X obj -930 285 send packOSC;
#X text -1084 -102 AllParticles/Gradient;
#X floatatom -1297 -222 5 0 255 2 blue - -;
#X floatatom -1384 -223 5 0.1 255 2 red - -;
#X floatatom -1340 -223 5 0.1 255 2 green - -;
#X obj -1326 -148 t b;
#X text -1391 -287 Jason - what range 255 or 1000?;
#X floatatom -1247 -220 5 0 255 2 alpha - -;
#X text -1337 145 if this patch is loaded in OSX - then the iOS code
will not receive any mesages NOT sent by OSC. i.e. 'send' objects dont
talk to the iOS code \, outside of the libpd code???;
#X obj -1327 120 send packOSC;
#X obj -1327 -52 receive /gfx/Shapes/Graphics;
#X msg -1327 -23 /gfx/Shapes/Graphics \$1 \$2 \$3 \$4 \$5;
#X obj -1326 -123 pack 0 0 0 0 0;
#X obj -894 -145 int;
#X obj -867 -136 int;
#X floatatom -343 -67 5 -1000 1000 0 - - -;
#X floatatom -282 -69 5 -1000 1000 0 - - -;
#X obj -384 -19 t b;
#X obj -273 126 prepend set;
#X msg -273 159 /gfx/Shapes/Position 7 0 0 0;
#X obj -383 238 send packOSC;
#X floatatom -236 -68 8 -1000 1000 0 - - -;
#X obj -1308 71 r init-2;
#X obj -917 238 r init-2;
#X obj -363 193 r init-2;
#X msg -917 262 /gfx/Shapes/Gradient 6 60 1 503 9 5.3;
#X msg -1326 -92 \; /gfx/Shapes/Graphics 7 \$2 \$3 \$4 \$5;
#X msg -1310 94 /gfx/Shapes/Graphics 7 255 255 255 2;
#X msg -930 98 /gfx/Shapes/Gradient 7 \$2 \$3 \$4 \$5 \$6;
#X msg -370 215 /gfx/Shapes/Position 7 0 4 0;
#X msg -384 48 /gfx/Shapes/Position 7 \$2 \$3 \$4;
#X obj -384 -200 delay 15;
#X obj -1184 -225 delay 30;
#X obj -930 -301 r init-shape-4;
#X obj -384 19 pack 0 0 0 0;
#X obj -930 69 pack 0 120 1 283 4 6-------;
#N canvas 161 204 325 411 diameter 0;
#X obj -531 345 outlet;
#X obj -546 66 receive rsa-down-smooth;
#X floatatom -420 141 5 0 0 0 - - -;
#X obj -538 224 gk.spring2 10 0.25;
#X obj -536 172 scale 0 1 75 500 0.08;
#X connect 1 0 4 0;
#X connect 2 0 4 4;
#X connect 3 0 0 0;
#X connect 4 0 3 0;
#X restore -776 -155 pd diameter;
#X connect 0 0 21 0;
#X connect 1 0 22 0;
#X connect 2 0 4 0;
#X connect 2 0 43 3;
#X connect 3 0 4 0;
#X connect 3 0 43 5;
#X connect 4 0 43 0;
#X connect 5 0 4 0;
#X connect 5 0 43 4;
#X connect 6 0 7 0;
#X connect 10 0 13 0;
#X connect 10 0 20 3;
#X connect 11 0 13 0;
#X connect 11 0 20 1;
#X connect 12 0 13 0;
#X connect 12 0 20 2;
#X connect 13 0 20 0;
#X connect 15 0 20 4;
#X connect 15 0 13 0;
#X connect 18 0 19 0;
#X connect 19 0 17 0;
#X connect 20 0 34 0;
#X connect 21 0 4 0;
#X connect 21 0 43 1;
#X connect 22 0 4 0;
#X connect 22 0 43 2;
#X connect 23 0 25 0;
#X connect 23 0 42 1;
#X connect 24 0 25 0;
#X connect 24 0 42 2;
#X connect 25 0 42 0;
#X connect 26 0 27 0;
#X connect 29 0 25 0;
#X connect 29 0 42 3;
#X connect 30 0 35 0;
#X connect 31 0 33 0;
#X connect 32 0 37 0;
#X connect 33 0 8 0;
#X connect 35 0 17 0;
#X connect 36 0 6 0;
#X connect 36 0 8 0;
#X connect 37 0 28 0;
#X connect 38 0 26 0;
#X connect 38 0 28 0;
#X connect 39 0 25 0;
#X connect 40 0 13 0;
#X connect 41 0 39 0;
#X connect 41 0 40 0;
#X connect 41 0 4 0;
#X connect 42 0 38 0;
#X connect 43 0 36 0;
#X connect 44 0 2 0;
#X restore -1436 -1328 pd shape-7;
#N canvas 146 98 1534 839 shape-8 0;
#X floatatom -888 -152 5 3 120 1 Arg_1_[numSides]_from_triangle_to_sphere_(int_3-60)
- -;
#X floatatom -865 -130 5 0 2 1 Arg_2_[shapeType]_whit_type_of_gradient_is_used_(fint_0-2)
- -;
#X floatatom -831 -64 8 0 1000 1 Arg_3_[diamter]_width_(float_0-1000)
- -;
#X floatatom -776 4 8 0.3 1000 1 Arg_5_[blur]_how_fuzzy_are_the_edges?_(float_0-diameter/2)
- -;
#X obj -933 87 t b;
#X floatatom -804 -26 8 0 10000 1 Arg_4_[thickness]_ring_thickness_(float_0-diameter/2)
- -;
#X text -796 -49 comment;
#X obj -905 190 prepend set;
#X obj -932 348 send packOSC;
#X text -1086 -39 AllParticles/Gradient;
#X floatatom -1217 -136 5 0 255 2 blue - -;
#X floatatom -1304 -137 5 0.1 255 2 red - -;
#X floatatom -1260 -137 5 0.1 255 2 green - -;
#X obj -1327 -88 t b;
#X text -1393 -224 Jason - what range 255 or 1000?;
#X floatatom -1168 -138 5 0 255 2 alpha - -;
#X text -1339 382 if this patch is loaded in OSX - then the iOS code
will not receive any mesages NOT sent by OSC. i.e. 'send' objects dont
talk to the iOS code \, outside of the libpd code???;
#X obj -1329 357 send packOSC;
#X obj -1329 11 receive /gfx/Shapes/Graphics;
#X msg -1329 40 /gfx/Shapes/Graphics \$1 \$2 \$3 \$4 \$5;
#X obj -899 -75 int;
#X obj -872 -66 int;
#X floatatom -350 -4 5 -1000 1000 0 - - -;
#X floatatom -263 -25 5 -1000 1000 0 - - -;
#X obj -388 52 t b;
#X obj -275 189 prepend set;
#X msg -275 222 /gfx/Shapes/Position 8 0 0 0;
#X obj -375 372 send packOSC;
#X text -581 -54 AllParticles/Gradient;
#X text -254 -37 comment;
#X floatatom -172 -4 8 -1000 1000 0 - - -;
#X msg -1328 -29 \; /gfx/Shapes/Graphics 8 \$2 \$3 \$4 \$5;
#X msg -1312 331 /gfx/Shapes/Graphics 8 255 255 255 2;
#X msg -932 161 /gfx/Shapes/Gradient 8 \$2 \$3 \$4 \$5 \$6;
#X msg -905 223 /gfx/Shapes/Gradient 8 100 1 103.2 12 0;
#X msg -919 325 /gfx/Shapes/Gradient 8 60 1 503 9 5.3;
#X msg -385 111 /gfx/Shapes/Position 8 \$2 \$3 \$4;
#X obj -578 221 r init-8;
#X obj -574 257 t b b b;
#X msg -362 349 /gfx/Shapes/Position 8 0 0 0;
#X obj -346 -126 delay 15;
#X obj -1330 -183 delay 30;
#X obj -936 -224 r init-shape-8;
#X obj -932 132 pack 0 100 1 462 12 12.3-------;
#X obj -386 82 pack 0 0 0 0-------;
#X text -943 -260 A RING THAT EXPANDS WITH EXHALATION-RELATED;
#X text -944 -245 DECREASES IN HEART RATE;
#N canvas 161 204 325 411 diameter 0;
#X obj -531 345 outlet;
#X obj -546 66 receive rsa-down-smooth;
#X floatatom -420 141 5 0 0 0 - - -;
#X obj -538 224 gk.spring2 10 0.25;
#X obj -536 172 scale 0 1 100 550 0.08;
#X connect 1 0 4 0;
#X connect 2 0 4 4;
#X connect 3 0 0 0;
#X connect 4 0 3 0;
#X restore -829 -99 pd diameter;
#X obj -1328 -60 pack 0 255 35 0 110;
#X connect 0 0 20 0;
#X connect 1 0 21 0;
#X connect 2 0 4 0;
#X connect 2 0 43 3;
#X connect 3 0 4 0;
#X connect 3 0 43 5;
#X connect 4 0 43 0;
#X connect 5 0 4 0;
#X connect 5 0 43 4;
#X connect 7 0 34 0;
#X connect 10 0 13 0;
#X connect 10 0 48 3;
#X connect 11 0 13 0;
#X connect 11 0 48 1;
#X connect 12 0 13 0;
#X connect 12 0 48 2;
#X connect 13 0 48 0;
#X connect 15 0 13 0;
#X connect 15 0 48 4;
#X connect 18 0 19 0;
#X connect 19 0 17 0;
#X connect 20 0 4 0;
#X connect 20 0 43 1;
#X connect 21 0 4 0;
#X connect 21 0 43 2;
#X connect 22 0 24 0;
#X connect 22 0 44 1;
#X connect 23 0 24 0;
#X connect 23 0 44 2;
#X connect 24 0 44 0;
#X connect 25 0 26 0;
#X connect 30 0 24 0;
#X connect 30 0 44 3;
#X connect 32 0 17 0;
#X connect 33 0 7 0;
#X connect 33 0 8 0;
#X connect 35 0 8 0;
#X connect 36 0 25 0;
#X connect 36 0 27 0;
#X connect 37 0 38 0;
#X connect 38 0 32 0;
#X connect 38 1 35 0;
#X connect 38 2 39 0;
#X connect 39 0 27 0;
#X connect 40 0 24 0;
#X connect 41 0 13 0;
#X connect 42 0 40 0;
#X connect 42 0 41 0;
#X connect 42 0 4 0;
#X connect 43 0 33 0;
#X connect 44 0 36 0;
#X connect 47 0 2 0;
#X connect 48 0 31 0;
#X restore -1438 -1302 pd shape-8;
#N canvas 136 222 1258 265 loadbangs-gfx 1;
#X obj -798 -813 inlet;
#X obj -1210 -592 s init-world;
#X obj -905 -631 bng 15 250 50 0 empty empty empty 17 7 0 10 -262144
-1 -1;
#X obj -1007 -631 bng 15 250 50 0 empty empty empty 17 7 0 10 -262144
-1 -1;
#X obj -1007 -592 s init-shape-0;
#X obj -704 -635 bng 15 250 50 0 empty empty empty 17 7 0 10 -262144
-1 -1;
#X obj -806 -632 bng 15 250 50 0 empty empty empty 17 7 0 10 -262144
-1 -1;
#X obj -905 -592 s init-shape-1;
#X obj -806 -592 s init-shape-2;
#X obj -704 -592 s init-shape-3;
#X obj -506 -617 bng 15 250 50 0 empty empty empty 17 7 0 10 -262144
-1 -1;
#X obj -608 -631 bng 15 250 50 0 empty empty empty 17 7 0 10 -262144
-1 -1;
#X obj -304 -619 bng 15 250 50 0 empty empty empty 17 7 0 10 -262144
-1 -1;
#X obj -406 -619 bng 15 250 50 0 empty empty empty 17 7 0 10 -262144
-1 -1;
#X obj -607 -592 s init-shape-4;
#X obj -505 -592 s init-shape-5;
#X obj -406 -592 s init-shape-6;
#X obj -304 -592 s init-shape-7;
#X obj -195 -618 bng 15 250 50 0 empty empty empty 17 7 0 10 -262144
-1 -1;
#X obj -194 -591 s init-shape-8;
#X obj -92 -620 bng 15 250 50 0 empty empty empty 17 7 0 10 -262144
-1 -1;
#X obj -91 -593 s init-shape-9;
#X obj -194 -671 delay 150;
#X obj -307 -670 delay 200;
#X obj -408 -678 delay 250;
#X obj -518 -681 delay 300;
#X obj -609 -683 delay 350;
#X obj -708 -682 delay 400;
#X obj -803 -676 delay 450;
#X obj -906 -677 delay 500;
#X obj -1011 -678 delay 550;
#X obj -1204 -672 delay 650;
#X obj -798 -775 t b b b b b b b b b b b --------------------;
#X obj -93 -668 delay 100;
#X obj -1210 -628 bng 15 250 50 0 empty empty empty 17 7 0 10 -262144
-1 -1;
#X connect 0 0 32 0;
#X connect 2 0 7 0;
#X connect 3 0 4 0;
#X connect 5 0 9 0;
#X connect 6 0 8 0;
#X connect 10 0 15 0;
#X connect 11 0 14 0;
#X connect 12 0 17 0;
#X connect 13 0 16 0;
#X connect 18 0 19 0;
#X connect 20 0 21 0;
#X connect 22 0 18 0;
#X connect 23 0 12 0;
#X connect 24 0 13 0;
#X connect 25 0 10 0;
#X connect 26 0 11 0;
#X connect 27 0 5 0;
#X connect 28 0 6 0;
#X connect 29 0 2 0;
#X connect 30 0 3 0;
#X connect 31 0 34 0;
#X connect 32 0 31 0;
#X connect 32 2 30 0;
#X connect 32 3 29 0;
#X connect 32 4 28 0;
#X connect 32 5 27 0;
#X connect 32 6 26 0;
#X connect 32 7 25 0;
#X connect 32 8 24 0;
#X connect 32 9 23 0;
#X connect 32 10 22 0;
#X connect 32 11 33 0;
#X connect 33 0 20 0;
#X connect 34 0 1 0;
#X restore -1116 -1659 pd loadbangs-gfx;
#N canvas 0 22 1440 742 shape-9 0;
#X floatatom -892 -205 5 3 200 1 [numSides]_from_triangle_to_sphere_(int_3-60)
- -;
#X floatatom -874 -181 5 0 2 1 Arg_2_[shapeType]_whit_type_of_gradient_is_used_(fint_0-2)
- -;
#X floatatom -847 -139 8 0 1000 1 Arg_3_[diamter]_width_(float_0-1000)
- -;
#X floatatom -791 -68 8 0.3 1000 1 Arg_5_[blur]_how_fuzzy_are_the_edges?_(float_0-diameter/2)
- -;
#X obj -930 -3 t b;
#X floatatom -819 -98 8 0 10000 1 Arg_4_[thickness]_ring_thickness_(float_0-diameter/2)
- -;
#X text -811 -121 comment;
#X obj -903 127 prepend set;
#X obj -930 285 send packOSC;
#X text -1084 -102 AllParticles/Gradient;
#X floatatom -1297 -222 5 0 255 2 blue - -;
#X floatatom -1384 -223 5 0.1 255 2 red - -;
#X floatatom -1340 -223 5 0.1 255 2 green - -;
#X obj -1326 -148 t b;
#X obj -1271 4 prepend set;
#X floatatom -1247 -224 5 0 255 2 alpha - -;
#X text -1337 319 if this patch is loaded in OSX - then the iOS code
will not receive any mesages NOT sent by OSC. i.e. 'send' objects dont
talk to the iOS code \, outside of the libpd code???;
#X obj -1327 294 send packOSC;
#X obj -1327 -52 receive /gfx/Shapes/Graphics;
#X msg -1327 -23 /gfx/Shapes/Graphics \$1 \$2 \$3 \$4 \$5;
#X obj -904 -180 int;
#X obj -887 -138 int;
#X floatatom -348 -67 5 -1000 1000 0 - - -;
#X floatatom -291 -69 5 -1000 1000 0 - - -;
#X obj -385 -11 t b;
#X obj -273 126 prepend set;
#X msg -273 159 /gfx/Shapes/Position 9 0 0 0;
#X obj -373 309 send packOSC;
#X text -579 -117 AllParticles/Gradient;
#X floatatom -241 -68 8 -1000 1000 0 - - -;
#X msg -903 160 /gfx/Shapes/Gradient 9 94 1 395.759 35 0;
#X obj -576 158 r init-8;
#X obj -572 194 t b b b;
#X msg -1310 268 /gfx/Shapes/Graphics 9 255 255 255 2;
#X msg -1326 -92 \; /gfx/Shapes/Graphics 9 \$2 \$3 \$4 \$5;
#X msg -930 98 /gfx/Shapes/Gradient 9 \$2 \$3 \$4 \$5 \$6;
#X msg -917 262 /gfx/Shapes/Gradient 9 60 1 503 9 5.3;
#X msg -383 48 /gfx/Shapes/Position 9 \$2 \$3 \$4;
#X msg -360 286 /gfx/Shapes/Position 9 0 0 0;
#N canvas 732 473 266 300 shape-9-diameter 0;
#X obj -1006 -320 r ibi-dev-4-32-nml;
#X obj -1007 -151 outlet;
#X floatatom -1007 -185 5 0 0 0 - - -;
#X obj -1007 -286 gk.scale-n-ease 0 1 75 550 5 0.25;
#X connect 0 0 3 0;
#X connect 2 0 1 0;
#X connect 3 0 2 0;
#X restore -847 -160 pd shape-9-diameter;
#X obj -930 69 pack 0 94 1 289 35 3.3-------;
#N canvas 732 473 266 300 shape-9-diameter 0;
#X obj -1007 -151 outlet;
#X floatatom -1007 -185 5 0 0 0 - - -;
#X obj -1008 -312 r how-slow-32;
#X obj -1007 -286 gk.scale-n-ease 0.2 0.7 3 22 5 0.25;
#X connect 1 0 0 0;
#X connect 2 0 3 0;
#X connect 3 0 1 0;
#X restore -1278 -316 pd shape-9-diameter;
#X obj -384 19 pack 0 0 0 0;
#X obj -334 -179 delay 15;
#X obj -1130 -192 delay 30;
#X obj -924 -277 r init-shape-9;
#X text -919 -322 FEINT THICK RING THAT MOVES WITH BEATH-RELLATED CHANGES
IN HEART RATE;
#X obj -1326 -123 pack 0 255 160 0 10;
#X connect 0 0 20 0;
#X connect 1 0 21 0;
#X connect 2 0 4 0;
#X connect 2 0 40 3;
#X connect 3 0 4 0;
#X connect 3 0 40 5;
#X connect 4 0 40 0;
#X connect 5 0 4 0;
#X connect 5 0 40 4;
#X connect 7 0 30 0;
#X connect 10 0 13 0;
#X connect 10 0 47 3;
#X connect 11 0 13 0;
#X connect 11 0 47 1;
#X connect 12 0 13 0;
#X connect 12 0 47 2;
#X connect 13 0 47 0;
#X connect 15 0 13 0;
#X connect 15 0 47 4;
#X connect 18 0 19 0;
#X connect 19 0 14 0;
#X connect 19 0 17 0;
#X connect 20 0 4 0;
#X connect 20 0 40 1;
#X connect 21 0 4 0;
#X connect 21 0 40 2;
#X connect 22 0 24 0;
#X connect 22 0 42 1;
#X connect 23 0 24 0;
#X connect 23 0 42 2;
#X connect 24 0 42 0;
#X connect 25 0 26 0;
#X connect 29 0 24 0;
#X connect 29 0 42 3;
#X connect 31 0 32 0;
#X connect 32 0 33 0;
#X connect 32 1 36 0;
#X connect 32 2 38 0;
#X connect 33 0 17 0;
#X connect 35 0 7 0;
#X connect 35 0 8 0;
#X connect 36 0 8 0;
#X connect 37 0 25 0;
#X connect 37 0 27 0;
#X connect 38 0 27 0;
#X connect 39 0 2 0;
#X connect 40 0 35 0;
#X connect 41 0 15 0;
#X connect 42 0 37 0;
#X connect 43 0 24 0;
#X connect 44 0 13 0;
#X connect 45 0 43 0;
#X connect 45 0 44 0;
#X connect 45 0 4 0;
#X connect 47 0 34 0;
#X restore -1438 -1273 pd shape-9;
#X obj -756 -1433 bng 15 250 50 0 empty empty empty 17 7 0 10 -262144
-1 -1;
#X obj -755 -1372 send packOSC;
#X msg -756 -1405 /gfx/World/Functions 0 1;
#X text -687 -1572 mode 1 is nice~;
#X obj -1116 -1748 t b b;
#X text -1370 -1506 thin ring;
#X text -1254 -1276 Thick ring - RSA;
#X text -1255 -1327 A BLUE RING EXPANDS WITH EXHALATION-RELATED;
#X text -1258 -1352 A RING EXPANDS WITH EXHALATION-RELATED;
#X text -1251 -1376 SOFT REFLECTION AT BOTTOM;
#X text -1253 -1428 white light at centre that pulses;
#N canvas 0 22 1391 742 shape-2-blue-sphere 0;
#X floatatom -932 -228 5 3 120 1 Arg_1_[numSides]_from_triangle_to_sphere_(int_3-60)
- -;
#X floatatom -901 -180 5 0 2 1 Arg_2_[shapeType]_whit_type_of_gradient_is_used_(fint_0-2)
- -;
#X floatatom -874 -131 8 0 1000 1 Arg_3_[diamter]_width_(float_0-1000)
- -;
#X floatatom -818 -67 8 0.3 1000 1 Arg_5_[blur]_how_fuzzy_are_the_edges?_(float_0-diameter/2)
- -;
#X obj -973 37 t b;
#X floatatom -846 -97 8 0 10000 1 Arg_4_[thickness]_ring_thickness_(float_0-diameter/2)
- -;
#X text -838 -120 comment;
#X obj -819 176 prepend set;
#X obj -930 285 send packOSC;
#X text -1084 -102 AllParticles/Gradient;
#X floatatom -1297 -222 5 0 255 2 blue - -;
#X floatatom -1381 -222 5 0.1 255 2 red - -;
#X floatatom -1340 -223 5 0.1 255 2 green - -;
#X obj -1326 -148 t b;
#X obj -1271 4 prepend set;
#X msg -1318 42 /gfx/Shapes/Graphics 3 255 255 255 42.9367;
#X text -1391 -287 Jason - what range 255 or 1000?;
#X floatatom -1253 -224 5 0 255 2 alpha - -;
#X text -1337 145 if this patch is loaded in OSX - then the iOS code
will not receive any mesages NOT sent by OSC. i.e. 'send' objects dont
talk to the iOS code \, outside of the libpd code???;
#X obj -1327 120 send packOSC;
#X obj -1327 -52 receive /gfx/Shapes/Graphics;
#X msg -1327 -23 /gfx/Shapes/Graphics \$1 \$2 \$3 \$4 \$5;
#X obj -941 -146 int;
#X obj -914 -137 int;
#X floatatom -348 -67 5 -1000 1000 0 - - -;
#X floatatom -300 -68 5 -1000 1000 0 - - -;
#X obj -331 -17 t b;
#X obj -273 126 prepend set;
#X msg -273 159 /gfx/Shapes/Position 2 0 0 0;
#X obj -383 238 send packOSC;
#X text -579 -117 AllParticles/Gradient;
#X floatatom -254 -67 8 -1000 1000 0 - - -;
#X msg -1326 -92 \; /gfx/Shapes/Graphics 2 \$2 \$3 \$4 \$5;
#X msg -930 98 /gfx/Shapes/Gradient 2 \$2 \$3 \$4 \$5 \$6;
#X msg -384 48 /gfx/Shapes/Position 2 \$2 \$3 \$4;
#X msg -819 209 /gfx/Shapes/Gradient 2 0 0 152.513 35 0;
#X obj -917 238 r init-shape-2;
#X obj -363 193 r init-shape-2;
#X obj -1308 71 r init-shape-2;
#X msg -1310 94 /gfx/Shapes/Graphics 2 0.1 255 0 38;
#X msg -918 262 /gfx/Shapes/Gradient 2 60 1 327 20 25.3;
#X msg -370 215 /gfx/Shapes/Position 0 0 0;
#N canvas 161 204 836 529 diameter 0;
#X obj -536 341 outlet;
#X obj -538 156 receive rsa-down-smooth;
#X obj -538 224 gk.spring2 10 0.25;
#X obj -538 189 gk.scale 0 1 150 300;
#X connect 1 0 3 0;
#X connect 2 0 0 0;
#X connect 3 0 2 0;
#X restore -874 -157 pd diameter;
#N canvas 161 204 836 529 shape-0-blue 0;
#X obj -536 325 outlet;
#X floatatom -521 101 10 0 0 0 - - -;
#X obj -536 23 receive ibi-dev-4-32-nml-smooth;
#X obj -536 66 receive rsa-down-smooth;
#X obj -536 172 gk.scale-n-ease 0 1 100 255 10 0.25;
#X connect 3 0 1 0;
#X connect 3 0 4 0;
#X connect 4 0 0 0;
#X restore -1207 403 pd shape-0-blue;
#N canvas 161 204 836 529 shape-0-alpha 0;
#X obj -537 421 outlet;
#X floatatom -521 101 10 0 0 0 - - -;
#X obj -536 23 receive ibi-dev-4-32-nml-smooth;
#X obj -536 66 receive rsa-down-smooth;
#X floatatom -431 142 5 0 0 0 - - -;
#X obj -536 222 gk.spring2 10 0.25;
#X floatatom -513 199 5 0 0 0 - - -;
#X obj -422 306 *;
#X obj -336 186 receive rsa-down-smooth;
#X obj -341 233 gk.scale 0 2 0 1;
#X obj -536 172 gk.scale 0 2 25 100;
#X connect 3 0 1 0;
#X connect 3 0 10 0;
#X connect 4 0 10 4;
#X connect 5 0 7 0;
#X connect 7 0 0 0;
#X connect 8 0 9 0;
#X connect 9 0 7 1;
#X connect 10 0 5 0;
#X connect 10 0 6 0;
#X restore -1183 -260 pd shape-0-alpha;
#X obj -941 -386 r init-shape-1;
#X obj -385 -177 delay 15;
#X obj -1068 -263 delay 30;
#X obj -384 19 pack 0 0 0 0---;
#N canvas 0 22 450 300 throb 0;
#X obj -1251 -372 line;
#X msg -1251 -453 1;
#X obj -1325 -491 t b b;
#X obj -1326 -521 r heart-ibi;
#X obj -1250 -343 gk.scale-n-ease 0 1 40 66 2 0.3;
#X obj -1249 -287 outlet;
#X obj -1251 -392 pack f 250;
#X obj -1323 -453 delay 100;
#X msg -1325 -427 -2;
#X obj -1247 -312 clip 0 255;
#X connect 0 0 4 0;
#X connect 1 0 6 0;
#X connect 2 0 7 0;
#X connect 2 1 1 0;
#X connect 3 0 2 0;
#X connect 4 0 9 0;
#X connect 6 0 0 0;
#X connect 7 0 8 0;
#X connect 8 0 6 0;
#X connect 9 0 5 0;
#X restore -1266 -264 pd throb;
#X obj -930 69 pack 0 120 0 114 35 157-------;
#X obj -1326 -123 pack 0 6 26 255 50;
#X connect 0 0 22 0;
#X connect 1 0 23 0;
#X connect 2 0 4 0;
#X connect 2 0 50 3;
#X connect 3 0 4 0;
#X connect 3 0 50 5;
#X connect 4 0 50 0;
#X connect 5 0 4 0;
#X connect 5 0 50 4;
#X connect 7 0 35 0;
#X connect 10 0 13 0;
#X connect 10 0 51 3;
#X connect 11 0 13 0;
#X connect 11 0 51 1;
#X connect 12 0 13 0;
#X connect 12 0 51 2;
#X connect 13 0 51 0;
#X connect 14 0 15 0;
#X connect 17 0 13 0;
#X connect 20 0 21 0;
#X connect 21 0 14 0;
#X connect 21 0 19 0;
#X connect 22 0 4 0;
#X connect 22 0 50 1;
#X connect 23 0 4 0;
#X connect 23 0 50 2;
#X connect 24 0 26 0;
#X connect 24 0 48 1;
#X connect 25 0 26 0;
#X connect 25 0 48 2;
#X connect 26 0 48 0;
#X connect 27 0 28 0;
#X connect 31 0 26 0;
#X connect 31 0 48 3;
#X connect 33 0 7 0;
#X connect 33 0 8 0;
#X connect 34 0 27 0;
#X connect 34 0 29 0;
#X connect 36 0 40 0;
#X connect 37 0 41 0;
#X connect 38 0 39 0;
#X connect 39 0 19 0;
#X connect 40 0 8 0;
#X connect 41 0 29 0;
#X connect 42 0 2 0;
#X connect 45 0 46 0;
#X connect 45 0 47 0;
#X connect 45 0 22 0;
#X connect 46 0 48 0;
#X connect 47 0 13 0;
#X connect 48 0 34 0;
#X connect 49 0 17 0;
#X connect 50 0 33 0;
#X connect 51 0 32 0;
#X restore -1439 -1458 pd shape-2-blue-sphere;
#N canvas 146 98 1534 839 shape-3-soft-white-center 0;
#X floatatom -890 -211 5 3 60 1 Arg_1_[numSides]_from_triangle_to_sphere_(int_3-60)
- -;
#X floatatom -861 -172 5 0 2 1 Arg_2_[shapeType]_whit_type_of_gradient_is_used_(fint_0-2)
- -;
#X floatatom -834 -117 8 0 1000 1 Arg_3_[diamter]_width_(float_0-1000)
- -;
#X floatatom -778 -48 8 0.3 1000 1 Arg_5_[blur]_how_fuzzy_are_the_edges?_(float_0-diameter/2)
- -;
#X obj -931 15 t b;
#X floatatom -806 -89 8 0 10000 1 Arg_4_[thickness]_ring_thickness_(float_0-diameter/2)
- -;
#X text -798 -112 comment;
#X obj -819 176 prepend set;
#X msg -819 209 /gfx/Shapes/Gradient 3 60 0 50 0 0;
#X obj -930 285 send packOSC;
#X text -1084 -102 AllParticles/Gradient;
#X floatatom -1297 -222 5 0 255 2 blue - -;
#X floatatom -1384 -223 5 0.1 255 2 red - -;
#X floatatom -1340 -223 5 0.1 255 2 green - -;
#X obj -1326 -148 t b;
#X obj -1271 4 prepend set;
#X text -1391 -287 Jason - what range 255 or 1000?;
#X floatatom -1245 -221 5 0 255 2 alpha - -;
#X text -1337 145 if this patch is loaded in OSX - then the iOS code
will not receive any mesages NOT sent by OSC. i.e. 'send' objects dont
talk to the iOS code \, outside of the libpd code???;
#X obj -1327 120 send packOSC;
#X obj -1327 -52 receive /gfx/Shapes/Graphics;
#X msg -1327 -23 /gfx/Shapes/Graphics \$1 \$2 \$3 \$4 \$5;
#X obj -930 69 pack 0 60 0 50 0 0-------;
#X obj -901 -138 int;
#X obj -874 -129 int;
#X floatatom -282 -59 5 -1000 1000 0 - - -;
#X floatatom -195 -80 5 -1000 1000 0 - - -;
#X obj -265 -9 t b;
#X obj -207 134 prepend set;
#X msg -207 167 /gfx/Shapes/Position 3 0 0 0;
#X obj -317 246 send packOSC;
#X text -579 -117 AllParticles/Gradient;
#X text -186 -92 comment;
#X floatatom -104 -59 8 -1000 1000 0 - - -;
#X obj -1308 71 r init-2;
#X obj -917 238 r init-2;
#X obj -297 201 r init-2;
#X msg -1326 -92 \; /gfx/Shapes/Graphics 3 \$2 \$3 \$4 \$5;
#X msg -930 98 /gfx/Shapes/Gradient 3 \$2 \$3 \$4 \$5 \$6;
#X msg -318 56 /gfx/Shapes/Position 3 \$2 \$3 \$4;
#X msg -1310 94 /gfx/Shapes/Graphics 3 255 255 255 2;
#X msg -918 262 /gfx/Shapes/Gradient 3 60 1 503 9 5.3;
#X msg -304 223 /gfx/Shapes/Position 3 0 0 0;
#N canvas 684 216 266 300 shape-3-diameter 0;
#X obj -1007 -151 outlet;
#X floatatom -1007 -185 5 0 0 0 - - -;
#X obj -1011 -310 r how-slow-32;
#X obj -1007 -286 gk.scale-n-ease 0 1 75 125 10 0.25;
#X connect 1 0 0 0;
#X connect 2 0 3 0;
#X connect 3 0 1 0;
#X restore -834 -149 pd shape-3-diameter;
#X obj -318 27 pack 0 0 0 0;
#N canvas 0 22 450 300 throb 0;
#X obj -1251 -372 line;
#X msg -1325 -427 0;
#X msg -1251 -453 1;
#X obj -1325 -491 t b b;
#X obj -1326 -521 r heart-ibi;
#X obj -1250 -343 gk.scale-n-ease 0 1 40 66 2 0.3;
#X obj -1249 -287 outlet;
#X obj -1251 -392 pack f 250;
#X obj -1323 -453 delay 200;
#X connect 0 0 5 0;
#X connect 1 0 7 0;
#X connect 2 0 7 0;
#X connect 3 0 8 0;
#X connect 3 1 2 0;
#X connect 4 0 3 0;
#X connect 5 0 6 0;
#X connect 7 0 0 0;
#X connect 8 0 1 0;
#X restore -1208 -241 pd throb;
#X msg -1270 37 /gfx/Shapes/Graphics 3 255 255 255 42.9367;
#X obj -1326 -123 pack 0 255 255 255 2;
#X obj -318 -244 delay 15;
#X obj -1114 -238 delay 30;
#X obj -922 -400 r init-shape-3;
#X connect 0 0 23 0;
#X connect 1 0 24 0;
#X connect 2 0 4 0;
#X connect 2 0 22 3;
#X connect 3 0 4 0;
#X connect 3 0 22 5;
#X connect 4 0 22 0;
#X connect 5 0 4 0;
#X connect 5 0 22 4;
#X connect 7 0 8 0;
#X connect 11 0 14 0;
#X connect 11 0 47 3;
#X connect 12 0 14 0;
#X connect 12 0 47 1;
#X connect 13 0 14 0;
#X connect 13 0 47 2;
#X connect 14 0 47 0;
#X connect 15 0 46 0;
#X connect 17 0 14 0;
#X connect 17 0 47 4;
#X connect 20 0 21 0;
#X connect 21 0 15 0;
#X connect 21 0 19 0;
#X connect 22 0 38 0;
#X connect 23 0 4 0;
#X connect 23 0 22 1;
#X connect 24 0 22 2;
#X connect 24 0 4 0;
#X connect 25 0 27 0;
#X connect 25 0 44 1;
#X connect 26 0 27 0;
#X connect 26 0 44 2;
#X connect 27 0 44 0;
#X connect 28 0 29 0;
#X connect 33 0 27 0;
#X connect 33 0 44 3;
#X connect 34 0 40 0;
#X connect 35 0 41 0;
#X connect 36 0 42 0;
#X connect 38 0 7 0;
#X connect 38 0 9 0;
#X connect 39 0 28 0;
#X connect 39 0 30 0;
#X connect 40 0 19 0;
#X connect 41 0 9 0;
#X connect 42 0 30 0;
#X connect 44 0 39 0;
#X connect 45 0 17 0;
#X connect 47 0 37 0;
#X connect 48 0 44 0;
#X connect 49 0 14 0;
#X connect 50 0 48 0;
#X connect 50 0 49 0;
#X connect 50 0 4 0;
#X restore -1438 -1429 pd shape-3-soft-white-center;
#X text -1257 -1301 ORANGE RING EXPANDS WITH EXHALATION-RELATED;
#X text -1248 -1403 thin blue ring how slow;
#X obj -1253 -1791 r session-start;
#X msg -1088 -1712 connect 127.0.0.1 58008;
#X connect 1 0 0 0;
#X connect 2 0 0 0;
#X connect 3 0 22 0;
#X connect 5 0 1 0;
#X connect 6 0 16 0;
#X connect 18 0 20 0;
#X connect 20 0 19 0;
#X connect 22 0 16 0;
#X connect 22 1 34 0;
#X connect 33 0 22 0;
#X connect 34 0 0 0;
#X restore -79 562 pd VISUALS;
#X msg 379 263 0.75;
#X msg -81 269 0.5;
#X msg 58 266 1;
#X text -86 -814 need to also add maxlib/scale and gk.scale-n-ease
;
#X text -80 527 VISUALS VISUALS VISUALS VISUALS!;
#X connect 0 0 27 0;
#X connect 1 0 2 1;
#X connect 1 1 2 0;
#X connect 2 0 3 0;
#X connect 3 0 13 0;
#X connect 3 0 12 0;
#X connect 5 0 10 0;
#X connect 5 0 142 0;
#X connect 6 0 145 0;
#X connect 7 0 129 0;
#X connect 7 0 145 1;
#X connect 8 0 9 0;
#X connect 8 0 11 0;
#X connect 8 0 1 0;
#X connect 8 0 33 0;
#X connect 8 0 147 0;
#X connect 9 0 162 0;
#X connect 13 0 14 0;
#X connect 13 0 103 0;
#X connect 15 0 148 0;
#X connect 15 0 149 0;
#X connect 16 0 28 0;
#X connect 17 0 103 1;
#X connect 21 0 92 0;
#X connect 22 0 88 0;
#X connect 22 0 92 2;
#X connect 23 0 87 0;
#X connect 23 0 92 1;
#X connect 24 0 17 0;
#X connect 26 0 21 0;
#X connect 27 0 29 0;
#X connect 27 0 94 0;
#X connect 28 0 31 0;
#X connect 28 0 95 0;
#X connect 29 0 104 0;
#X connect 31 0 105 0;
#X connect 33 0 42 0;
#X connect 33 0 100 0;
#X connect 33 0 118 0;
#X connect 33 0 119 0;
#X connect 38 0 104 1;
#X connect 39 0 104 0;
#X connect 40 0 114 1;
#X connect 41 0 115 0;
#X connect 42 0 43 0;
#X connect 43 0 46 0;
#X connect 44 0 77 1;
#X connect 45 0 106 1;
#X connect 51 0 57 0;
#X connect 51 0 59 0;
#X connect 52 0 60 0;
#X connect 52 0 58 0;
#X connect 53 0 54 0;
#X connect 54 0 55 1;
#X connect 54 1 55 0;
#X connect 55 0 56 0;
#X connect 55 0 111 0;
#X connect 57 0 177 0;
#X connect 60 0 177 0;
#X connect 61 0 50 0;
#X connect 61 1 51 0;
#X connect 61 2 52 1;
#X connect 62 0 51 1;
#X connect 62 1 49 0;
#X connect 62 2 52 0;
#X connect 65 0 110 0;
#X connect 66 0 67 0;
#X connect 66 0 73 0;
#X connect 67 0 68 0;
#X connect 67 0 74 0;
#X connect 68 0 72 0;
#X connect 68 0 81 0;
#X connect 68 0 80 0;
#X connect 69 0 45 0;
#X connect 69 0 71 0;
#X connect 69 0 172 0;
#X connect 70 0 77 2;
#X connect 71 0 107 1;
#X connect 72 0 77 0;
#X connect 72 1 106 0;
#X connect 72 2 107 0;
#X connect 77 0 76 0;
#X connect 77 0 184 0;
#X connect 81 0 78 0;
#X connect 81 0 83 0;
#X connect 81 0 186 0;
#X connect 81 1 79 0;
#X connect 81 1 84 0;
#X connect 81 1 185 0;
#X connect 89 0 93 0;
#X connect 90 0 117 0;
#X connect 92 0 161 0;
#X connect 93 0 94 0;
#X connect 93 1 95 0;
#X connect 94 0 20 0;
#X connect 95 0 19 0;
#X connect 97 0 86 0;
#X connect 100 0 102 0;
#X connect 100 0 116 0;
#X connect 100 0 150 0;
#X connect 101 0 16 0;
#X connect 102 0 0 0;
#X connect 103 0 18 0;
#X connect 104 0 30 0;
#X connect 104 0 36 0;
#X connect 105 0 37 0;
#X connect 105 0 32 0;
#X connect 106 0 181 0;
#X connect 107 0 182 0;
#X connect 109 0 119 0;
#X connect 110 0 64 0;
#X connect 110 1 63 0;
#X connect 111 0 47 0;
#X connect 111 0 61 0;
#X connect 111 1 48 0;
#X connect 111 1 62 0;
#X connect 114 0 66 1;
#X connect 115 0 67 1;
#X connect 115 1 66 0;
#X connect 115 2 114 0;
#X connect 116 0 96 0;
#X connect 116 0 25 0;
#X connect 117 0 91 0;
#X connect 118 0 34 0;
#X connect 119 0 35 0;
#X connect 119 0 108 0;
#X connect 120 0 124 1;
#X connect 121 0 99 0;
#X connect 122 0 99 1;
#X connect 123 0 99 1;
#X connect 127 0 126 0;
#X connect 128 0 122 0;
#X connect 128 0 121 0;
#X connect 130 0 129 0;
#X connect 132 0 120 0;
#X connect 137 0 136 0;
#X connect 139 0 138 0;
#X connect 140 0 138 0;
#X connect 141 0 136 0;
#X connect 142 0 137 0;
#X connect 142 0 139 0;
#X connect 144 0 143 0;
#X connect 145 0 126 0;
#X connect 146 0 120 0;
#X connect 148 0 101 1;
#X connect 149 0 102 1;
#X connect 150 0 101 0;
#X connect 151 0 148 0;
#X connect 154 0 122 0;
#X connect 154 0 121 0;
#X connect 155 0 122 0;
#X connect 156 0 121 0;
#X connect 157 0 153 0;
#X connect 158 0 192 0;
#X connect 158 0 193 0;
#X connect 159 0 124 0;
#X connect 160 0 131 1;
#X connect 161 0 183 0;
#X connect 162 0 163 0;
#X connect 163 0 166 0;
#X connect 164 0 165 0;
#X connect 165 0 162 3;
#X connect 167 0 169 0;
#X connect 167 0 170 0;
#X connect 168 0 161 1;
#X connect 169 0 168 0;
#X connect 171 0 172 0;
#X connect 172 0 174 0;
#X connect 172 1 173 0;
#X connect 173 0 161 1;
#X connect 174 0 183 0;
#X connect 175 0 160 0;
#X connect 176 0 191 0;
#X connect 181 0 44 0;
#X connect 182 0 70 0;
#X connect 183 0 97 0;
#X connect 183 0 113 0;
#X connect 184 0 75 0;
#X connect 185 0 85 0;
#X connect 186 0 82 0;
#X connect 186 0 152 0;
#X connect 187 0 188 0;
#X connect 187 1 189 0;
#X connect 191 0 160 0;
#X connect 192 0 157 0;
#X connect 193 0 159 0;
