#N canvas 0 22 1440 738 10;
#X floatatom 520 -559 5 0 0 0 - - -;
#X obj 536 -910 t f f;
#X obj 538 -883 -;
#X floatatom 538 -830 5 0 0 0 - - -;
#X text 641 -975 raw pulse;
#X obj 797 -973 r sensor-reliability;
#X obj 952 -973 r session-start;
#X obj 1078 -973 r session-end;
#X obj 536 -974 r heart-ibi;
#X obj 457 -907 bng 15 250 50 0 empty empty empty 17 7 0 10 -262144
-1 -1;
#X obj 692 -917 tgl 15 0 empty empty empty 17 7 0 10 -262144 -1 -1
0 1;
#X floatatom 485 -909 5 0 0 0 - - -;
#X obj 511 -735 s ibi-difference;
#X obj 646 -801 abs;
#X obj 647 -735 s ibi-difference-abs;
#X obj 707 -661 r session-start;
#X floatatom 848 -565 5 0 0 0 - - -;
#X msg 859 -796 0;
#X floatatom 813 -735 5 0 0 0 - - -;
#X obj 866 -414 send ibi-session-shortest;
#X obj 529 -414 send ibi-session-longest;
#X floatatom 824 -235 5 0 0 0 - - -;
#X obj 916 -251 r ibi-session-longest;
#X obj 864 -274 r ibi-session-shortest;
#X obj 859 -822 r session-start;
#X obj 392 -414 send ibi-mean-32;
#X obj 824 -340 receive ibi-mean-32;
#X obj 528 -527 change;
#X obj 866 -515 change;
#X obj 710 -500 t b;
#X obj 710 -414 send ibi-new-longest;
#X obj 1068 -492 t b;
#X obj 1066 -413 send ibi-new-shortest;
#X obj 381 -726 gk.skeptic 70;
#X obj 266 -414 send ibi-mean-16;
#X obj 157 -413 send ibi-mean-4;
#X obj 722 -437 bng 15 250 50 0 empty empty empty 17 7 0 10 -262144
-1 -1;
#X obj 1111 -441 bng 15 250 50 0 empty empty empty 17 7 0 10 -262144
-1 -1;
#X obj 765 -498 bng 15 250 50 0 empty empty empty 17 7 0 10 -262144
-1 -1;
#X obj 672 -496 bng 15 250 50 0 empty empty empty 17 7 0 10 -262144
-1 -1;
#X obj 164 -297 receive ibi-mean-32;
#X obj 15 -365 receive ibi-mean-4;
#X obj 14 -493 expr 60000/$f1;
#X floatatom 14 -466 5 0 0 0 - - -;
#X floatatom 476 -41 10 0 0 0 - - -;
#X msg 536 -127 50000;
#X obj 15 -413 send ibi-as-bpm;
#X obj 1110 -130 bng 15 250 50 0 empty empty empty 17 7 0 10 -262144
-1 -1;
#X obj 1212 -127 bng 15 250 50 0 empty empty empty 17 7 0 10 -262144
-1 -1;
#X obj 1240 56 s hr-bang-going-down;
#X obj 974 57 s hr-bang-going-up;
#X obj 1116 -35 timer;
#X obj 1388 -37 timer;
#X obj 1108 -276 r ibi-mean-4;
#X obj 1108 -246 t f f;
#X obj 1110 -219 -;
#X floatatom 1175 -178 5 0 0 0 - - -;
#X floatatom 1138 8 10 0 0 0 - - -;
#X obj 1388 56 s rsa-ms-downward;
#X obj 1116 57 s rsa-ms-upward;
#X floatatom 1408 4 10 0 0 0 - - -;
#X obj 1093 -102 t b b b;
#X obj 1217 -104 t b b b;
#X floatatom 1084 615 5 0 0 0 - - -;
#X floatatom 997 613 5 0 0 0 - - -;
#X obj 996 542 r rsa-ms-upward;
#X obj 15 -284 - 0;
#X obj 15 -229 / 1;
#X obj 15 -193 * 1000;
#X obj 621 -194 r session-start;
#X floatatom 598 -39 10 0 0 0 - - -;
#X msg 619 -126 -5000;
#X obj 445 -126 t f f f;
#X floatatom 65 -256 10 0 0 0 - - -;
#X floatatom 63 -207 10 0 0 0 - - -;
#X obj 607 56 send ibi-dev-4-32-nml-smooth;
#X obj 445 57 send ibi-dev-4-32-nml;
#X obj 445 -13 gk.scale -100 100 0 1;
#X floatatom 82 -54 10 0 0 0 - - -;
#X floatatom 329 -59 10 0 0 0 - - -;
#X floatatom 39 -155 5 0 0 0 - - -;
#N canvas 744 22 744 738 splits 0;
#X obj -130 -46 select 0;
#X msg 17 134 0.0001;
#X obj -130 -83 inlet;
#X obj -119 16 t b;
#X obj -164 202 r session-start;
#X msg 74 267 -5000;
#X text -154 274 reset Trough and Peak;
#X text 156 288 only let IBI related values though - not +/- 5000;
#X floatatom 53 358 10 0 0 0 - - -;
#X floatatom -264 360 10 0 0 0 - - -;
#X floatatom -286 449 10 0 0 0 - - -;
#X obj -266 225 t f f;
#X floatatom 9 443 10 0 0 0 - - -;
#X obj -13 213 t f f;
#X obj -264 198 abs;
#X msg -232 273 -1000;
#X msg -119 138 0.0001;
#X floatatom -63 -47 5 0 0 0 - - -;
#X obj -13 402 gk.scale 0.0001 100 0 1;
#X obj -329 404 gk.scale 0.0001 100 0 1;
#X floatatom -350 110 5 0 0 0 - - -;
#X obj -238 52 t b;
#X obj 1 54 t b;
#X obj -327 497 outlet;
#X obj -13 484 outlet;
#X obj -13 166 float;
#X floatatom 54 206 10 0 0 0 - - -;
#X obj -264 163 float;
#X floatatom -338 197 10 0 0 0 - - -;
#X floatatom -343 262 10 0 0 0 - - -;
#X text -15 -48 avoid divission by zero send 0.0001 instead;
#X obj -13 19 gk.split 0.0001 1000;
#X obj 16 109 gk.onebang;
#X obj -242 113 gk.onebang;
#X obj 53 331 gk.split 0.0001 200;
#X obj -265 329 gk.split 0.0001 200;
#X obj -265 303 gk.peak;
#X obj 53 300 gk.peak;
#X floatatom -278 -26 5 0 0 0 - - -;
#X obj -289 16 gk.split -1000 -0.0001;
#X connect 0 0 3 0;
#X connect 0 1 31 0;
#X connect 0 1 38 0;
#X connect 0 1 39 0;
#X connect 1 0 25 0;
#X connect 2 0 0 0;
#X connect 2 0 17 0;
#X connect 3 0 16 0;
#X connect 4 0 15 0;
#X connect 4 0 5 0;
#X connect 5 0 37 1;
#X connect 8 0 18 2;
#X connect 9 0 19 2;
#X connect 11 0 19 0;
#X connect 11 0 29 0;
#X connect 11 1 36 0;
#X connect 13 0 18 0;
#X connect 13 1 37 0;
#X connect 14 0 11 0;
#X connect 15 0 36 1;
#X connect 16 0 27 0;
#X connect 18 0 12 0;
#X connect 18 0 24 0;
#X connect 19 0 10 0;
#X connect 19 0 23 0;
#X connect 21 0 32 0;
#X connect 21 0 33 1;
#X connect 22 0 32 1;
#X connect 22 0 33 0;
#X connect 25 0 13 0;
#X connect 25 0 26 0;
#X connect 27 0 14 0;
#X connect 27 0 28 0;
#X connect 31 0 22 0;
#X connect 31 0 25 0;
#X connect 32 0 1 0;
#X connect 33 0 16 0;
#X connect 34 0 8 0;
#X connect 35 0 9 0;
#X connect 36 0 35 0;
#X connect 37 0 34 0;
#X connect 39 0 20 0;
#X connect 39 0 21 0;
#X connect 39 0 27 0;
#X restore 15 -125 pd splits -----------------------------;
#X obj 110 54 s rsa-down-smooth;
#X obj 15 54 s rsa-down;
#X obj 244 54 s rsa-up;
#X obj 309 54 s rsa-up-smooth;
#X obj 823 56 send how-slow-32;
#X floatatom 871 -235 5 0 0 0 - - -;
#X floatatom 931 -230 5 0 0 0 - - -;
#X obj 584 -684 r heart-ibi;
#X obj -110 -6 r ibi-as-bpm;
#X obj -110 56 send bpm-mean-32;
#X obj 823 -201 gk.scale 500 800 0.001 1;
#X obj 584 -653 t b b;
#X obj 529 -480 float;
#X obj 866 -470 float;
#X floatatom 427 -509 5 0 0 0 - - -;
#X obj 823 19 clip 0 1;
#X text 417 -288 need to test session-start messages - are they really
reseting things?;
#X obj 237 649 dac~ 1 2;
#X obj 433 -687 gk.split 100 1200;
#X obj 724 -579 gk.trough;
#X obj 483 -591 gk.peak;
#X obj 813 -770 gk.peak;
#X obj 710 -461 gk.onebang 3000;
#X obj 1066 -465 gk.onebang 3000;
#X obj 476 -93 gk.trough;
#X obj 598 -91 gk.peak;
#X obj 598 -65 gk.split 0 200;
#X obj 476 -67 gk.split -200 0;
#X floatatom 162 -363 5 0 0 0 - - -;
#X floatatom 154 -535 5 0 0 0 - - -;
#X obj 996 584 gk.split 3000 10000;
#X obj 1110 -161 gk.edge;
#X obj 155 -202 v;
#X obj 823 -5 gk.spring2 10 0.25;
#X obj 607 25 gk.spring2 5 0.25;
#X obj 309 12 gk.spring2 5 0.25;
#X obj 112 12 gk.spring2 5 0.25;
#X floatatom 772 15 5 0 0 0 - - -;
#X obj 51 -314 float;
#X obj 3 -342 t f f b;
#X obj 392 -567 gk.mean 32;
#X obj -110 25 gk.mean 32;
#X obj 266 -452 gk.mean 16;
#X obj 141 -452 gk.mean 4;
#X obj 139 292 t b;
#X obj 148 601 clip~ -1 1;
#X obj 289 604 clip~ -1 1;
#X obj 420 556 catch~ pulse~;
#N canvas 51 135 980 672 pulse-sound 0;
#X obj 582 104 inlet;
#X obj 76 113 noise~;
#X obj 78 339 *~;
#X obj 582 214 vline~;
#X obj 582 149 t b;
#X obj 550 150 bng 15 250 50 0 empty empty empty 17 7 0 10 -262144
-1 -1;
#X obj 76 235 svf~ 50 0.5;
#X obj 319 110 r ibi-dev-4-32-nml-smooth;
#X floatatom 169 188 5 0 0 0 - - -;
#X obj 76 288 svf~ 50 0.5;
#X obj 76 189 svf~ 120 0.4;
#X obj 237 109 inlet;
#X obj 319 142 gk.scale 0 1 120 700;
#X obj 78 403 gkpd.mix-to-stereo main 0.9;
#X msg 582 176 1 5 \, 0.2 100 105 \, 0.1 525 110 \, 0 1000 530;
#X connect 0 0 4 0;
#X connect 0 0 5 0;
#X connect 1 0 10 0;
#X connect 2 0 13 0;
#X connect 2 0 13 1;
#X connect 3 0 2 1;
#X connect 4 0 14 0;
#X connect 6 2 9 0;
#X connect 7 0 12 0;
#X connect 8 0 6 1;
#X connect 9 1 2 0;
#X connect 10 0 6 0;
#X connect 11 0 13 2;
#X connect 12 0 8 0;
#X connect 14 0 3 0;
#X restore 58 316 pd pulse-sound;
#X text -85 -952 NOTE FOR LIBPD BUILD PD 'abstraction' files refered
to in this patch that need to be added to libPD search path... gk.skeptic.pd
gk.split.pd gk.mean.pd gk.spring2.pd gk.trough.pd gk.peak.pd gk.onebang.pd
gk.sines.pd gk.scale.pd gk.resample.pd gk.edge.pd list-stream.mmb.pd
list-mean.pd list-len.pd;
#N canvas 220 142 1220 758 3-beeps 0;
#X obj -100 11 inlet;
#X obj -37 398 vline~;
#X obj -1 448 *~;
#X obj -123 13 bng 15 250 50 0 empty empty empty 17 7 0 10 -262144
-1 -1;
#X msg -37 355 1 5 0 \, 0 5 75;
#X obj 92 358 osc~ 880;
#X obj 0 608 throw~ test-beeps;
#X obj -100 46 t b b b -----------------------------;
#X obj 166 258 t b b;
#X msg 192 286 440;
#X obj 50 253 t b b;
#X msg 76 281 880;
#X obj -89 256 t b b;
#X msg -63 284 1320;
#X floatatom 93 335 5 0 0 0 - - -;
#X obj 137 285 delay 5;
#X obj 19 287 delay 5;
#X obj -124 286 delay 5;
#X obj -76 190 delay 400;
#X obj 29 187 delay 200;
#X obj 0 491 *~ 0.125;
#X connect 0 0 7 0;
#X connect 1 0 2 1;
#X connect 2 0 20 0;
#X connect 3 0 7 0;
#X connect 4 0 1 0;
#X connect 5 0 2 0;
#X connect 7 0 18 0;
#X connect 7 1 19 0;
#X connect 7 2 8 0;
#X connect 8 0 15 0;
#X connect 8 1 9 0;
#X connect 9 0 14 0;
#X connect 10 0 16 0;
#X connect 10 1 11 0;
#X connect 11 0 14 0;
#X connect 12 0 17 0;
#X connect 12 1 13 0;
#X connect 13 0 14 0;
#X connect 14 0 5 0;
#X connect 15 0 4 0;
#X connect 16 0 4 0;
#X connect 17 0 4 0;
#X connect 18 0 12 0;
#X connect 19 0 10 0;
#X connect 20 0 6 0;
#X restore 937 -896 pd 3-beeps;
#X obj 909 -932 bng 15 250 50 0 empty empty empty 17 7 0 10 -262144
-1 -1;
#X obj -23 553 catch~ test-beeps;
#N canvas 220 142 1220 758 3-beeps 0;
#X obj -100 11 inlet;
#X obj -37 398 vline~;
#X obj -1 448 *~;
#X obj -123 13 bng 15 250 50 0 empty empty empty 17 7 0 10 -262144
-1 -1;
#X msg -37 355 1 5 0 \, 0 5 75;
#X obj 92 358 osc~ 880;
#X obj -3 570 throw~ test-beeps;
#X obj -100 46 t b b b -----------------------------;
#X obj 166 258 t b b;
#X obj 50 253 t b b;
#X msg 76 281 880;
#X obj -89 256 t b b;
#X floatatom 93 335 5 0 0 0 - - -;
#X obj 137 285 delay 5;
#X obj 19 287 delay 5;
#X obj -124 286 delay 5;
#X obj -76 190 delay 400;
#X obj 29 187 delay 200;
#X msg 192 286 1320;
#X msg -63 284 440;
#X obj -2 484 *~ 0.125;
#X connect 0 0 7 0;
#X connect 1 0 2 1;
#X connect 2 0 20 0;
#X connect 3 0 7 0;
#X connect 4 0 1 0;
#X connect 5 0 2 0;
#X connect 7 0 16 0;
#X connect 7 1 17 0;
#X connect 7 2 8 0;
#X connect 8 0 13 0;
#X connect 8 1 18 0;
#X connect 9 0 14 0;
#X connect 9 1 10 0;
#X connect 10 0 12 0;
#X connect 11 0 15 0;
#X connect 11 1 19 0;
#X connect 12 0 5 0;
#X connect 13 0 4 0;
#X connect 14 0 4 0;
#X connect 15 0 4 0;
#X connect 16 0 11 0;
#X connect 17 0 9 0;
#X connect 18 0 12 0;
#X connect 19 0 12 0;
#X connect 20 0 6 0;
#X restore 1073 -903 pd 3-beeps;
#X obj 1053 -934 bng 15 250 50 0 empty empty empty 17 7 0 10 -262144
-1 -1;
#X obj 139 248 bng 15 250 50 0 empty empty empty 17 7 0 10 -262144
-1 -1;
#N canvas 0 22 1360 738 sine-tones-triggered-from-slowingdown-thresholds
0;
#X obj 2230 216 r slowness-19;
#X obj 2110 219 r slowness-18;
#X obj 1976 219 r slowness-17;
#X obj 1852 212 r slowness-16;
#X obj 1726 213 r slowness-15;
#X obj 1608 210 r slowness-14;
#X obj 1478 212 r slowness-13;
#X obj 1359 213 r slowness-12;
#X obj 1233 217 r slowness-11;
#X obj 1103 224 r slowness-10;
#X obj 983 222 r slowness-09;
#X obj 865 224 r slowness-08;
#X obj 759 224 r slowness-07;
#X obj 658 224 r slowness-06;
#X obj 550 225 r slowness-05;
#X obj 431 229 r slowness-04;
#X obj 310 232 r slowness-03;
#X obj 214 231 r slowness-02;
#X obj 109 232 r slowness-01;
#X obj 715 514 bng 15 250 50 0 empty empty empty 17 7 0 10 -262144
-1 -1;
#N canvas 368 131 749 586 delay-fx 0;
#X obj 25 49 inlet~;
#X obj 75 375 outlet~;
#X obj 66 113 delwrite~ delay-fx-001L 10000;
#X obj 369 117 delwrite~ delay-fx-001R 10000;
#X obj 264 366 outlet~;
#X obj 191 157 *~ 0.5;
#X obj 380 158 *~ 0.5;
#X obj 97 302 *~ 0.25;
#X obj 286 301 *~ 0.25;
#X obj 74 205 delread~ delay-fx-001L 4000;
#X obj 306 203 delread~ delay-fx-001R 5000;
#X connect 0 0 2 0;
#X connect 0 0 3 0;
#X connect 0 0 1 0;
#X connect 0 0 4 0;
#X connect 5 0 2 0;
#X connect 6 0 3 0;
#X connect 7 0 1 0;
#X connect 7 0 4 0;
#X connect 8 0 4 0;
#X connect 8 0 1 0;
#X connect 9 0 5 0;
#X connect 9 0 7 0;
#X connect 10 0 6 0;
#X connect 10 0 8 0;
#X restore 707 713 pd delay-fx;
#X obj 703 755 gkpd.mix-to-stereo main 1;
#X floatatom 762 518 5 0 0 0 - - -;
#X obj 710 631 catch~ sines-1;
#X obj 715 589 throw~ sines-1;
#X obj 822 388 s slow-sine-fq;
#X obj 715 409 r slow-sine-fq;
#X obj 715 468 t b f;
#X msg 104 299 6916.26;
#X msg 207 297 6161.69;
#X msg 309 295 5815.86;
#X msg 433 296 4616.05;
#X msg 545 293 4356.97;
#X msg 653 294 3881.62;
#X msg 757 296 3458.13;
#X msg 860 296 2907.93;
#X msg 978 295 2590.67;
#X msg 1098 292 2308.02;
#X msg 1227 289 2178.49;
#X msg 1353 284 1940.81;
#X msg 1472 282 1729.06;
#X msg 1725 286 1453.96;
#X msg 1852 287 1295.34;
#X msg 1974 285 1154.01;
#X msg 2112 283 1090.19;
#X msg 2236 284 971.246;
#X obj 715 556 gk.sines 1567.98 0.1;
#X msg 1598 286 1540.42;
#X obj 1018 480 r beat-count;
#X obj 1016 533 > 32;
#X floatatom 970 539 5 0 0 0 - - -;
#X obj 973 710 line~;
#X msg 1069 646 0 10000;
#X obj 1259 556 r session-end;
#X msg 979 656 1 30000;
#X obj 710 682 *~;
#X obj 1086 532 < 32;
#X obj 997 573 select 1;
#X obj 1082 574 select 1;
#X obj 717 443 * 0.333;
#X obj 587 461 pipe 250;
#X connect 0 0 45 0;
#X connect 1 0 44 0;
#X connect 2 0 43 0;
#X connect 3 0 42 0;
#X connect 4 0 41 0;
#X connect 5 0 47 0;
#X connect 6 0 40 0;
#X connect 7 0 39 0;
#X connect 8 0 38 0;
#X connect 9 0 37 0;
#X connect 10 0 36 0;
#X connect 11 0 35 0;
#X connect 12 0 34 0;
#X connect 13 0 33 0;
#X connect 14 0 32 0;
#X connect 15 0 31 0;
#X connect 16 0 30 0;
#X connect 17 0 29 0;
#X connect 18 0 28 0;
#X connect 19 0 46 0;
#X connect 20 0 21 0;
#X connect 20 1 21 1;
#X connect 22 0 46 1;
#X connect 23 0 55 0;
#X connect 26 0 60 0;
#X connect 27 0 19 0;
#X connect 27 1 22 0;
#X connect 28 0 25 0;
#X connect 29 0 25 0;
#X connect 30 0 25 0;
#X connect 31 0 25 0;
#X connect 32 0 25 0;
#X connect 33 0 25 0;
#X connect 34 0 25 0;
#X connect 35 0 25 0;
#X connect 36 0 25 0;
#X connect 37 0 25 0;
#X connect 38 0 25 0;
#X connect 39 0 25 0;
#X connect 40 0 25 0;
#X connect 41 0 25 0;
#X connect 42 0 25 0;
#X connect 43 0 25 0;
#X connect 44 0 25 0;
#X connect 45 0 25 0;
#X connect 47 0 25 0;
#X connect 48 0 49 0;
#X connect 48 0 50 0;
#X connect 48 0 56 0;
#X connect 49 0 57 0;
#X connect 51 0 55 1;
#X connect 52 0 51 0;
#X connect 53 0 52 0;
#X connect 54 0 51 0;
#X connect 55 0 20 0;
#X connect 56 0 58 0;
#X connect 57 0 54 0;
#X connect 58 0 52 0;
#X connect 59 0 27 0;
#X connect 60 0 59 0;
#X restore 445 317 pd sine-tones-triggered-from-slowingdown-thresholds
;
#N canvas 123 22 1298 790 samples-triggered-from-slowingdown-thresholds
0;
#X obj 197 -98 r how-slow-32;
#X floatatom 466 -1 5 0 0 0 - - -;
#X floatatom 15 157 5 0 0 0 - - -;
#X obj 197 -47 * 100;
#X obj 65 194 bng 15 250 50 0 empty empty empty 17 7 0 10 -262144 -1
-1;
#X obj 198 192 bng 15 250 50 0 empty empty empty 17 7 0 10 -262144
-1 -1;
#X obj 339 196 bng 15 250 50 0 empty empty empty 17 7 0 10 -262144
-1 -1;
#X obj 481 195 bng 15 250 50 0 empty empty empty 17 7 0 10 -262144
-1 -1;
#X obj 622 202 bng 15 250 50 0 empty empty empty 17 7 0 10 -262144
-1 -1;
#X obj 763 198 bng 15 250 50 0 empty empty empty 17 7 0 10 -262144
-1 -1;
#X obj 902 196 bng 15 250 50 0 empty empty empty 17 7 0 10 -262144
-1 -1;
#X obj 1042 188 bng 15 250 50 0 empty empty empty 17 7 0 10 -262144
-1 -1;
#X obj 466 53 float;
#X obj 919 618 s note;
#X obj 466 26 + 5;
#X msg 304 527 89;
#X msg 406 525 88;
#X msg 530 526 84;
#X msg 642 523 83;
#X msg 750 524 81;
#X msg 854 526 79;
#X msg 957 526 76;
#X msg 1075 525 74;
#X obj 1179 187 bng 15 250 50 0 empty empty empty 17 7 0 10 -262144
-1 -1;
#X msg 1195 522 72;
#X obj 1319 184 bng 15 250 50 0 empty empty empty 17 7 0 10 -262144
-1 -1;
#X msg 1324 519 71;
#X obj 1453 183 bng 15 250 50 0 empty empty empty 17 7 0 10 -262144
-1 -1;
#X msg 1450 514 69;
#X obj 1589 183 bng 15 250 50 0 empty empty empty 17 7 0 10 -262144
-1 -1;
#X msg 1569 512 67;
#X obj 1727 186 bng 15 250 50 0 empty empty empty 17 7 0 10 -262144
-1 -1;
#X msg 1695 515 65;
#X obj 1865 184 bng 15 250 50 0 empty empty empty 17 7 0 10 -262144
-1 -1;
#X msg 1822 516 64;
#X obj 2004 186 bng 15 250 50 0 empty empty empty 17 7 0 10 -262144
-1 -1;
#X obj 2143 183 bng 15 250 50 0 empty empty empty 17 7 0 10 -262144
-1 -1;
#X obj 2278 185 bng 15 250 50 0 empty empty empty 17 7 0 10 -262144
-1 -1;
#X msg 1949 517 62;
#X msg 2071 515 60;
#X msg 2209 513 59;
#X obj 2410 183 bng 15 250 50 0 empty empty empty 17 7 0 10 -262144
-1 -1;
#X msg 2333 514 57;
#X obj 65 225 s slowness-01;
#X obj 198 222 s slowness-02;
#X obj 339 224 s slowness-03;
#X obj 481 224 s slowness-04;
#X obj 622 228 s slowness-05;
#X obj 763 227 s slowness-06;
#X obj 903 217 s slowness-07;
#X obj 1042 214 s slowness-08;
#X obj 1179 211 s slowness-09;
#X obj 1319 212 s slowness-10;
#X obj 1453 210 s slowness-11;
#X obj 1589 210 s slowness-12;
#X obj 1727 209 s slowness-13;
#X obj 1865 207 s slowness-14;
#X obj 2004 210 s slowness-15;
#X obj 2143 209 s slowness-16;
#X obj 2278 209 s slowness-17;
#X obj 2410 209 s slowness-18;
#X msg 201 529 91;
#X obj 2543 185 bng 15 250 50 0 empty empty empty 17 7 0 10 -262144
-1 -1;
#X obj 2543 215 s slowness-19;
#X obj 2327 446 r slowness-19;
#X obj 2207 449 r slowness-18;
#X obj 2073 449 r slowness-17;
#X obj 1949 442 r slowness-16;
#X obj 1823 443 r slowness-15;
#X obj 1705 440 r slowness-14;
#X obj 1575 442 r slowness-13;
#X obj 1456 443 r slowness-12;
#X obj 1330 447 r slowness-11;
#X obj 1200 454 r slowness-10;
#X obj 1080 452 r slowness-09;
#X obj 962 454 r slowness-08;
#X obj 856 454 r slowness-07;
#X obj 755 454 r slowness-06;
#X obj 647 455 r slowness-05;
#X obj 528 459 r slowness-04;
#X obj 407 462 r slowness-03;
#X obj 311 461 r slowness-02;
#X obj 206 462 r slowness-01;
#X obj 65 156 gk.trigger.inc 10 8;
#X obj 198 155 gk.trigger.inc 15 13;
#X obj 339 153 gk.trigger.inc 20 18;
#X obj 481 153 gk.trigger.inc 25 23;
#X obj 620 152 gk.trigger.inc 30 28;
#X obj 762 153 gk.trigger.inc 35 33;
#X obj 902 153 gk.trigger.inc 40 38;
#X obj 1042 155 gk.trigger.inc 45 43;
#X obj 1179 155 gk.trigger.inc 50 47;
#X obj 1319 155 gk.trigger.inc 55 52;
#X obj 1453 156 gk.trigger.inc 60 57;
#X obj 1589 155 gk.trigger.inc 65 63;
#X obj 1727 157 gk.trigger.inc 70 67;
#X obj 1865 158 gk.trigger.inc 75 72;
#X obj 2004 158 gk.trigger.inc 80 77;
#X obj 2143 158 gk.trigger.inc 85 82;
#X obj 2278 158 gk.trigger.inc 90 87;
#X obj 2410 158 gk.trigger.inc 95 92;
#X obj 2543 158 gk.trigger.inc 100 97;
#X connect 0 0 3 0;
#X connect 1 0 14 0;
#X connect 3 0 2 0;
#X connect 3 0 1 0;
#X connect 4 0 43 0;
#X connect 5 0 44 0;
#X connect 6 0 45 0;
#X connect 7 0 46 0;
#X connect 8 0 47 0;
#X connect 9 0 48 0;
#X connect 10 0 49 0;
#X connect 11 0 50 0;
#X connect 12 0 83 0;
#X connect 12 0 84 0;
#X connect 12 0 85 0;
#X connect 12 0 86 0;
#X connect 12 0 87 0;
#X connect 12 0 88 0;
#X connect 12 0 89 0;
#X connect 12 0 90 0;
#X connect 12 0 91 0;
#X connect 12 0 92 0;
#X connect 12 0 93 0;
#X connect 12 0 94 0;
#X connect 12 0 95 0;
#X connect 12 0 96 0;
#X connect 12 0 97 0;
#X connect 12 0 98 0;
#X connect 12 0 99 0;
#X connect 12 0 100 0;
#X connect 12 0 101 0;
#X connect 14 0 12 0;
#X connect 15 0 13 0;
#X connect 16 0 13 0;
#X connect 17 0 13 0;
#X connect 18 0 13 0;
#X connect 19 0 13 0;
#X connect 20 0 13 0;
#X connect 21 0 13 0;
#X connect 22 0 13 0;
#X connect 23 0 51 0;
#X connect 24 0 13 0;
#X connect 25 0 52 0;
#X connect 26 0 13 0;
#X connect 27 0 53 0;
#X connect 28 0 13 0;
#X connect 29 0 54 0;
#X connect 30 0 13 0;
#X connect 31 0 55 0;
#X connect 32 0 13 0;
#X connect 33 0 56 0;
#X connect 34 0 13 0;
#X connect 35 0 57 0;
#X connect 36 0 58 0;
#X connect 37 0 59 0;
#X connect 38 0 13 0;
#X connect 39 0 13 0;
#X connect 40 0 13 0;
#X connect 41 0 60 0;
#X connect 42 0 13 0;
#X connect 61 0 13 0;
#X connect 62 0 63 0;
#X connect 64 0 42 0;
#X connect 65 0 40 0;
#X connect 66 0 39 0;
#X connect 67 0 38 0;
#X connect 68 0 34 0;
#X connect 69 0 32 0;
#X connect 70 0 30 0;
#X connect 71 0 28 0;
#X connect 72 0 26 0;
#X connect 73 0 24 0;
#X connect 74 0 22 0;
#X connect 75 0 21 0;
#X connect 76 0 20 0;
#X connect 77 0 19 0;
#X connect 78 0 18 0;
#X connect 79 0 17 0;
#X connect 80 0 16 0;
#X connect 81 0 15 0;
#X connect 82 0 61 0;
#X connect 83 0 4 0;
#X connect 84 0 5 0;
#X connect 85 0 6 0;
#X connect 86 0 7 0;
#X connect 87 0 8 0;
#X connect 88 0 9 0;
#X connect 89 0 10 0;
#X connect 90 0 11 0;
#X connect 91 0 23 0;
#X connect 92 0 25 0;
#X connect 93 0 27 0;
#X connect 94 0 29 0;
#X connect 95 0 31 0;
#X connect 96 0 33 0;
#X connect 97 0 35 0;
#X connect 98 0 36 0;
#X connect 99 0 37 0;
#X connect 100 0 41 0;
#X connect 101 0 62 0;
#X restore 312 202 pd samples-triggered-from-slowingdown-thresholds
;
#N canvas 220 142 1220 758 3-beeps 0;
#X obj -100 11 inlet;
#X obj -37 398 vline~;
#X obj -1 448 *~;
#X obj -123 13 bng 15 250 50 0 empty empty empty 17 7 0 10 -262144
-1 -1;
#X msg -37 355 1 5 0 \, 0 5 75;
#X obj 92 358 osc~ 880;
#X obj -19 608 throw~ test-beeps;
#X obj -100 46 t b b b -----------------------------;
#X obj 166 258 t b b;
#X obj 50 253 t b b;
#X obj -89 256 t b b;
#X floatatom 93 335 5 0 0 0 - - -;
#X obj 137 285 delay 5;
#X obj 19 287 delay 5;
#X obj -124 286 delay 5;
#X obj -76 190 delay 400;
#X obj 29 187 delay 200;
#X msg -63 284 2640;
#X msg 190 286 2640;
#X msg 76 281 5280;
#X obj -4 484 *~ 0.05;
#X connect 0 0 7 0;
#X connect 1 0 2 1;
#X connect 2 0 20 0;
#X connect 3 0 7 0;
#X connect 4 0 1 0;
#X connect 5 0 2 0;
#X connect 7 0 15 0;
#X connect 7 1 16 0;
#X connect 7 2 8 0;
#X connect 8 0 12 0;
#X connect 8 1 18 0;
#X connect 9 0 13 0;
#X connect 9 1 19 0;
#X connect 10 0 14 0;
#X connect 10 1 17 0;
#X connect 11 0 5 0;
#X connect 12 0 4 0;
#X connect 13 0 4 0;
#X connect 14 0 4 0;
#X connect 15 0 10 0;
#X connect 16 0 9 0;
#X connect 17 0 11 0;
#X connect 18 0 11 0;
#X connect 19 0 11 0;
#X connect 20 0 6 0;
#X restore 754 -861 pd 3-beeps;
#X obj 735 -911 select 1;
#N canvas 220 142 1220 758 3-beeps 0;
#X obj -100 11 inlet;
#X obj -37 398 vline~;
#X obj -1 448 *~;
#X obj -123 13 bng 15 250 50 0 empty empty empty 17 7 0 10 -262144
-1 -1;
#X msg -37 355 1 5 0 \, 0 5 75;
#X obj 92 358 osc~ 880;
#X obj -3 586 throw~ test-beeps;
#X obj -100 46 t b b b -----------------------------;
#X obj 166 258 t b b;
#X obj 50 253 t b b;
#X obj -89 256 t b b;
#X floatatom 93 335 5 0 0 0 - - -;
#X obj 137 285 delay 5;
#X obj 19 287 delay 5;
#X obj -124 286 delay 5;
#X obj -76 190 delay 400;
#X obj 29 187 delay 200;
#X msg 190 286 5280;
#X msg 76 281 2640;
#X msg -63 284 1320;
#X obj -6 489 *~ 0.05;
#X connect 0 0 7 0;
#X connect 1 0 2 1;
#X connect 2 0 20 0;
#X connect 3 0 7 0;
#X connect 4 0 1 0;
#X connect 5 0 2 0;
#X connect 7 0 15 0;
#X connect 7 1 16 0;
#X connect 7 2 8 0;
#X connect 8 0 12 0;
#X connect 8 1 17 0;
#X connect 9 0 13 0;
#X connect 9 1 18 0;
#X connect 10 0 14 0;
#X connect 10 1 19 0;
#X connect 11 0 5 0;
#X connect 12 0 4 0;
#X connect 13 0 4 0;
#X connect 14 0 4 0;
#X connect 15 0 10 0;
#X connect 16 0 9 0;
#X connect 17 0 11 0;
#X connect 18 0 11 0;
#X connect 19 0 11 0;
#X connect 20 0 6 0;
#X restore 837 -861 pd 3-beeps;
#X obj 816 -911 select 0;
#X obj 852 -885 bng 15 250 50 0 empty empty empty 17 7 0 10 -262144
-1 -1;
#X obj 766 -888 bng 15 250 50 0 empty empty empty 17 7 0 10 -262144
-1 -1;
#X obj 803 -944 change;
#N canvas 220 142 1220 758 3-beeps 0;
#X obj -100 11 inlet;
#X obj -36 343 vline~;
#X obj 1 396 *~;
#X obj -123 13 bng 15 250 50 0 empty empty empty 17 7 0 10 -262144
-1 -1;
#X msg -36 314 1 5 0 \, 0 5 75;
#X obj 92 358 osc~ 880;
#X obj -100 46 t b b b -----------------------------;
#X obj 166 258 t b b;
#X floatatom 93 335 5 0 0 0 - - -;
#X obj 137 285 delay 5;
#X msg 190 286 10560;
#X obj -33 427 *~ 0.02;
#X obj 57 564 gkpd.mix-to-stereo main 0.5;
#X connect 0 0 6 0;
#X connect 1 0 2 1;
#X connect 2 0 11 0;
#X connect 3 0 6 0;
#X connect 4 0 1 0;
#X connect 5 0 2 0;
#X connect 6 2 7 0;
#X connect 7 0 9 0;
#X connect 7 1 10 0;
#X connect 8 0 5 0;
#X connect 9 0 4 0;
#X connect 10 0 8 0;
#X connect 11 0 12 0;
#X connect 11 0 12 1;
#X restore 181 316 pd 3-beeps;
#X obj 181 292 bng 15 250 50 0 empty empty empty 17 7 0 10 -262144
-1 -1;
#X obj 950 -926 onebang;
#X obj 1190 570 udpsend;
#X obj 1036 479 packOSC;
#X msg 952 478 disconnect;
#X obj 1169 417 loadbang;
#X obj 1035 453 receive packOSC;
#X msg 1324 438 connect 192.168.1.128 58008;
#X obj 181 249 r TEST-heart-ibi;
#X obj 320 -904 s TEST-heart-ibi;
#X obj 749 -622 f 5000;
#X obj 598 -612 f 0;
#X floatatom 500 -625 5 0 0 0 - - -;
#X obj 842 -655 bng 15 250 50 0 empty empty empty 17 7 0 10 -262144
-1 -1;
#X floatatom 88 88 5 0 0 0 - - -;
#N canvas 0 22 608 561 cyclone-drone 0;
#X obj 141 54 r ibi-dev-4-32-nml-smooth;
#X floatatom 104 130 5 0 0 0 - - -;
#X obj 80 333 *~;
#X obj 44 109 phasor~;
#X obj 44 183 svf~ 50 0.75;
#X obj 33 283 svf~ 20 0.1;
#X obj 163 270 line~;
#X msg 178 191 1 10000;
#X msg 344 190 0 10000;
#X obj 141 81 gk.scale 0 1 165 400;
#X obj 352 63 r session-start;
#X obj 478 63 r session-end;
#X obj 28 496 gkpd.mix-to-stereo main 0.9;
#X obj 186 449 inlet;
#X obj 370 86 bng 15 250 50 0 empty empty empty 17 7 0 10 -262144 -1
-1;
#X obj 38 232 svf~ 54.0332 0.75;
#X msg 131 25 54.0333;
#X obj 451 14;
#X msg 219 24 60.6503;
#X msg 302 24 68.0777;
#X msg 19 3 40.4792;
#X msg 42 25 30.3514;
#X obj 43 57 sig~ 40.4792;
#X connect 0 0 9 0;
#X connect 1 0 4 1;
#X connect 2 0 12 0;
#X connect 2 0 12 1;
#X connect 3 0 4 0;
#X connect 4 2 15 0;
#X connect 5 1 2 0;
#X connect 6 0 2 1;
#X connect 7 0 6 0;
#X connect 8 0 6 0;
#X connect 9 0 1 0;
#X connect 10 0 14 0;
#X connect 10 0 7 0;
#X connect 11 0 8 0;
#X connect 13 0 12 2;
#X connect 15 2 5 0;
#X connect 16 0 22 0;
#X connect 18 0 22 0;
#X connect 19 0 22 0;
#X connect 20 0 22 0;
#X connect 21 0 22 0;
#X connect 22 0 3 0;
#X restore -83 320 pd cyclone-drone;
#X obj 683 580 *~ 1;
#X obj 290 557 catch~ main-R;
#X obj 148 560 catch~ main-L;
#X floatatom -84 294 5 0 0 0 - - -;
#X obj -81 228 r session-start;
#X floatatom 58 291 5 0 0 0 - - -;
#X floatatom 376 288 7 0 0 0 - - -;
#X obj 824 -88 spigot;
#X obj 312 -789 counter;
#X floatatom 278 -757 5 0 0 0 - - -;
#X obj 371 -831 r session-start;
#X msg 366 -810 0;
#X obj 197 -722 send beat-count;
#X obj 898 -171 r beat-count;
#X obj 898 -124 t 1;
#X obj 898 -150 > 32;
#X floatatom 850 -149 5 0 0 0 - - -;
#X obj 740 -158 bng 15 250 50 0 empty empty empty 17 7 0 10 -262144
-1 -1;
#X obj 729 -118 t b b;
#X msg 782 -116 0;
#X msg 770 -75 0;
#X msg 416 263 0;
#X msg 379 263 0.15;
#X obj 379 240 r session-start;
#X msg -81 269 0.15;
#X msg 58 266 0.35;
#X obj 1517 55 s rsa-wavelength-ms;
#N canvas 0 22 450 300 exhale-sound 0;
#X obj 179 45 r rsa-down-smooth;
#X obj 97 105 *~;
#X obj 51 22 noise~;
#X obj 51 49 svf~ 400 0.4;
#X obj 51 72 svf~ 800 0.4;
#X obj 97 150 gkpd.mix-to-stereo main 0.3;
#X connect 0 0 1 1;
#X connect 1 0 5 0;
#X connect 1 0 5 1;
#X connect 2 0 3 0;
#X connect 3 0 4 0;
#X connect 4 2 1 0;
#X restore 782 315 pd exhale-sound;
#N canvas 0 22 1186 507 rsa-wavelength 0;
#X obj 30 63 r rsa-wavelength-ms;
#X floatatom 30 181 5 0 0 0 - - -;
#X floatatom 30 97 10 0 0 0 - - -;
#X obj 30 149 gk.range.gate 4000 4999;
#X floatatom 186 181 5 0 0 0 - - -;
#X obj 186 149 gk.range.gate 5000 5999;
#X floatatom 341 181 5 0 0 0 - - -;
#X obj 341 149 gk.range.gate 6000 6999;
#X floatatom 491 181 5 0 0 0 - - -;
#X obj 491 149 gk.range.gate 7000 7999;
#X floatatom 643 181 5 0 0 0 - - -;
#X obj 643 149 gk.range.gate 8000 8999;
#X floatatom 792 182 5 0 0 0 - - -;
#X obj 792 150 gk.range.gate 9000 15000;
#X obj 191 61 r rsa-wavelength-ms;
#X floatatom 191 95 10 0 0 0 - - -;
#X connect 0 0 2 0;
#X connect 2 0 3 0;
#X connect 2 0 5 0;
#X connect 2 0 7 0;
#X connect 2 0 9 0;
#X connect 2 0 11 0;
#X connect 2 0 13 0;
#X connect 3 0 1 0;
#X connect 5 0 4 0;
#X connect 7 0 6 0;
#X connect 9 0 8 0;
#X connect 11 0 10 0;
#X connect 13 0 12 0;
#X connect 14 0 15 0;
#X restore 1517 82 pd rsa-wavelength;
#X msg 1169 440 connect 127.0.0.1 58008;
#N canvas 0 22 1425 738 samples-01 0;
#X obj 247 -424 soundfiler;
#X floatatom 247 -392 15 0 0 0 - - -;
#X obj 291 -166 tabread4~ sample-01R;
#X obj 131 -168 tabread4~ sample-01L;
#X obj 130 -230 vline~;
#X obj 129 -449 mtof;
#X floatatom 145 -481 5 0 0 0 - - -;
#X floatatom 247 -340 10 0 0 0 - - -;
#X floatatom 130 -347 10 0 0 0 - - -;
#X msg 130 -269 1 \, \$1 \$2;
#X obj 144 -504 bng 15 250 50 0 empty empty empty 17 7 0 10 -262144
-1 -1;
#X obj 247 -369 / 44.1;
#X floatatom 143 -426 5 0 0 0 - - -;
#X msg 185 -481 69;
#X obj 129 -399 / 441;
#X obj 129 -373 * 441000;
#X obj -21 -548 inlet;
#X obj 130 -296 pack 0 0 -------------------------;
#X obj 181 -510 r note;
#X obj 254 -562 s note;
#X msg 137 -611 64;
#X msg 170 -613 67;
#X msg 224 -614 69;
#X msg 279 -614 79;
#X msg 320 -615 86;
#N canvas 368 131 749 586 delay-fx 0;
#X obj 28 39 inlet~;
#X obj 75 375 outlet~;
#X obj 264 366 outlet~;
#X obj 97 302 *~ 0.25;
#X obj 286 301 *~ 0.25;
#X obj 66 113 delwrite~ delay-fx-002L 10000;
#X obj 325 77 delwrite~ delay-fx-002R 10000;
#X obj 74 205 delread~ delay-fx-002L 2750;
#X obj 306 203 delread~ delay-fx-002R 5400;
#X obj 380 158 *~ 0.65;
#X obj 191 157 *~ 0.65;
#X connect 0 0 1 0;
#X connect 0 0 2 0;
#X connect 0 0 5 0;
#X connect 0 0 6 0;
#X connect 3 0 1 0;
#X connect 3 0 2 0;
#X connect 4 0 2 0;
#X connect 4 0 1 0;
#X connect 7 0 3 0;
#X connect 7 0 10 0;
#X connect 8 0 4 0;
#X connect 8 0 9 0;
#X connect 9 0 6 0;
#X connect 10 0 5 0;
#X restore 220 15 pd delay-fx;
#X obj 367 -90 loadbang;
#X obj 132 -35 *~ 0.5;
#X obj 232 -30 *~ 0.5;
#X obj 356 -560 loadbang;
#X obj 82 85 *~ 0.125;
#X obj 140 90 *~ 0.125;
#X obj 242 89 *~ 0.125;
#X obj 4 84 *~ 0.125;
#X msg 366 -64 0.25;
#X obj 65 194 gkpd.mix-to-stereo main 0.9;
#X obj 65 165 clip~ -1 1;
#X obj 143 165 clip~ -1 1;
#X obj 166 138 *~;
#X obj 88 138 *~;
#X obj 331 88 inlet;
#X obj 597 -183 table sample-01L;
#X obj 605 -124 table sample-01R;
#X msg 291 -485 read -resize daphne_tibetan-bell.aif sample-01L sample-01R
;
#X connect 0 0 1 0;
#X connect 1 0 11 0;
#X connect 2 0 28 0;
#X connect 3 0 27 0;
#X connect 4 0 3 0;
#X connect 4 0 2 0;
#X connect 5 0 12 0;
#X connect 5 0 14 0;
#X connect 6 0 5 0;
#X connect 7 0 17 1;
#X connect 8 0 17 0;
#X connect 9 0 4 0;
#X connect 10 0 6 0;
#X connect 11 0 7 0;
#X connect 13 0 5 0;
#X connect 14 0 15 0;
#X connect 15 0 8 0;
#X connect 16 0 5 0;
#X connect 17 0 9 0;
#X connect 18 0 6 0;
#X connect 20 0 19 0;
#X connect 21 0 19 0;
#X connect 22 0 19 0;
#X connect 23 0 19 0;
#X connect 24 0 19 0;
#X connect 25 0 31 0;
#X connect 25 0 32 0;
#X connect 25 0 33 0;
#X connect 25 1 30 0;
#X connect 25 1 32 0;
#X connect 25 1 31 0;
#X connect 26 0 34 0;
#X connect 27 0 25 0;
#X connect 27 0 33 0;
#X connect 28 0 25 0;
#X connect 28 0 30 0;
#X connect 29 0 43 0;
#X connect 30 0 38 0;
#X connect 31 0 39 0;
#X connect 32 0 38 0;
#X connect 33 0 39 0;
#X connect 34 0 27 1;
#X connect 34 0 28 1;
#X connect 36 0 35 0;
#X connect 37 0 35 1;
#X connect 38 0 37 0;
#X connect 39 0 36 0;
#X connect 40 0 38 1;
#X connect 40 0 39 1;
#X connect 43 0 0 0;
#X restore 303 314 pd samples-01;
#N canvas 179 34 1065 738 send-messages-to-oF-graphics 0;
#X floatatom 92 42 8 0 1 1 Arg_1_[backgroundGradientOut.r]_outer_gradient_colour_-_red_(float_0-1)
- -;
#X floatatom 135 123 8 0 1 1 Arg_2_[backgroundGradientOut.g]__outer_gradient_colour_-_green_(float_0-1)
- -;
#X floatatom 153 208 8 0 1 1 Arg_3_[backgroundGradientOut.b]_outer_gradient_colour_-_blue_(float_0-1)
- -;
#X floatatom 191 347 8 0 1 1 Arg_5_[backgroundGradientIn.r]_inner_gradient_colour_-_red_(float_0-1)
- -;
#X floatatom 222 411 7 0 1000 1 Arg_6_[backgroundGradientIn.r]_inner_gradient_colour_green_(float_0-1)
- -;
#X obj 54 509 t b;
#X floatatom 670 596 8 0 1 1 Arg_8_[backgroundGradientIn.a]_inner_gradient_colour_alpha_(float_0-1)
- -;
#X floatatom 402 707 8 0 3 1 Arg_9_render_mode_(float_0-3)_[renderMode]
- -;
#X msg 91 809 /gfx/World/Graphics \$1 \$2 \$3 \$4 \$5 \$6 \$7 \$8 \$9
;
#X floatatom 178 284 8 0 0 1 Arg_4_[backgroundGradientOut.a]_outer_gradient_colour_alpha_(float_0-1)
- -;
#X obj 418 820 int;
#X floatatom 261 484 8 0 1 1 Arg_7_[backgroundGradientIn.b]_inner_gradient_colour_-_blue_(float_0-1)
- -;
#X obj 1256 891 receive packOSC;
#X obj 91 841 send packOSC;
#X obj 104 -73 loadbang;
#X obj 106 -27 t b b b b b b b b b b ----------------------------------
;
#X obj 134 100 f 0;
#X obj 152 183 f 0.24;
#X obj 178 261 f 0.94;
#X obj 190 323 f 0;
#X obj 222 389 f 0.85;
#X obj 91 18 f 0;
#X obj 262 457 f 0.77;
#X obj 403 730 t b f;
#X obj 412 773 delay 250;
#X obj 680 779 f 0;
#X obj 104 713 pack 0 0 0 1 0 0 0 1 1-----------;
#X obj 174 -66 bng 15 250 50 0 empty empty empty 17 7 0 10 -262144
-1 -1;
#X obj 342 576 line;
#X obj 706 528 line;
#X text 872 457 ramp up.;
#X text 907 382 ramp down.;
#X msg 770 471 1 5000;
#X msg 803 547 0 5000;
#X obj 778 239 line;
#X obj 820 262 select 1 0;
#X msg 842 182 1 5000;
#X msg 851 205 0 5000;
#X obj 765 -5 r session-start;
#X floatatom 672 149 8 0 1 1 Arg_8_[backgroundGradientIn.a]_inner_gradient_colour_alpha_(float_0-1)
- -;
#X obj 716 100 line;
#X obj 884 513 delay 5000;
#X obj 826 503 t b;
#X obj 806 76 t b;
#X msg 777 35 1 200;
#X obj 890 68 delay 200;
#X obj 934 16 bng 15 250 50 0 empty empty empty 17 7 0 10 -262144 -1
-1;
#X msg 679 40 0 200;
#X obj 945 -26 r TEST-heart-ibi;
#X connect 0 0 26 0;
#X connect 1 0 5 0;
#X connect 1 0 26 1;
#X connect 2 0 5 0;
#X connect 2 0 26 2;
#X connect 3 0 5 0;
#X connect 3 0 26 4;
#X connect 4 0 5 0;
#X connect 4 0 26 5;
#X connect 5 0 26 0;
#X connect 6 0 5 0;
#X connect 6 0 26 7;
#X connect 7 0 5 0;
#X connect 7 0 23 0;
#X connect 8 0 13 0;
#X connect 9 0 5 0;
#X connect 9 0 26 3;
#X connect 11 0 5 0;
#X connect 11 0 26 6;
#X connect 14 0 15 0;
#X connect 15 0 21 0;
#X connect 15 1 16 0;
#X connect 15 2 17 0;
#X connect 15 3 18 0;
#X connect 15 4 19 0;
#X connect 15 5 20 0;
#X connect 15 6 22 0;
#X connect 16 0 1 0;
#X connect 17 0 2 0;
#X connect 18 0 9 0;
#X connect 19 0 3 0;
#X connect 20 0 4 0;
#X connect 21 0 0 0;
#X connect 22 0 11 0;
#X connect 23 0 24 0;
#X connect 23 1 10 0;
#X connect 24 0 10 0;
#X connect 26 0 8 0;
#X connect 27 0 15 0;
#X connect 29 0 6 0;
#X connect 32 0 29 0;
#X connect 32 0 42 0;
#X connect 33 0 29 0;
#X connect 35 0 37 0;
#X connect 35 1 36 0;
#X connect 36 0 34 0;
#X connect 37 0 34 0;
#X connect 38 0 32 0;
#X connect 38 0 44 0;
#X connect 39 0 9 0;
#X connect 40 0 39 0;
#X connect 41 0 33 0;
#X connect 42 0 41 0;
#X connect 43 0 45 0;
#X connect 44 0 40 0;
#X connect 44 0 43 0;
#X connect 45 0 47 0;
#X connect 46 0 44 0;
#X connect 47 0 40 0;
#X connect 48 0 44 0;
#X restore 861 406 pd send-messages-to-oF-graphics;
#X text 252 393 NOTE: this patch loads and plays sound samples from
the hard drive - need to check search-path settings;
#X connect 0 0 27 0;
#X connect 1 0 2 1;
#X connect 1 1 2 0;
#X connect 2 0 3 0;
#X connect 3 0 13 0;
#X connect 3 0 12 0;
#X connect 5 0 10 0;
#X connect 5 0 146 0;
#X connect 6 0 149 0;
#X connect 7 0 135 0;
#X connect 7 0 149 1;
#X connect 8 0 9 0;
#X connect 8 0 11 0;
#X connect 8 0 1 0;
#X connect 8 0 33 0;
#X connect 8 0 157 0;
#X connect 9 0 172 0;
#X connect 13 0 14 0;
#X connect 13 0 103 0;
#X connect 15 0 158 0;
#X connect 15 0 159 0;
#X connect 16 0 28 0;
#X connect 17 0 103 1;
#X connect 21 0 92 0;
#X connect 22 0 88 0;
#X connect 22 0 92 2;
#X connect 23 0 87 0;
#X connect 23 0 92 1;
#X connect 24 0 17 0;
#X connect 26 0 21 0;
#X connect 27 0 29 0;
#X connect 27 0 94 0;
#X connect 28 0 31 0;
#X connect 28 0 95 0;
#X connect 29 0 104 0;
#X connect 31 0 105 0;
#X connect 33 0 42 0;
#X connect 33 0 100 0;
#X connect 33 0 124 0;
#X connect 33 0 125 0;
#X connect 38 0 104 1;
#X connect 39 0 104 0;
#X connect 40 0 120 1;
#X connect 41 0 121 0;
#X connect 42 0 43 0;
#X connect 43 0 46 0;
#X connect 44 0 77 1;
#X connect 45 0 106 1;
#X connect 51 0 57 0;
#X connect 51 0 59 0;
#X connect 52 0 60 0;
#X connect 52 0 58 0;
#X connect 53 0 54 0;
#X connect 54 0 55 1;
#X connect 54 1 55 0;
#X connect 55 0 56 0;
#X connect 55 0 113 0;
#X connect 57 0 190 0;
#X connect 60 0 190 0;
#X connect 61 0 50 0;
#X connect 61 1 51 0;
#X connect 61 2 52 1;
#X connect 62 0 51 1;
#X connect 62 1 49 0;
#X connect 62 2 52 0;
#X connect 65 0 112 0;
#X connect 66 0 67 0;
#X connect 66 0 73 0;
#X connect 67 0 68 0;
#X connect 67 0 74 0;
#X connect 68 0 72 0;
#X connect 68 0 81 0;
#X connect 68 0 80 0;
#X connect 69 0 45 0;
#X connect 69 0 71 0;
#X connect 69 0 182 0;
#X connect 70 0 77 2;
#X connect 71 0 107 1;
#X connect 72 0 77 0;
#X connect 72 1 106 0;
#X connect 72 2 107 0;
#X connect 77 0 76 0;
#X connect 77 0 116 0;
#X connect 81 0 78 0;
#X connect 81 0 83 0;
#X connect 81 0 118 0;
#X connect 81 1 79 0;
#X connect 81 1 84 0;
#X connect 81 1 117 0;
#X connect 89 0 93 0;
#X connect 90 0 123 0;
#X connect 92 0 171 0;
#X connect 93 0 94 0;
#X connect 93 1 95 0;
#X connect 94 0 20 0;
#X connect 95 0 19 0;
#X connect 97 0 86 0;
#X connect 100 0 102 0;
#X connect 100 0 122 0;
#X connect 100 0 160 0;
#X connect 101 0 16 0;
#X connect 102 0 0 0;
#X connect 103 0 18 0;
#X connect 104 0 30 0;
#X connect 104 0 36 0;
#X connect 105 0 37 0;
#X connect 105 0 32 0;
#X connect 106 0 109 0;
#X connect 107 0 108 0;
#X connect 108 0 70 0;
#X connect 109 0 44 0;
#X connect 111 0 125 0;
#X connect 112 0 64 0;
#X connect 112 1 63 0;
#X connect 113 0 47 0;
#X connect 113 0 61 0;
#X connect 113 1 48 0;
#X connect 113 1 62 0;
#X connect 115 0 97 0;
#X connect 115 0 119 0;
#X connect 116 0 75 0;
#X connect 117 0 85 0;
#X connect 118 0 82 0;
#X connect 118 0 162 0;
#X connect 120 0 66 1;
#X connect 121 0 67 1;
#X connect 121 1 66 0;
#X connect 121 2 120 0;
#X connect 122 0 96 0;
#X connect 122 0 25 0;
#X connect 123 0 91 0;
#X connect 124 0 34 0;
#X connect 125 0 35 0;
#X connect 125 0 110 0;
#X connect 126 0 130 1;
#X connect 127 0 99 0;
#X connect 128 0 99 1;
#X connect 129 0 99 1;
#X connect 133 0 132 0;
#X connect 134 0 128 0;
#X connect 134 0 127 0;
#X connect 136 0 135 0;
#X connect 137 0 126 0;
#X connect 141 0 140 0;
#X connect 143 0 142 0;
#X connect 144 0 142 0;
#X connect 145 0 140 0;
#X connect 146 0 141 0;
#X connect 146 0 143 0;
#X connect 148 0 147 0;
#X connect 149 0 132 0;
#X connect 151 0 150 0;
#X connect 152 0 150 0;
#X connect 153 0 193 0;
#X connect 154 0 151 0;
#X connect 156 0 126 0;
#X connect 158 0 101 1;
#X connect 159 0 102 1;
#X connect 160 0 101 0;
#X connect 161 0 158 0;
#X connect 164 0 128 0;
#X connect 164 0 127 0;
#X connect 165 0 128 0;
#X connect 166 0 127 0;
#X connect 167 0 163 0;
#X connect 168 0 188 0;
#X connect 168 0 189 0;
#X connect 169 0 130 0;
#X connect 170 0 194 1;
#X connect 171 0 115 0;
#X connect 172 0 173 0;
#X connect 173 0 176 0;
#X connect 174 0 175 0;
#X connect 175 0 172 3;
#X connect 177 0 179 0;
#X connect 177 0 180 0;
#X connect 178 0 171 1;
#X connect 179 0 178 0;
#X connect 181 0 182 0;
#X connect 182 0 184 0;
#X connect 182 1 183 0;
#X connect 183 0 171 1;
#X connect 184 0 115 0;
#X connect 185 0 170 0;
#X connect 186 0 170 0;
#X connect 187 0 186 0;
#X connect 188 0 167 0;
#X connect 189 0 169 0;
#X connect 193 0 150 0;
