#N canvas 0 22 1640 828 10;
#X obj 104 313 * 1;
#X obj 182 314 * 1;
#X obj 250 312 * 1;
#X obj 332 312 * 1;
#X obj 147 379 +;
#X obj 147 360 bng 10 250 50 0 empty empty empty 17 7 0 10 -262144
-1 -1;
#X floatatom 147 403 8 0 0 0 - - -;
#X floatatom 104 335 8 0 0 0 - - -;
#X floatatom 182 337 8 0 0 0 - - -;
#X obj 293 380 +;
#X obj 293 361 bng 10 250 50 0 empty empty empty 17 7 0 10 -262144
-1 -1;
#X floatatom 293 404 8 0 0 0 - - -;
#X floatatom 250 336 8 0 0 0 - - -;
#X floatatom 328 338 8 0 0 0 - - -;
#X obj 226 399 +;
#X obj 226 380 bng 10 250 50 0 empty empty empty 17 7 0 10 -262144
-1 -1;
#X floatatom 226 423 8 0 0 0 - - -;
#X obj 448 655 outlet;
#X text 493 657 adsr total time (ms);
#X obj 42 408 inlet~;
#X obj 313 316 bng 10 250 50 0 empty empty empty 17 7 0 10 -262144
-1 -1;
#X obj 232 315 bng 10 250 50 0 empty empty empty 17 7 0 10 -262144
-1 -1;
#X obj 163 316 bng 10 250 50 0 empty empty empty 17 7 0 10 -262144
-1 -1;
#X obj 84 314 bng 10 250 50 0 empty empty empty 17 7 0 10 -262144 -1
-1;
#X obj -2 408 inlet;
#X text -4 391 trig;
#X text 43 391 sound;
#X obj 147 613 *~;
#X obj 147 652 outlet~;
#X text 138 529 attack;
#X text 212 529 decay;
#X text 283 529 sus;
#X text 350 529 rel;
#X obj -2 459 bng 15 250 50 0 empty empty empty 17 7 0 10 -262144 -1
-1;
#X msg 303 502 0;
#X obj 180 582 vline~;
#X obj 400 522 +;
#X obj 400 503 bng 10 250 50 0 empty empty empty 17 7 0 10 -262144
-1 -1;
#X obj 166 490 f;
#X obj 234 490 f;
#X obj 135 545 pack 0 0;
#X obj 205 545 pack 0 0 0;
#X obj 274 545 pack 0 0 0;
#X obj 343 545 pack 0 0 0;
#X obj 638 119 inlet;
#X text 637 103 note vol;
#X obj 165 514 * 1;
#X obj 233 514 * 1;
#X text 108 103 attack;
#X text 187 103 decay;
#X text 252 103 sustain;
#X text 335 103 release;
#X obj 109 118 inlet;
#X obj 187 118 inlet;
#X obj 255 118 inlet;
#X obj 337 118 inlet;
#X obj 426 119 inlet;
#X text 484 104 att level;
#X obj 486 119 inlet;
#X text 552 103 sust level;
#X obj 554 119 inlet;
#X text 210 670 attack t;
#X obj 211 652 outlet;
#X text 271 670 decay t;
#X obj 272 652 outlet;
#X text 333 668 sust t;
#X obj 333 652 outlet;
#X text 393 670 rel t;
#X obj 393 654 outlet;
#X obj 104 281 / 100;
#X obj 182 281 / 100;
#X obj 250 281 / 100;
#X obj 332 281 / 100;
#X text 423 104 seg len;
#X symbolatom 619 360 10 0 0 0 - - -;
#X msg 115 250 \$1;
#X msg 199 250 \$2;
#X msg 272 250 \$3;
#X msg 344 250 \$4;
#X msg 421 250 \$5;
#X msg 486 250 \$6;
#X msg 542 250 \$7;
#X msg 583 250 \$8;
#X obj -25 131 loadbang;
#X obj -25 159 t b b b b b b b b;
#X connect 0 0 7 0;
#X connect 1 0 8 0;
#X connect 2 0 12 0;
#X connect 3 0 13 0;
#X connect 4 0 6 0;
#X connect 5 0 4 0;
#X connect 6 0 14 0;
#X connect 6 0 36 0;
#X connect 6 0 42 2;
#X connect 7 0 4 0;
#X connect 7 0 40 1;
#X connect 7 0 41 2;
#X connect 7 0 62 0;
#X connect 8 0 4 1;
#X connect 8 0 5 0;
#X connect 8 0 41 1;
#X connect 8 0 64 0;
#X connect 9 0 11 0;
#X connect 10 0 9 0;
#X connect 11 0 14 1;
#X connect 11 0 15 0;
#X connect 12 0 9 0;
#X connect 12 0 36 1;
#X connect 12 0 37 0;
#X connect 12 0 42 1;
#X connect 12 0 66 0;
#X connect 13 0 9 1;
#X connect 13 0 10 0;
#X connect 13 0 43 1;
#X connect 13 0 68 0;
#X connect 14 0 16 0;
#X connect 15 0 14 0;
#X connect 16 0 17 0;
#X connect 19 0 27 0;
#X connect 20 0 3 0;
#X connect 21 0 2 0;
#X connect 22 0 1 0;
#X connect 23 0 0 0;
#X connect 24 0 33 0;
#X connect 27 0 28 0;
#X connect 33 0 38 0;
#X connect 33 0 39 0;
#X connect 33 0 34 0;
#X connect 34 0 43 0;
#X connect 35 0 27 1;
#X connect 36 0 43 2;
#X connect 37 0 36 0;
#X connect 38 0 46 0;
#X connect 39 0 47 0;
#X connect 40 0 35 0;
#X connect 41 0 35 0;
#X connect 42 0 35 0;
#X connect 43 0 35 0;
#X connect 44 0 47 1;
#X connect 44 0 46 1;
#X connect 46 0 40 0;
#X connect 47 0 41 0;
#X connect 47 0 42 0;
#X connect 52 0 69 0;
#X connect 53 0 70 0;
#X connect 54 0 71 0;
#X connect 55 0 72 0;
#X connect 56 0 0 1;
#X connect 56 0 1 1;
#X connect 56 0 2 1;
#X connect 56 0 3 1;
#X connect 56 0 20 0;
#X connect 56 0 21 0;
#X connect 56 0 22 0;
#X connect 56 0 23 0;
#X connect 58 0 38 1;
#X connect 60 0 39 1;
#X connect 69 0 0 0;
#X connect 70 0 1 0;
#X connect 71 0 2 0;
#X connect 72 0 3 0;
#X connect 75 0 69 0;
#X connect 76 0 70 0;
#X connect 77 0 71 0;
#X connect 78 0 72 0;
#X connect 79 0 3 1;
#X connect 79 0 2 1;
#X connect 79 0 0 1;
#X connect 79 0 1 1;
#X connect 80 0 38 1;
#X connect 81 0 39 1;
#X connect 82 0 47 1;
#X connect 82 0 46 1;
#X connect 83 0 84 0;
#X connect 84 0 75 0;
#X connect 84 1 76 0;
#X connect 84 2 77 0;
#X connect 84 3 78 0;
#X connect 84 4 79 0;
#X connect 84 5 80 0;
#X connect 84 6 81 0;
#X connect 84 7 82 0;
