#N canvas 742 38 389 570 10;
#X obj 206 65 inlet;
#X obj 179 298 float;
#X msg 92 209 1;
#X obj 92 257 metro \$1;
#X obj 180 465 outlet;
#X obj 92 164 t b b;
#X obj 65 109 loadbang;
#X obj 125 206 float \$1;
#X floatatom 159 244 5 0 0 0 - - -;
#X obj 63 140 bng 15 250 50 0 empty empty empty 17 7 0 10 -262144 -1
-1;
#X obj 154 130 t b;
#X obj 150 155 onebang;
#X obj 180 390 t f b;
#X obj 180 368 list-drip;
#X obj 180 346 list-rev;
#X obj 180 324 last-x 200;
#X obj 253 414 counter 0 0 199;
#X obj 253 465 outlet;
#X connect 0 0 1 1;
#X connect 0 0 10 0;
#X connect 1 0 15 0;
#X connect 2 0 3 0;
#X connect 3 0 1 0;
#X connect 5 0 2 0;
#X connect 5 1 7 0;
#X connect 6 0 9 0;
#X connect 7 0 3 1;
#X connect 7 0 8 0;
#X connect 9 0 5 0;
#X connect 10 0 11 0;
#X connect 11 0 2 0;
#X connect 12 0 4 0;
#X connect 12 1 16 0;
#X connect 13 0 12 0;
#X connect 14 0 13 0;
#X connect 15 0 14 0;
#X connect 16 0 17 0;
