#N canvas 1099 111 456 939 10;
#N canvas 0 22 450 300 (subpatch) 0;
#X array ibi-as-bpm 200 float 4;
#X coords 0 50 199 90 400 140 1;
#X restore -38 -759 graph;
#N canvas 0 22 450 300 (subpatch) 0;
#X array ibi-dev-4-32-nml-smooth 200 float 4;
#X coords 0 1 199 0 400 140 1;
#X restore -35 -585 graph;
#X obj 395 -390 gk.grapher rsa-down-smooth 250;
#N canvas 0 22 450 300 (subpatch) 0;
#X array rsa-down-smooth 200 float 4;
#X coords 0 1 199 0 400 140 1;
#X restore -24 -390 graph;
#X obj 391 -598 gk.grapher ibi-dev-4-32-nml-smooth 250;
#X text -40 -850 NOTE: these tables take a while to fill;
#X obj 393 -214 gk.grapher rsa-up-smooth 250;
#N canvas 0 22 450 300 (subpatch) 0;
#X array rsa-up-smooth 200 float 4;
#X coords 0 1 199 0 400 140 1;
#X restore -26 -214 graph;
#X obj 403 -5 gk.grapher how-slow-32 250;
#N canvas 0 22 450 300 (subpatch) 0;
#X array how-slow-32 200 float 4;
#X coords 0 1 199 0 400 140 1;
#X restore -26 -43 graph;
#X text 382 -47 very slow;
#X text 388 83 not slow;
#X floatatom -62 20 5 0 0 0 - - -;
#X obj 643 -758 r ibi-as-bpm;
#X floatatom 642 -724 5 0 0 0 - - -;
#X obj 394 -709 gk.grapher ibi-as-bpm 250;
#X obj 771 -4 expr 60000/$f1;
#X floatatom 771 23 10 0 0 0 - - -;
#X floatatom 770 -52 10 0 0 0 - - -;
#X obj 394 131 gk.grapher bpm-mean-32 250;
#N canvas 0 22 450 300 (subpatch) 0;
#X array bpm-mean-32 200 float 4;
#X coords 0 50 199 90 400 140 1;
#X restore -22 132 graph;
#X obj 644 -61 r how-slow-32;
#X floatatom 644 -22 5 0 0 0 - - -;
#X text -39 -816 to do: track outliers with scatter plot?;
#X obj 867 -439 r ibi-session-longest;
#X obj 817 -465 r ibi-session-shortest;
#X floatatom 817 -441 5 0 0 0 - - -;
#X floatatom 867 -418 5 0 0 0 - - -;
#X floatatom 771 -468 5 0 0 0 - - -;
#X obj 771 -492 receive ibi-mean-32;
#X obj 817 -359 * 0.1;
#X obj 791 -314 + 0;
#X obj 790 -384 t f f;
#X msg 771 -247;
#X floatatom 790 -288 5 0 0 0 - - -;
#X connect 13 0 14 0;
#X connect 16 0 17 0;
#X connect 18 0 16 0;
#X connect 21 0 22 0;
#X connect 24 0 27 0;
#X connect 25 0 26 0;
#X connect 26 0 32 0;
#X connect 29 0 28 0;
#X connect 30 0 31 1;
#X connect 31 0 34 0;
#X connect 32 0 31 0;
#X connect 32 1 30 0;
