#N canvas 658 174 577 749 10;
#X obj 142 36 float;
#X msg 55 -53 1;
#X obj 55 -98 t b b;
#X obj 28 -153 loadbang;
#X floatatom 122 -18 5 0 0 0 - - -;
#X obj 26 -122 bng 15 250 50 0 empty empty empty 17 7 0 10 -262144
-1 -1;
#X obj 117 -132 t b;
#X obj 113 -107 onebang;
#X obj 143 128 t f b;
#X obj 143 106 list-drip;
#X obj 143 84 list-rev;
#X obj 143 62 last-x 200;
#X obj 216 152 counter 0 0 199;
#X obj 169 -201 r \$1;
#X obj 88 -56 float \$2;
#X obj 55 -5 metro 250;
#X obj 142 219 tabwrite \$1;
#X connect 0 0 11 0;
#X connect 1 0 15 0;
#X connect 2 0 1 0;
#X connect 2 1 14 0;
#X connect 3 0 5 0;
#X connect 5 0 2 0;
#X connect 6 0 7 0;
#X connect 7 0 1 0;
#X connect 8 0 16 0;
#X connect 8 1 12 0;
#X connect 9 0 8 0;
#X connect 10 0 9 0;
#X connect 11 0 10 0;
#X connect 12 0 16 1;
#X connect 13 0 0 1;
#X connect 13 0 6 0;
#X connect 14 0 4 0;
#X connect 14 0 15 1;
#X connect 15 0 0 0;
