#N canvas 0 22 450 300 10;
#X obj 88 21 inlet;
#X obj 77 169 spigot;
#X obj 88 90 t b b;
#X msg 134 133 0;
#X msg 173 133 1;
#X obj 77 222 outlet;
#X obj 173 20 inlet;
#X obj 173 90 t b;
#X obj 245 208 delay \$1;
#X connect 0 0 2 0;
#X connect 1 0 5 0;
#X connect 1 0 8 0;
#X connect 2 0 3 0;
#X connect 2 1 1 0;
#X connect 3 0 1 1;
#X connect 4 0 1 1;
#X connect 6 0 7 0;
#X connect 7 0 4 0;
#X connect 8 0 4 0;
