#N canvas 0 22 640 1062 10;
#X obj 209 28 inlet;
#X obj 58 99 -;
#X obj 58 126 abs;
#X obj 22 28 inlet;
#X obj 21 304 spigot;
#X obj 21 59 t f f f;
#X obj 109 206 f;
#X obj 109 231 == 0;
#X obj 75 231 == 0;
#X obj 75 256 &&;
#X obj 58 278 ||;
#X obj 58 182 t f f f b;
#X obj 58 149 <= \$1;
#X obj 60 359 -;
#X obj 60 386 abs;
#X obj 21 570 spigot;
#X obj 21 330 t f f f;
#X obj 111 471 f;
#X obj 111 496 == 0;
#X obj 77 496 == 0;
#X obj 77 521 &&;
#X obj 60 543 ||;
#X obj 60 442 t f f f b;
#X obj 60 409 <= \$1;
#X obj 60 632 -;
#X obj 60 659 abs;
#X obj 21 843 spigot;
#X obj 21 603 t f f f;
#X obj 111 744 f;
#X obj 111 769 == 0;
#X obj 77 769 == 0;
#X obj 77 794 &&;
#X obj 60 816 ||;
#X obj 60 715 t f f f b;
#X obj 60 682 <= \$1;
#X floatatom 208 109 5 0 0 0 - - -;
#X obj 209 59 int \$1;
#X obj 20 874 outlet;
#X text 206 333 Discards values that jump by more than;
#X text 205 351 +/- the the value set by the right inlet or arg1;
#X text 21 -19;
#X text 205 367 but if a 2 more jumps of same value takes place we
assume;
#X text 203 385 it is back to the original value OR intended;
#X connect 0 0 36 0;
#X connect 1 0 2 0;
#X connect 2 0 12 0;
#X connect 3 0 5 0;
#X connect 4 0 16 0;
#X connect 5 0 4 0;
#X connect 5 1 1 1;
#X connect 5 2 1 0;
#X connect 6 0 7 0;
#X connect 7 0 9 1;
#X connect 8 0 9 0;
#X connect 9 0 10 1;
#X connect 10 0 4 1;
#X connect 11 0 10 0;
#X connect 11 1 8 0;
#X connect 11 2 6 1;
#X connect 11 3 6 0;
#X connect 12 0 11 0;
#X connect 13 0 14 0;
#X connect 14 0 23 0;
#X connect 15 0 27 0;
#X connect 16 0 15 0;
#X connect 16 1 13 1;
#X connect 16 2 13 0;
#X connect 17 0 18 0;
#X connect 18 0 20 1;
#X connect 19 0 20 0;
#X connect 20 0 21 1;
#X connect 21 0 15 1;
#X connect 22 0 21 0;
#X connect 22 1 19 0;
#X connect 22 2 17 1;
#X connect 22 3 17 0;
#X connect 23 0 22 0;
#X connect 24 0 25 0;
#X connect 25 0 34 0;
#X connect 26 0 37 0;
#X connect 27 0 26 0;
#X connect 27 1 24 1;
#X connect 27 2 24 0;
#X connect 28 0 29 0;
#X connect 29 0 31 1;
#X connect 30 0 31 0;
#X connect 31 0 32 1;
#X connect 32 0 26 1;
#X connect 33 0 32 0;
#X connect 33 1 30 0;
#X connect 33 2 28 1;
#X connect 33 3 28 0;
#X connect 34 0 33 0;
#X connect 36 0 12 1;
#X connect 36 0 23 1;
#X connect 36 0 34 1;
#X connect 36 0 35 0;
