#N canvas 33 26 1404 992 10;
#N canvas 0 22 450 300 (subpatch) 0;
#X array sample-01L 424702 float 2;
#X coords 0 1 424702 -1 200 140 1;
#X restore 608 135 graph;
#N canvas 0 22 450 300 (subpatch) 0;
#X array sample-01R 424702 float 2;
#X coords 0 1 424702 -1 200 140 1;
#X restore 608 -28 graph;
#X obj 149 97 bng 15 250 50 0 empty empty empty 17 7 0 10 -262144 -1
-1;
#X obj 149 117 openpanel;
#X obj 149 184 soundfiler;
#X floatatom 149 216 15 0 0 0 - - -;
#X text 826 219 NOTE: will need to develop a work-around use of expr
object expr object is licensed under GNU GPL so can't be submitted
to App Store. Should be OK for pilot trial (doesn't use App Store)
\, but a high priority for App Stotre release.;
#X text 610 289 NOTE: Samplerate for audio needs to be set at 22050
Hz;
#X obj 193 442 tabread4~ sample-01R;
#X obj 33 440 tabread4~ sample-01L;
#X obj 404 463 vsl 50 128 0 1 0 0 empty empty empty 0 -9 0 10 -262144
-1 -1 10200 1;
#X obj 32 378 vline~;
#X obj 33 639 *~;
#X obj 193 640 *~;
#X obj 31 159 mtof;
#X floatatom 47 127 5 0 0 0 - - -;
#X floatatom 149 268 10 0 0 0 - - -;
#X floatatom 32 261 10 0 0 0 - - -;
#X msg 32 339 1 \, \$1 \$2;
#X obj 46 104 bng 15 250 50 0 empty empty empty 17 7 0 10 -262144 -1
-1;
#X obj 149 239 / 44.1;
#X msg 437 332 /Users/georgepoonkhinkhut/Dropbox/BrightHearts_iOS_beta_Development/brighthearts-ios-pd/samples/daphne_tibetan-bell.aif
;
#X msg 437 298 set \$1;
#X floatatom 45 182 5 0 0 0 - - -;
#X msg 87 127 69;
#X obj 31 209 / 441;
#X obj 31 235 * 441000;
#X obj 31 71 inlet;
#X obj 32 312 pack 0 0 -------------------------;
#X text 235 95 Q: what is the file path needed for libpd?;
#X msg 236 119 daphne_tibetan-bell.aif;
#X msg 493 483 -resize;
#X msg 493 449 set \$1;
#X msg 149 145 read -resize ../samples/daphne_tibetan-bell.aif sample-01L
sample-01R;
#X obj 83 98 r note;
#X obj 156 46 s note;
#X msg 401 -7 46;
#X msg 438 -7 47;
#X msg 39 -3 64;
#X msg 72 -5 67;
#X msg 126 -6 69;
#X msg 181 -6 79;
#X msg 222 -7 86;
#X msg 258 -7 88;
#X msg 293 -7 91;
#X msg 330 -7 96;
#X msg 366 -7 98;
#X obj 192 729 *~ 0.5;
#X obj 88 729 *~ 0.5;
#N canvas 368 131 749 586 delay-fx 0;
#X obj 28 39 inlet~;
#X obj 75 375 outlet~;
#X obj 66 113 delwrite~ delay-fx-001L 10000;
#X obj 74 205 delread~ delay-fx-001L 3000;
#X obj 325 77 delwrite~ delay-fx-001R 10000;
#X obj 264 366 outlet~;
#X obj 306 203 delread~ delay-fx-001R 6000;
#X obj 191 157 *~ 0.5;
#X obj 380 158 *~ 0.5;
#X obj 97 302 *~ 0.25;
#X obj 286 301 *~ 0.25;
#X connect 0 0 2 0;
#X connect 0 0 4 0;
#X connect 0 0 1 0;
#X connect 0 0 5 0;
#X connect 3 0 7 0;
#X connect 3 0 9 0;
#X connect 6 0 8 0;
#X connect 6 0 10 0;
#X connect 7 0 2 0;
#X connect 8 0 4 0;
#X connect 9 0 1 0;
#X connect 9 0 5 0;
#X connect 10 0 5 0;
#X connect 10 0 1 0;
#X restore 74 684 pd delay-fx;
#X obj 42 768 clip~ -1 1;
#X obj 40 729 *~ 0.5;
#X obj 144 729 *~ 0.5;
#X obj 134 769 clip~ -1 1;
#X obj 38 858 throw~ sampler-01-L;
#X obj 172 859 throw~ sampler-01-R;
#X connect 2 0 3 0;
#X connect 3 0 33 0;
#X connect 3 0 22 0;
#X connect 4 0 5 0;
#X connect 5 0 20 0;
#X connect 8 0 13 0;
#X connect 9 0 12 0;
#X connect 10 0 13 1;
#X connect 10 0 12 1;
#X connect 11 0 9 0;
#X connect 11 0 8 0;
#X connect 12 0 49 0;
#X connect 12 0 51 0;
#X connect 13 0 49 0;
#X connect 13 0 52 0;
#X connect 14 0 23 0;
#X connect 14 0 25 0;
#X connect 15 0 14 0;
#X connect 16 0 28 1;
#X connect 17 0 28 0;
#X connect 18 0 11 0;
#X connect 19 0 15 0;
#X connect 20 0 16 0;
#X connect 22 0 21 0;
#X connect 24 0 14 0;
#X connect 25 0 26 0;
#X connect 26 0 17 0;
#X connect 27 0 14 0;
#X connect 28 0 18 0;
#X connect 32 0 31 0;
#X connect 33 0 4 0;
#X connect 34 0 15 0;
#X connect 36 0 35 0;
#X connect 37 0 35 0;
#X connect 38 0 35 0;
#X connect 39 0 35 0;
#X connect 40 0 35 0;
#X connect 41 0 35 0;
#X connect 42 0 35 0;
#X connect 43 0 35 0;
#X connect 44 0 35 0;
#X connect 45 0 35 0;
#X connect 46 0 35 0;
#X connect 47 0 53 0;
#X connect 48 0 50 0;
#X connect 49 0 48 0;
#X connect 49 0 47 0;
#X connect 49 1 47 0;
#X connect 49 1 48 0;
#X connect 50 0 54 0;
#X connect 51 0 50 0;
#X connect 52 0 53 0;
#X connect 53 0 55 0;
