#N canvas 274 90 1156 692 10;
#X obj 317 -165 inlet;
#X obj 317 16 float;
#X msg 76 72 1;
#X obj 73 115 metro 40;
#X msg 38 71 0;
#X obj 121 150 t b b b;
#X obj 207 270 - 0;
#X obj 208 322 / 1;
#X obj 209 361 + 0;
#X obj 208 408 * 1;
#X obj 650 -160 inlet;
#X obj 719 -159 inlet;
#X obj 272 232 t f f;
#X obj 207 451 + 0;
#X obj 174 667 outlet;
#X obj 34 469 abs;
#X obj 31 513 change;
#X obj 34 491 < 0.0001;
#X obj 30 590 delay 500;
#X obj 317 42 t b f;
#X floatatom 646 189 5 0 0 0 - - -;
#X floatatom 727 194 5 0 0 0 - - -;
#X obj 720 -8 clip 0.01 0.5;
#X obj 649 -1 abs;
#X obj 751 21 loadbang;
#X obj 766 54 t b b;
#X obj 272 207 float;
#X obj 462 503 float;
#X obj 160 412 float;
#X obj 202 185 float;
#X obj 31 549 gk.edge;
#X obj 649 95 float \$5;
#X obj 751 96 float \$6;
#X obj 377 -164 inlet;
#X obj 446 -163 inlet;
#X obj 499 -165 inlet;
#X obj 568 -164 inlet;
#X obj 170 569 clip \$3 \$4;
#X obj 317 -91 scale \$1 \$2 \$3 \$4;
#X obj 272 -124 select 0;
#X connect 0 0 39 0;
#X connect 1 0 19 0;
#X connect 2 0 3 0;
#X connect 3 0 5 0;
#X connect 4 0 3 0;
#X connect 5 0 29 0;
#X connect 5 1 26 0;
#X connect 5 2 28 0;
#X connect 6 0 7 0;
#X connect 7 0 8 0;
#X connect 8 0 9 0;
#X connect 9 0 13 0;
#X connect 9 0 15 0;
#X connect 9 0 28 1;
#X connect 10 0 23 0;
#X connect 11 0 22 0;
#X connect 12 0 13 1;
#X connect 12 1 6 1;
#X connect 13 0 27 0;
#X connect 13 0 37 0;
#X connect 15 0 17 0;
#X connect 16 0 30 0;
#X connect 17 0 16 0;
#X connect 18 0 4 0;
#X connect 19 0 2 0;
#X connect 19 1 29 1;
#X connect 20 0 7 1;
#X connect 21 0 9 1;
#X connect 22 0 32 0;
#X connect 23 0 31 0;
#X connect 24 0 25 0;
#X connect 25 0 31 0;
#X connect 25 1 32 0;
#X connect 26 0 12 0;
#X connect 27 0 26 1;
#X connect 28 0 8 1;
#X connect 29 0 6 0;
#X connect 30 1 18 0;
#X connect 31 0 20 0;
#X connect 32 0 21 0;
#X connect 33 0 38 1;
#X connect 34 0 38 2;
#X connect 35 0 38 3;
#X connect 36 0 38 4;
#X connect 37 0 14 0;
#X connect 38 0 1 0;
#X connect 39 1 38 0;
