#N canvas 865 382 450 300 10;
#X obj 129 37 inlet;
#X obj 146 266 outlet;
#X obj 227 221 float;
#X obj 195 266 outlet;
#X obj 145 117 moses \$1;
#X obj 144 159 moses \$2;
#X connect 0 0 4 0;
#X connect 2 0 3 0;
#X connect 4 0 2 0;
#X connect 4 1 5 0;
#X connect 5 0 1 0;
#X connect 5 1 2 0;
