#N canvas 580 154 860 636 10;
#X obj 56 33 inlet;
#X obj 1021 367 delay 10000;
#X obj 40 235 *~;
#X obj 343 34 inlet;
#X obj 577 33 inlet;
#X obj 73 59 bng 15 250 50 0 empty empty empty 17 7 0 10 -262144 -1
-1;
#X obj 55 189 vline~;
#X obj 56 140 t b;
#X obj 42 378 *~;
#X obj 107 317 *~ 0.25;
#X obj 103 354 +~ 0.75;
#X text 194 491 arg 3 send~;
#X msg 55 165 1 5 \, 0.2 100 105 \, 0.1 1050 110 \, 0 1000 1160;
#X obj 39 275 *~ 0.75;
#X obj 106 262 osc~ 3;
#X obj 37 580 outlet~;
#X obj 343 129 osc~ \$1;
#X obj 45 443 *~ \$2;
#X connect 0 0 7 0;
#X connect 2 0 13 0;
#X connect 3 0 16 0;
#X connect 4 0 17 1;
#X connect 5 0 7 0;
#X connect 6 0 2 1;
#X connect 7 0 12 0;
#X connect 8 0 17 0;
#X connect 9 0 10 0;
#X connect 10 0 8 1;
#X connect 12 0 6 0;
#X connect 13 0 8 0;
#X connect 14 0 9 0;
#X connect 16 0 2 0;
#X connect 17 0 15 0;
