#N canvas 743 276 528 490 10;
#X floatatom 28 52 5 0 0 0 - - -;
#X floatatom 89 56 5 0 0 0 - - -;
#X obj 89 89 change;
#X obj 28 87 change;
#X obj 89 123 select 1;
#X obj 27 124 select 1;
#X obj 27 172 onebang;
#X obj 28 -6 t f f;
#X obj 28 -41 inlet;
#X obj 27 226 outlet;
#X obj 28 28 >= \$1;
#X obj 89 29 <= \$2;
#X connect 0 0 3 0;
#X connect 1 0 2 0;
#X connect 2 0 4 0;
#X connect 3 0 5 0;
#X connect 4 0 6 1;
#X connect 5 0 6 0;
#X connect 6 0 9 0;
#X connect 7 0 10 0;
#X connect 7 1 11 0;
#X connect 8 0 7 0;
#X connect 10 0 0 0;
#X connect 11 0 1 0;
