#N canvas 544 320 450 300 10;
#X obj 18 64 catch~ \$1-L;
#X obj 162 64 catch~ \$1-R;
#X obj 296 63 inlet;
#X obj 297 93 clip 0 2;
#X obj 18 137 *~ \$2;
#X obj 162 127 *~ \$2;
#X obj 18 235 outlet~;
#X obj 162 228 outlet~;
#X connect 0 0 4 0;
#X connect 1 0 5 0;
#X connect 2 0 3 0;
#X connect 3 0 4 1;
#X connect 3 0 5 1;
#X connect 4 0 6 0;
#X connect 5 0 7 0;
