#N canvas 544 320 450 300 10;
#X obj 18 137 *~ \$2;
#X obj 162 127 *~ \$2;
#X obj 22 217 throw~ \$1-L;
#X obj 166 217 throw~ \$1-R;
#X obj 18 63 inlet~;
#X obj 161 63 inlet~;
#X obj 226 68 inlet;
#X connect 0 0 2 0;
#X connect 1 0 3 0;
#X connect 4 0 0 0;
#X connect 5 0 1 0;
#X connect 6 0 1 1;
#X connect 6 0 0 1;
