#N canvas 498 22 458 412 10;
#X obj 89 139 list append;
#X obj 157 108 route clear;
#X obj 221 141 route float;
#X obj 90 59 inlet;
#X obj 150 59 inlet;
#X obj 90 206 list split \$1;
#X obj 91 243 outlet;
#X text 286 247 .mmb;
#X connect 0 0 5 0;
#X connect 1 0 0 1;
#X connect 1 1 2 0;
#X connect 2 0 5 1;
#X connect 3 0 0 0;
#X connect 4 0 1 0;
#X connect 5 0 0 1;
#X connect 5 0 6 0;
#X connect 5 2 0 1;
